<svg width="21" height="10" viewBox="0 0 21 10" fill="none" xmlns="http://www.w3.org/2000/svg">
<path d="M0.273038 9.31445V8.54741L3.15372 5.394C3.49179 5.02468 3.7702 4.70366 3.98895 4.43093C4.2077 4.15536 4.36963 3.89684 4.47474 3.65536C4.5827 3.41104 4.63667 3.15536 4.63667 2.88832C4.63667 2.5815 4.56281 2.31587 4.41508 2.09144C4.2702 1.86701 4.07133 1.69371 3.81849 1.57156C3.56565 1.4494 3.28156 1.38832 2.96622 1.38832C2.63099 1.38832 2.33838 1.45792 2.08838 1.59712C1.84122 1.73349 1.64946 1.92525 1.51309 2.17241C1.37957 2.41957 1.31281 2.70934 1.31281 3.04173H0.307129C0.307129 2.53036 0.425027 2.0815 0.660822 1.69513C0.896618 1.30877 1.21764 1.00763 1.62389 0.791725C2.03298 0.575816 2.49179 0.467862 3.00031 0.467862C3.51167 0.467862 3.9648 0.575816 4.35969 0.791725C4.75457 1.00763 5.06423 1.29883 5.28866 1.66531C5.51309 2.03178 5.62531 2.43945 5.62531 2.88832C5.62531 3.20934 5.56707 3.52326 5.4506 3.83008C5.33696 4.13406 5.13809 4.47354 4.854 4.84854C4.57275 5.2207 4.18213 5.67525 3.68213 6.21218L1.7219 8.30877V8.37695H5.77872V9.31445H0.273038ZM10.2659 9.43377C9.76594 9.43377 9.31565 9.33434 8.91508 9.13548C8.51452 8.93661 8.19349 8.66388 7.95202 8.31729C7.71054 7.9707 7.57844 7.57582 7.55571 7.13263H8.57844C8.61821 7.52752 8.79719 7.85423 9.11537 8.11275C9.43639 8.36843 9.81991 8.49627 10.2659 8.49627C10.6239 8.49627 10.9421 8.41246 11.2205 8.24485C11.5017 8.07724 11.7219 7.84712 11.881 7.55451C12.0429 7.25906 12.1239 6.92525 12.1239 6.55309C12.1239 6.17241 12.0401 5.83292 11.8725 5.53462C11.7077 5.23349 11.4804 4.99627 11.1907 4.82298C10.9009 4.64968 10.5699 4.56161 10.1978 4.55877C9.93071 4.55593 9.65656 4.59712 9.37531 4.68235C9.09406 4.76474 8.86253 4.87127 8.68071 5.00195L7.69207 4.88263L8.22048 0.58718H12.7546V1.52468H9.10684L8.80003 4.09854H8.85116C9.03014 3.9565 9.25457 3.8386 9.52446 3.74485C9.79434 3.6511 10.0756 3.60423 10.3682 3.60423C10.9023 3.60423 11.3782 3.73207 11.7958 3.98775C12.2162 4.24059 12.5458 4.58718 12.7844 5.02752C13.0259 5.46786 13.1466 5.9707 13.1466 6.53604C13.1466 7.09286 13.0216 7.59002 12.7716 8.02752C12.5245 8.46218 12.1835 8.80593 11.7489 9.05877C11.3142 9.30877 10.8199 9.43377 10.2659 9.43377ZM17.686 9.43377C17.044 9.43377 16.4971 9.25906 16.0454 8.90962C15.5937 8.55735 15.2485 8.04741 15.0099 7.37979C14.7713 6.70934 14.6519 5.89968 14.6519 4.95082C14.6519 4.00763 14.7713 3.20224 15.0099 2.53462C15.2514 1.86417 15.598 1.35281 16.0497 1.00053C16.5042 0.645419 17.0497 0.467862 17.686 0.467862C18.3224 0.467862 18.8664 0.645419 19.3181 1.00053C19.7727 1.35281 20.1193 1.86417 20.3579 2.53462C20.5994 3.20224 20.7201 4.00763 20.7201 4.95082C20.7201 5.89968 20.6008 6.70934 20.3622 7.37979C20.1235 8.04741 19.7784 8.55735 19.3267 8.90962C18.875 9.25906 18.3281 9.43377 17.686 9.43377ZM17.686 8.49627C18.3224 8.49627 18.8167 8.18945 19.169 7.57582C19.5213 6.96218 19.6974 6.08718 19.6974 4.95082C19.6974 4.19513 19.6164 3.55167 19.4545 3.02042C19.2954 2.48917 19.0653 2.08434 18.7642 1.80593C18.4659 1.52752 18.1065 1.38832 17.686 1.38832C17.0554 1.38832 16.5625 1.6994 16.2073 2.32156C15.8522 2.94087 15.6747 3.81729 15.6747 4.95082C15.6747 5.7065 15.7542 6.34854 15.9133 6.87695C16.0724 7.40536 16.3011 7.80735 16.5994 8.08292C16.9005 8.35849 17.2627 8.49627 17.686 8.49627Z" fill="black"/>
</svg>
