<svg width="932" height="808" viewBox="0 0 932 808" fill="none" xmlns="http://www.w3.org/2000/svg">
<path d="M732 342.081C732 506.938 530.433 597 349.631 597C168.83 597 0 456.193 0 291.336C0 126.479 168.83 0 349.631 0C530.433 0 732 177.224 732 342.081Z" fill="#800080" fill-opacity="0.7"/>
<path d="M932 565.415C932 708.552 813.235 808 662.003 808C510.77 808 323 708.552 323 565.415C323 422.278 535.962 257 687.195 257C838.428 257 932 422.278 932 565.415Z" fill="#0085DF" fill-opacity="0.7"/>
<path d="M173.44 397.272C173.44 398.808 173.909 400.045 174.848 400.984C175.787 401.923 177.024 402.392 178.56 402.392H178.944C180.48 402.392 181.717 401.923 182.656 400.984C183.595 400.045 184.064 398.808 184.064 397.272V392.664H193.664V396.76C193.664 398.296 193.408 399.704 192.896 400.984C192.427 402.221 191.744 403.288 190.848 404.184C189.952 405.08 188.864 405.784 187.584 406.296C186.347 406.765 184.96 407 183.424 407H174.08C172.544 407 171.136 406.765 169.856 406.296C168.619 405.784 167.552 405.08 166.656 404.184C165.76 403.288 165.056 402.221 164.544 400.984C164.075 399.704 163.84 398.296 163.84 396.76V372.44C163.84 370.904 164.075 369.517 164.544 368.28C165.056 367 165.76 365.912 166.656 365.016C167.552 364.12 168.619 363.437 169.856 362.968C171.136 362.456 172.544 362.2 174.08 362.2H183.424C184.96 362.2 186.347 362.456 187.584 362.968C188.864 363.437 189.952 364.12 190.848 365.016C191.744 365.912 192.427 367 192.896 368.28C193.408 369.517 193.664 370.904 193.664 372.44V376.536H184.064V371.928C184.064 370.392 183.595 369.155 182.656 368.216C181.717 367.277 180.48 366.808 178.944 366.808H178.56C177.024 366.808 175.787 367.277 174.848 368.216C173.909 369.155 173.44 370.392 173.44 371.928V397.272ZM199.42 382.296C199.633 379.48 200.657 377.219 202.492 375.512C204.327 373.805 206.716 372.952 209.66 372.952H219.004C220.54 372.952 221.927 373.208 223.164 373.72C224.444 374.189 225.532 374.872 226.428 375.768C227.324 376.664 228.007 377.752 228.476 379.032C228.988 380.269 229.244 381.656 229.244 383.192V396.76C229.244 400.344 228.305 402.947 226.428 404.568C224.551 406.189 222.076 407 219.004 407H209.66C208.124 407 206.716 406.765 205.436 406.296C204.199 405.827 203.132 405.165 202.236 404.312C201.34 403.459 200.636 402.435 200.124 401.24C199.655 400.045 199.42 398.723 199.42 397.272V382.296ZM219.644 382.68C219.644 381.144 219.175 379.907 218.236 378.968C217.297 378.029 216.06 377.56 214.524 377.56H214.14C212.604 377.56 211.367 378.029 210.428 378.968C209.489 379.907 209.02 381.144 209.02 382.68V397.208C209.02 398.744 209.489 400.003 210.428 400.984C211.367 401.923 212.604 402.392 214.14 402.392H214.524C216.06 402.392 217.297 401.923 218.236 400.984C219.175 400.045 219.644 398.808 219.644 397.272V382.68ZM271.508 382.68C271.508 381.144 271.038 379.907 270.1 378.968C269.161 378.029 267.924 377.56 266.388 377.56H260.5C261.438 379.181 261.908 381.059 261.908 383.192V407H252.308V382.68C252.308 381.144 251.838 379.907 250.9 378.968C249.961 378.029 248.724 377.56 247.188 377.56H242.708V407H233.108V372.952H270.868C273.94 372.952 276.414 373.891 278.292 375.768C280.169 377.645 281.108 380.12 281.108 383.192V403.8H283.092C283.945 403.8 284.372 403.373 284.372 402.52V397.4H287.572V402.392C287.572 403.757 287.145 404.867 286.292 405.72C285.438 406.573 284.329 407 282.964 407H271.508V382.68ZM294.377 372.952H313.961C317.033 372.952 319.507 373.891 321.385 375.768C323.262 377.645 324.201 380.12 324.201 383.192V396.76C324.201 400.344 323.262 402.947 321.385 404.568C319.507 406.189 317.033 407 313.961 407H303.977V423H292.521C291.155 423 290.046 422.573 289.193 421.72C288.339 420.867 287.913 419.757 287.913 418.392V413.4H291.113V418.52C291.113 419.373 291.539 419.8 292.393 419.8H294.377V372.952ZM314.601 382.68C314.601 381.144 314.131 379.907 313.193 378.968C312.254 378.029 311.017 377.56 309.481 377.56H309.097C307.561 377.56 306.323 378.029 305.385 378.968C304.446 379.907 303.977 381.144 303.977 382.68V397.208C303.977 398.744 304.446 400.003 305.385 400.984C306.323 401.923 307.561 402.392 309.097 402.392H309.481C311.017 402.392 312.254 401.923 313.193 400.984C314.131 400.045 314.601 398.808 314.601 397.272V382.68ZM337.645 397.272C337.645 398.808 338.114 400.045 339.053 400.984C339.992 401.923 341.229 402.392 342.765 402.392H347.245V372.952H356.845V403.8H358.829C359.682 403.8 360.109 403.373 360.109 402.52V397.4H363.309V402.392C363.309 403.757 362.882 404.867 362.029 405.72C361.176 406.573 360.066 407 358.701 407H338.285C335.213 407 332.738 406.061 330.861 404.184C328.984 402.307 328.045 399.832 328.045 396.76V372.952H337.645V397.272ZM377.09 397.272C377.09 398.808 377.559 400.045 378.498 400.984C379.437 401.923 380.674 402.392 382.21 402.392H383.874V397.4H387.074V407H377.73C374.658 407 372.183 406.061 370.306 404.184C368.429 402.307 367.49 399.832 367.49 396.76V363.992H377.09V397.272ZM379.458 370.392H387.778L385.474 375H377.154L379.458 370.392ZM390.67 394.328C390.67 392.963 391.097 391.853 391.95 391C392.803 390.147 393.913 389.72 395.278 389.72H397.134V382.552C397.134 380.76 397.369 379.267 397.838 378.072C398.35 376.835 399.054 375.853 399.95 375.128C400.846 374.36 401.913 373.805 403.15 373.464C404.43 373.123 405.838 372.952 407.374 372.952H416.718C419.79 372.952 422.265 373.763 424.142 375.384C426.019 376.963 426.958 379.203 426.958 382.104V384.024C426.958 385.859 426.638 387.352 425.998 388.504C425.401 389.656 424.569 390.573 423.502 391.256C422.435 391.939 421.219 392.408 419.854 392.664C418.489 392.92 417.059 393.091 415.566 393.176C414.073 393.219 412.558 393.219 411.022 393.176C409.529 393.091 408.099 393.048 406.734 393.048V397.272C406.734 398.808 407.203 400.045 408.142 400.984C409.081 401.923 410.318 402.392 411.854 402.392H412.238C413.774 402.392 415.011 401.987 415.95 401.176C416.889 400.365 417.358 399.192 417.358 397.656H426.958C426.958 400.728 426.019 403.053 424.142 404.632C422.265 406.211 419.79 407 416.718 407H407.374C405.838 407 404.43 406.765 403.15 406.296C401.913 405.784 400.846 405.08 399.95 404.184C399.054 403.288 398.35 402.221 397.838 400.984C397.369 399.704 397.134 398.296 397.134 396.76V392.92H395.15C394.297 392.92 393.87 393.347 393.87 394.2V399.32H390.67V394.328ZM417.358 384.024V382.104C417.358 380.568 416.889 379.437 415.95 378.712C415.011 377.944 413.774 377.56 412.238 377.56H411.854C410.318 377.56 409.081 377.923 408.142 378.648C407.203 379.373 406.734 380.504 406.734 382.04V389.784C408.099 389.784 409.401 389.741 410.638 389.656C411.918 389.528 413.049 389.272 414.03 388.888C415.054 388.504 415.865 387.928 416.462 387.16C417.059 386.392 417.358 385.347 417.358 384.024ZM437.947 372.952H447.547V407H436.091C434.725 407 433.616 406.573 432.763 405.72C431.909 404.867 431.483 403.757 431.483 402.392V397.4H434.683V402.52C434.683 403.373 435.109 403.8 435.963 403.8H437.947V372.952ZM455.611 382.68C455.611 381.144 455.141 379.907 454.203 378.968C453.264 378.029 452.027 377.56 450.491 377.56H447.547V372.952H454.971C458.043 372.952 460.517 373.891 462.395 375.768C464.272 377.645 465.211 380.12 465.211 383.192V385.816H455.611V382.68ZM495.357 371.928C495.357 372.739 495.335 373.571 495.293 374.424C495.25 375.277 495.442 375.981 495.869 376.536C496.594 377.56 497.533 378.477 498.685 379.288C499.837 380.099 501.074 380.888 502.397 381.656C503.762 382.381 505.127 383.107 506.493 383.832C507.858 384.557 509.138 385.347 510.333 386.2C511.57 387.053 512.637 387.992 513.533 389.016C514.429 390.04 515.047 391.213 515.389 392.536C515.559 393.091 515.623 393.752 515.581 394.52C515.581 395.245 515.581 395.992 515.581 396.76C515.581 398.296 515.325 399.704 514.812 400.984C514.343 402.221 513.661 403.288 512.765 404.184C511.869 405.08 510.781 405.784 509.501 406.296C508.263 406.765 506.877 407 505.341 407H495.997C492.925 407 490.45 406.061 488.573 404.184C486.695 402.307 485.757 399.832 485.757 396.76V392.664H495.357V397.272C495.357 398.808 495.826 400.045 496.765 400.984C497.703 401.923 498.941 402.392 500.477 402.392H500.861C502.397 402.392 503.634 401.923 504.573 400.984C505.511 400.045 505.981 398.808 505.981 397.272C505.981 396.333 505.981 395.501 505.981 394.776C506.023 394.051 505.895 393.347 505.597 392.664C505.17 391.683 504.466 390.808 503.485 390.04C502.503 389.272 501.394 388.547 500.157 387.864C498.919 387.181 497.597 386.499 496.189 385.816C494.781 385.091 493.437 384.301 492.157 383.448C490.877 382.595 489.703 381.613 488.637 380.504C487.57 379.352 486.759 378.029 486.205 376.536C485.949 375.853 485.799 375.107 485.757 374.296C485.757 373.485 485.757 372.696 485.757 371.928C485.757 368.856 486.695 366.467 488.573 364.76C490.45 363.053 492.925 362.2 495.997 362.2H505.341C506.877 362.2 508.263 362.456 509.501 362.968C510.781 363.437 511.869 364.12 512.765 365.016C513.661 365.912 514.343 367 514.812 368.28C515.325 369.517 515.581 370.904 515.581 372.44V376.536H505.981V371.928C505.981 370.392 505.511 369.155 504.573 368.216C503.634 367.277 502.397 366.808 500.861 366.808H500.477C498.941 366.808 497.703 367.277 496.765 368.216C495.826 369.155 495.357 370.392 495.357 371.928ZM540.644 382.68C540.644 381.144 540.175 379.907 539.236 378.968C538.297 378.029 537.06 377.56 535.524 377.56H535.14C533.604 377.56 532.367 378.029 531.428 378.968C530.489 379.907 530.02 381.144 530.02 382.68V397.272C530.02 398.808 530.489 400.045 531.428 400.984C532.367 401.923 533.604 402.392 535.14 402.392H535.524C537.06 402.392 538.297 401.923 539.236 400.984C540.175 400.045 540.644 398.808 540.644 397.272V397.08H550.244V397.336C550.244 399.128 549.988 400.643 549.476 401.88C549.007 403.075 548.324 404.056 547.428 404.824C546.532 405.592 545.444 406.147 544.164 406.488C542.927 406.829 541.54 407 540.004 407H530.66C529.124 407 527.716 406.765 526.436 406.296C525.199 405.827 524.132 405.165 523.236 404.312C522.34 403.459 521.636 402.456 521.124 401.304C520.655 400.109 520.42 398.787 520.42 397.336V382.296C520.633 379.48 521.657 377.219 523.492 375.512C525.327 373.805 527.716 372.952 530.66 372.952H540.004C543.076 372.952 545.551 373.805 547.428 375.512C549.305 377.219 550.244 379.608 550.244 382.68V382.872H540.644V382.68ZM556.668 363.992H566.268L563.964 368.6H554.364L556.668 363.992ZM554.428 372.184H564.028V403.8H566.012C566.865 403.8 567.292 403.373 567.292 402.52V397.4H570.492V402.392C570.492 403.757 570.065 404.867 569.212 405.72C568.358 406.573 567.249 407 565.884 407H554.428V372.184ZM573.42 394.328C573.42 392.963 573.847 391.853 574.7 391C575.553 390.147 576.663 389.72 578.028 389.72H579.884V382.552C579.884 380.76 580.119 379.267 580.588 378.072C581.1 376.835 581.804 375.853 582.7 375.128C583.596 374.36 584.663 373.805 585.9 373.464C587.18 373.123 588.588 372.952 590.124 372.952H599.468C602.54 372.952 605.015 373.763 606.892 375.384C608.769 376.963 609.708 379.203 609.708 382.104V384.024C609.708 385.859 609.388 387.352 608.748 388.504C608.151 389.656 607.319 390.573 606.252 391.256C605.185 391.939 603.969 392.408 602.604 392.664C601.239 392.92 599.809 393.091 598.316 393.176C596.823 393.219 595.308 393.219 593.772 393.176C592.279 393.091 590.849 393.048 589.484 393.048V397.272C589.484 398.808 589.953 400.045 590.892 400.984C591.831 401.923 593.068 402.392 594.604 402.392H594.988C596.524 402.392 597.761 401.987 598.7 401.176C599.639 400.365 600.108 399.192 600.108 397.656H609.708C609.708 400.728 608.769 403.053 606.892 404.632C605.015 406.211 602.54 407 599.468 407H590.124C588.588 407 587.18 406.765 585.9 406.296C584.663 405.784 583.596 405.08 582.7 404.184C581.804 403.288 581.1 402.221 580.588 400.984C580.119 399.704 579.884 398.296 579.884 396.76V392.92H577.9C577.047 392.92 576.62 393.347 576.62 394.2V399.32H573.42V394.328ZM600.108 384.024V382.104C600.108 380.568 599.639 379.437 598.7 378.712C597.761 377.944 596.524 377.56 594.988 377.56H594.604C593.068 377.56 591.831 377.923 590.892 378.648C589.953 379.373 589.484 380.504 589.484 382.04V389.784C590.849 389.784 592.151 389.741 593.388 389.656C594.668 389.528 595.799 389.272 596.78 388.888C597.804 388.504 598.615 387.928 599.212 387.16C599.809 386.392 600.108 385.347 600.108 384.024ZM633.433 382.68C633.433 381.144 632.963 379.907 632.025 378.968C631.086 378.029 629.849 377.56 628.312 377.56H623.833V407H614.233V372.952H632.793C634.329 372.952 635.715 373.208 636.953 373.72C638.233 374.189 639.321 374.872 640.217 375.768C641.113 376.664 641.795 377.752 642.265 379.032C642.777 380.269 643.033 381.656 643.033 383.192V403.8H645.017C645.87 403.8 646.297 403.373 646.297 402.52V397.4H649.497V402.392C649.497 403.757 649.07 404.867 648.217 405.72C647.363 406.573 646.254 407 644.889 407H633.433V382.68ZM663.278 397.272C663.278 398.808 663.747 400.045 664.686 400.984C665.624 401.923 666.862 402.392 668.398 402.392H670.062V397.4H673.262V407H663.918C660.846 407 658.371 406.061 656.494 404.184C654.616 402.307 653.678 399.832 653.678 396.76V363.992H663.278V397.272ZM665.646 370.392H673.966L671.662 375H663.342L665.646 370.392ZM680.043 363.992H689.643L687.339 368.6H677.739L680.043 363.992ZM677.803 372.184H687.403V403.8H689.387C690.24 403.8 690.667 403.373 690.667 402.52V397.4H693.867V402.392C693.867 403.757 693.44 404.867 692.587 405.72C691.733 406.573 690.624 407 689.259 407H677.803V372.184ZM707.645 382.68V384.344C707.645 385.069 708.114 385.667 709.053 386.136C710.034 386.605 711.25 387.032 712.701 387.416C714.152 387.8 715.73 388.184 717.437 388.568C719.144 388.952 720.744 389.443 722.237 390.04C723.73 390.595 724.989 391.32 726.013 392.216C727.08 393.069 727.677 394.179 727.805 395.544C727.848 395.885 727.869 396.248 727.869 396.632C727.869 396.973 727.869 397.315 727.869 397.656C727.869 400.728 726.93 403.053 725.053 404.632C723.176 406.211 720.701 407 717.629 407H708.285C705.213 407 702.738 406.061 700.861 404.184C698.984 402.307 698.045 399.832 698.045 396.76V395.608H707.645V397.272C707.645 398.808 708.114 400.045 709.053 400.984C709.992 401.923 711.229 402.392 712.765 402.392H713.149C714.685 402.392 715.922 402.029 716.861 401.304C717.8 400.579 718.269 399.448 718.269 397.912V395.864C718.269 395.096 717.778 394.499 716.797 394.072C715.858 393.603 714.664 393.176 713.213 392.792C711.762 392.408 710.184 392.024 708.477 391.64C706.77 391.256 705.17 390.787 703.677 390.232C702.184 389.635 700.925 388.909 699.901 388.056C698.877 387.16 698.301 386.029 698.173 384.664C698.088 384.024 698.045 383.512 698.045 383.128C698.045 382.744 698.045 382.36 698.045 381.976C698.045 378.904 698.984 376.643 700.861 375.192C702.738 373.699 705.213 372.952 708.285 372.952H717.629C719.165 372.952 720.552 373.208 721.789 373.72C723.069 374.189 724.157 374.872 725.053 375.768C725.949 376.664 726.632 377.752 727.101 379.032C727.613 380.269 727.869 381.656 727.869 383.192V384.344H718.269V382.68C718.269 381.144 717.8 379.907 716.861 378.968C715.922 378.029 714.685 377.56 713.149 377.56H712.765C711.016 377.56 709.714 378.008 708.861 378.904C708.05 379.8 707.645 381.059 707.645 382.68ZM742.278 397.272C742.278 398.808 742.747 400.045 743.686 400.984C744.624 401.923 745.862 402.392 747.398 402.392H749.062V397.4H752.262V407H742.918C739.846 407 737.371 406.061 735.494 404.184C733.616 402.307 732.678 399.832 732.678 396.76V363.992H742.278V397.272ZM744.646 370.392H752.966L750.662 375H742.342L744.646 370.392ZM171.84 446.472C171.84 448.008 172.309 449.245 173.248 450.184C174.187 451.123 175.424 451.592 176.96 451.592H177.728V457.608H176.96C175.424 457.608 174.187 458.077 173.248 459.016C172.309 459.955 171.84 461.192 171.84 462.728V467.272C171.84 468.808 172.309 470.045 173.248 470.984C174.187 471.923 175.424 472.392 176.96 472.392H177.344C178.88 472.392 180.117 471.923 181.056 470.984C181.995 470.045 182.464 468.808 182.464 467.272V461.448C182.464 459.912 182.699 458.525 183.168 457.288C183.68 456.008 184.384 454.92 185.28 454.024C186.176 453.128 187.243 452.445 188.48 451.976C189.76 451.464 191.168 451.208 192.704 451.208L199.232 451.144V454.344L197.184 454.408C195.648 454.451 194.411 454.941 193.472 455.88C192.533 456.776 192.064 457.992 192.064 459.528V466.76C192.064 468.296 191.808 469.704 191.296 470.984C190.827 472.221 190.144 473.288 189.248 474.184C188.352 475.08 187.264 475.784 185.984 476.296C184.747 476.765 183.36 477 181.824 477H172.48C169.408 477 166.933 476.061 165.056 474.184C163.179 472.307 162.24 469.832 162.24 466.76V463.24C162.24 461.704 162.304 460.403 162.432 459.336C162.603 458.227 162.923 457.331 163.392 456.648C163.861 455.923 164.544 455.411 165.44 455.112C166.379 454.771 167.616 454.6 169.152 454.6C167.616 454.6 166.379 454.451 165.44 454.152C164.544 453.811 163.861 453.299 163.392 452.616C162.923 451.891 162.603 450.995 162.432 449.928C162.304 448.819 162.24 447.496 162.24 445.96V442.44C162.24 440.904 162.475 439.517 162.944 438.28C163.456 437 164.16 435.912 165.056 435.016C165.952 434.12 167.019 433.437 168.256 432.968C169.536 432.456 170.944 432.2 172.48 432.2H181.824C183.36 432.2 184.747 432.456 185.984 432.968C187.264 433.437 188.352 434.12 189.248 435.016C190.144 435.912 190.827 437 191.296 438.28C191.808 439.517 192.064 440.904 192.064 442.44V446.536H182.464V441.928C182.464 440.392 181.995 439.155 181.056 438.216C180.117 437.277 178.88 436.808 177.344 436.808H176.96C175.424 436.808 174.187 437.277 173.248 438.216C172.309 439.155 171.84 440.392 171.84 441.928V446.472ZM241.564 432.2H251.164V473.8H253.148C254.001 473.8 254.428 473.373 254.428 472.52V467.4H257.628V472.392C257.628 473.757 257.201 474.867 256.348 475.72C255.495 476.573 254.385 477 253.02 477H231.58C230.044 477 228.636 476.765 227.356 476.296C226.119 475.784 225.052 475.08 224.156 474.184C223.26 473.288 222.556 472.221 222.044 470.984C221.575 469.704 221.34 468.296 221.34 466.76V432.2H230.94V467.272C230.94 468.808 231.409 470.045 232.348 470.984C233.287 471.923 234.524 472.392 236.06 472.392H241.564V432.2ZM278.827 463.304V477H268.01C266.645 477 265.536 476.573 264.683 475.72C263.829 474.867 263.403 473.757 263.403 472.392V467.4H266.603V472.52C266.603 473.373 267.029 473.8 267.883 473.8H269.227V463.816C269.227 461.64 269.696 459.741 270.635 458.12C271.616 456.499 272.96 455.304 274.667 454.536C272.96 453.768 271.616 452.595 270.635 451.016C269.696 449.395 269.227 447.496 269.227 445.32V432.2H278.827V445.832C278.827 447.368 279.296 448.605 280.235 449.544C281.173 450.483 282.411 450.952 283.947 450.952H284.331C285.867 450.952 287.104 450.483 288.043 449.544C288.981 448.605 289.451 447.368 289.451 445.832V432.2H300.267C301.632 432.2 302.741 432.627 303.595 433.48C304.448 434.333 304.875 435.443 304.875 436.808V441.8H301.675V436.68C301.675 435.827 301.248 435.4 300.395 435.4H299.051V445.32C299.051 447.496 298.56 449.395 297.579 451.016C296.64 452.637 295.317 453.832 293.611 454.6C295.317 455.368 296.64 456.563 297.579 458.184C298.56 459.763 299.051 461.64 299.051 463.816V477H289.451V463.304C289.451 461.768 288.981 460.531 288.043 459.592C287.104 458.653 285.867 458.184 284.331 458.184H283.947C282.411 458.184 281.173 458.653 280.235 459.592C279.296 460.531 278.827 461.768 278.827 463.304ZM326.608 452.36C326.821 449.544 327.845 447.283 329.68 445.576C331.514 443.869 333.904 443.016 336.848 443.016H346.832V432.2H358.288C359.653 432.2 360.762 432.627 361.616 433.48C362.469 434.333 362.896 435.443 362.896 436.808V441.8H359.696V436.68C359.696 435.827 359.269 435.4 358.416 435.4H356.432V466.824C356.432 470.408 355.493 473.011 353.616 474.632C351.738 476.253 349.264 477.064 346.192 477.064H336.848C333.776 477.064 331.301 476.211 329.424 474.504C327.546 472.755 326.608 470.429 326.608 467.528V452.36ZM346.832 452.744C346.832 451.208 346.362 449.971 345.424 449.032C344.485 448.093 343.248 447.624 341.712 447.624H341.328C339.792 447.624 338.554 448.093 337.616 449.032C336.677 449.971 336.208 451.208 336.208 452.744V467.464C336.208 469 336.677 470.216 337.616 471.112C338.554 472.008 339.792 472.456 341.328 472.456H341.712C343.248 472.456 344.485 471.987 345.424 471.048C346.362 470.109 346.832 468.872 346.832 467.336V452.744ZM363.233 464.328C363.233 462.963 363.659 461.853 364.513 461C365.366 460.147 366.475 459.72 367.841 459.72H369.697V452.552C369.697 450.76 369.931 449.267 370.401 448.072C370.913 446.835 371.617 445.853 372.513 445.128C373.409 444.36 374.475 443.805 375.713 443.464C376.993 443.123 378.401 442.952 379.937 442.952H389.281C392.353 442.952 394.827 443.763 396.705 445.384C398.582 446.963 399.521 449.203 399.521 452.104V454.024C399.521 455.859 399.201 457.352 398.561 458.504C397.963 459.656 397.131 460.573 396.065 461.256C394.998 461.939 393.782 462.408 392.417 462.664C391.051 462.92 389.622 463.091 388.129 463.176C386.635 463.219 385.121 463.219 383.585 463.176C382.091 463.091 380.662 463.048 379.297 463.048V467.272C379.297 468.808 379.766 470.045 380.705 470.984C381.643 471.923 382.881 472.392 384.417 472.392H384.801C386.337 472.392 387.574 471.987 388.513 471.176C389.451 470.365 389.921 469.192 389.921 467.656H399.521C399.521 470.728 398.582 473.053 396.705 474.632C394.827 476.211 392.353 477 389.281 477H379.937C378.401 477 376.993 476.765 375.713 476.296C374.475 475.784 373.409 475.08 372.513 474.184C371.617 473.288 370.913 472.221 370.401 470.984C369.931 469.704 369.697 468.296 369.697 466.76V462.92H367.713C366.859 462.92 366.433 463.347 366.433 464.2V469.32H363.233V464.328ZM389.921 454.024V452.104C389.921 450.568 389.451 449.437 388.513 448.712C387.574 447.944 386.337 447.56 384.801 447.56H384.417C382.881 447.56 381.643 447.923 380.705 448.648C379.766 449.373 379.297 450.504 379.297 452.04V459.784C380.662 459.784 381.963 459.741 383.201 459.656C384.481 459.528 385.611 459.272 386.593 458.888C387.617 458.504 388.427 457.928 389.025 457.16C389.622 456.392 389.921 455.347 389.921 454.024ZM413.645 452.68V454.344C413.645 455.069 414.114 455.667 415.053 456.136C416.034 456.605 417.25 457.032 418.701 457.416C420.152 457.8 421.73 458.184 423.437 458.568C425.144 458.952 426.744 459.443 428.237 460.04C429.73 460.595 430.989 461.32 432.013 462.216C433.08 463.069 433.677 464.179 433.805 465.544C433.848 465.885 433.869 466.248 433.869 466.632C433.869 466.973 433.869 467.315 433.869 467.656C433.869 470.728 432.93 473.053 431.053 474.632C429.176 476.211 426.701 477 423.629 477H414.285C411.213 477 408.738 476.061 406.861 474.184C404.984 472.307 404.045 469.832 404.045 466.76V465.608H413.645V467.272C413.645 468.808 414.114 470.045 415.053 470.984C415.992 471.923 417.229 472.392 418.765 472.392H419.149C420.685 472.392 421.922 472.029 422.861 471.304C423.8 470.579 424.269 469.448 424.269 467.912V465.864C424.269 465.096 423.778 464.499 422.797 464.072C421.858 463.603 420.664 463.176 419.213 462.792C417.762 462.408 416.184 462.024 414.477 461.64C412.77 461.256 411.17 460.787 409.677 460.232C408.184 459.635 406.925 458.909 405.901 458.056C404.877 457.16 404.301 456.029 404.173 454.664C404.088 454.024 404.045 453.512 404.045 453.128C404.045 452.744 404.045 452.36 404.045 451.976C404.045 448.904 404.984 446.643 406.861 445.192C408.738 443.699 411.213 442.952 414.285 442.952H423.629C425.165 442.952 426.552 443.208 427.789 443.72C429.069 444.189 430.157 444.872 431.053 445.768C431.949 446.664 432.632 447.752 433.101 449.032C433.613 450.269 433.869 451.656 433.869 453.192V454.344H424.269V452.68C424.269 451.144 423.8 449.907 422.861 448.968C421.922 448.029 420.685 447.56 419.149 447.56H418.765C417.016 447.56 415.714 448.008 414.861 448.904C414.05 449.8 413.645 451.059 413.645 452.68ZM440.293 433.992H449.893L447.589 438.6H437.989L440.293 433.992ZM438.053 442.184H447.653V473.8H449.637C450.49 473.8 450.917 473.373 450.917 472.52V467.4H454.117V472.392C454.117 473.757 453.69 474.867 452.837 475.72C451.983 476.573 450.874 477 449.509 477H438.053V442.184ZM460.471 452.296C460.684 449.48 461.708 447.219 463.543 445.512C465.378 443.805 467.767 442.952 470.711 442.952H480.055C483.127 442.952 485.602 443.891 487.479 445.768C489.356 447.645 490.295 450.12 490.295 453.192V482.76C490.295 484.296 490.039 485.683 489.527 486.92C489.058 488.2 488.375 489.288 487.479 490.184C486.583 491.08 485.495 491.763 484.215 492.232C482.978 492.744 481.591 493 480.055 493H460.855C459.319 493 457.911 492.744 456.631 492.232C455.394 491.763 454.327 491.08 453.431 490.184C452.535 489.288 451.852 488.2 451.383 486.92C450.871 485.683 450.615 484.296 450.615 482.76V480.136H460.215V483.272C460.215 484.808 460.684 486.045 461.623 486.984C462.562 487.923 463.799 488.392 465.335 488.392H475.575C477.111 488.392 478.348 487.923 479.287 486.984C480.226 486.045 480.695 484.808 480.695 483.272V477H480.055H470.711C469.175 477 467.767 476.765 466.487 476.296C465.25 475.827 464.183 475.165 463.287 474.312C462.391 473.459 461.687 472.435 461.175 471.24C460.706 470.045 460.471 468.723 460.471 467.272V452.296ZM480.695 452.68C480.695 451.144 480.226 449.907 479.287 448.968C478.348 448.029 477.111 447.56 475.575 447.56H475.191C473.655 447.56 472.418 448.029 471.479 448.968C470.54 449.907 470.071 451.144 470.071 452.68V467.208C470.071 468.744 470.54 470.003 471.479 470.984C472.418 471.923 473.655 472.392 475.191 472.392H475.575C477.111 472.392 478.348 471.923 479.287 470.984C480.226 470.045 480.695 468.808 480.695 467.272V452.68ZM513.308 452.68C513.308 451.144 512.838 449.907 511.9 448.968C510.961 448.029 509.724 447.56 508.188 447.56H503.708V477H494.108V442.952H512.668C514.204 442.952 515.59 443.208 516.828 443.72C518.108 444.189 519.196 444.872 520.092 445.768C520.988 446.664 521.67 447.752 522.14 449.032C522.652 450.269 522.908 451.656 522.908 453.192V473.8H524.892C525.745 473.8 526.172 473.373 526.172 472.52V467.4H529.372V472.392C529.372 473.757 528.945 474.867 528.092 475.72C527.238 476.573 526.129 477 524.764 477H513.308V452.68ZM533.233 464.328C533.233 462.963 533.659 461.853 534.513 461C535.366 460.147 536.475 459.72 537.841 459.72H539.697V452.552C539.697 450.76 539.931 449.267 540.401 448.072C540.913 446.835 541.617 445.853 542.513 445.128C543.409 444.36 544.475 443.805 545.713 443.464C546.993 443.123 548.401 442.952 549.937 442.952H559.281C562.353 442.952 564.827 443.763 566.705 445.384C568.582 446.963 569.521 449.203 569.521 452.104V454.024C569.521 455.859 569.201 457.352 568.561 458.504C567.963 459.656 567.131 460.573 566.065 461.256C564.998 461.939 563.782 462.408 562.417 462.664C561.051 462.92 559.622 463.091 558.129 463.176C556.635 463.219 555.121 463.219 553.585 463.176C552.091 463.091 550.662 463.048 549.297 463.048V467.272C549.297 468.808 549.766 470.045 550.705 470.984C551.643 471.923 552.881 472.392 554.417 472.392H554.801C556.337 472.392 557.574 471.987 558.513 471.176C559.451 470.365 559.921 469.192 559.921 467.656H569.521C569.521 470.728 568.582 473.053 566.705 474.632C564.827 476.211 562.353 477 559.281 477H549.937C548.401 477 546.993 476.765 545.713 476.296C544.475 475.784 543.409 475.08 542.513 474.184C541.617 473.288 540.913 472.221 540.401 470.984C539.931 469.704 539.697 468.296 539.697 466.76V462.92H537.713C536.859 462.92 536.433 463.347 536.433 464.2V469.32H533.233V464.328ZM559.921 454.024V452.104C559.921 450.568 559.451 449.437 558.513 448.712C557.574 447.944 556.337 447.56 554.801 447.56H554.417C552.881 447.56 551.643 447.923 550.705 448.648C549.766 449.373 549.297 450.504 549.297 452.04V459.784C550.662 459.784 551.963 459.741 553.201 459.656C554.481 459.528 555.611 459.272 556.593 458.888C557.617 458.504 558.427 457.928 559.025 457.16C559.622 456.392 559.921 455.347 559.921 454.024ZM580.509 442.952H590.109V477H578.653C577.288 477 576.178 476.573 575.325 475.72C574.472 474.867 574.045 473.757 574.045 472.392V467.4H577.245V472.52C577.245 473.373 577.672 473.8 578.525 473.8H580.509V442.952ZM598.173 452.68C598.173 451.144 597.704 449.907 596.765 448.968C595.826 448.029 594.589 447.56 593.053 447.56H590.109V442.952H597.533C600.605 442.952 603.08 443.891 604.957 445.768C606.834 447.645 607.773 450.12 607.773 453.192V455.816H598.173V452.68Z" fill="black"/>
</svg>
