<svg width="238" height="136" viewBox="0 0 238 136" fill="none" xmlns="http://www.w3.org/2000/svg">
<path d="M237.625 74.8692C237.625 119.006 137.415 136 66.6208 136C-4.17333 136 0.0479216 112.276 0.0479216 68.1394C0.0479216 24.0027 105.087 0 175.882 0C246.676 0 237.625 30.7325 237.625 74.8692Z" fill="url(#paint0_linear_627_332)"/>
<path d="M71.32 59.68C71.32 58.144 70.8507 56.9067 69.912 55.968C68.9733 55.0293 67.736 54.56 66.2 54.56H60.312C61.2507 56.1813 61.72 58.0587 61.72 60.192V84H52.12V59.68C52.12 58.144 51.6507 56.9067 50.712 55.968C49.7733 55.0293 48.536 54.56 47 54.56H42.52V84H32.92V49.952H70.68C73.752 49.952 76.2267 50.8907 78.104 52.768C79.9813 54.6453 80.92 57.12 80.92 60.192V80.8H82.904C83.7573 80.8 84.184 80.3733 84.184 79.52V74.4H87.384V79.392C87.384 80.7573 86.9573 81.8667 86.104 82.72C85.2507 83.5733 84.1413 84 82.776 84H71.32V59.68ZM93.7925 40.992H103.393L101.089 45.6H91.4885L93.7925 40.992ZM91.5525 49.184H101.153V80.8H103.137C103.99 80.8 104.417 80.3733 104.417 79.52V74.4H107.617V79.392C107.617 80.7573 107.19 81.8667 106.337 82.72C105.483 83.5733 104.374 84 103.009 84H91.5525V49.184ZM118.259 49.952H127.859V84H116.403C115.038 84 113.928 83.5733 113.075 82.72C112.222 81.8667 111.795 80.7573 111.795 79.392V74.4H114.995V79.52C114.995 80.3733 115.422 80.8 116.275 80.8H118.259V49.952ZM135.923 59.68C135.923 58.144 135.454 56.9067 134.515 55.968C133.576 55.0293 132.339 54.56 130.803 54.56H127.859V49.952H135.283C138.355 49.952 140.83 50.8907 142.707 52.768C144.584 54.6453 145.523 57.12 145.523 60.192V62.816H135.923V59.68ZM169.269 59.68C169.269 58.144 168.8 56.9067 167.861 55.968C166.922 55.0293 165.685 54.56 164.149 54.56H163.765C162.229 54.56 160.992 54.9653 160.053 55.776C159.114 56.5867 158.645 57.76 158.645 59.296H149.045C149.045 56.224 149.984 53.8987 151.861 52.32C153.738 50.7413 156.213 49.952 159.285 49.952H168.629C170.165 49.952 171.552 50.208 172.789 50.72C174.069 51.1893 175.157 51.872 176.053 52.768C176.949 53.664 177.632 54.752 178.101 56.032C178.613 57.2693 178.869 58.656 178.869 60.192V64.032H180.661C182.026 64.032 183.136 64.4587 183.989 65.312C184.842 66.1653 185.269 67.2747 185.269 68.64V73.504H182.069V68.512C182.069 67.6587 181.642 67.232 180.789 67.232H178.869V74.4C178.869 76.192 178.613 77.7067 178.101 78.944C177.632 80.1387 176.949 81.12 176.053 81.888C175.157 82.6133 174.069 83.1467 172.789 83.488C171.552 83.8293 170.165 84 168.629 84H159.285C156.213 84 153.738 83.2107 151.861 81.632C149.984 80.0107 149.045 77.7493 149.045 74.848V72.928C149.045 71.0933 149.344 69.6 149.941 68.448C150.581 67.296 151.434 66.3787 152.501 65.696C153.568 65.0133 154.784 64.544 156.149 64.288C157.514 64.032 158.944 63.8827 160.437 63.84C161.93 63.7547 163.445 63.7547 164.981 63.84C166.517 63.8827 167.946 63.904 169.269 63.904V59.68ZM158.645 72.928V74.848C158.645 76.384 159.114 77.536 160.053 78.304C160.992 79.0293 162.229 79.392 163.765 79.392H164.149C165.685 79.392 166.922 79.0293 167.861 78.304C168.8 77.5787 169.269 76.448 169.269 74.912V67.168C167.946 67.168 166.645 67.232 165.365 67.36C164.085 67.4453 162.933 67.68 161.909 68.064C160.928 68.448 160.138 69.024 159.541 69.792C158.944 70.56 158.645 71.6053 158.645 72.928ZM191.668 40.992H201.268L198.964 45.6H189.364L191.668 40.992ZM189.428 49.184H199.028V80.8H201.012C201.865 80.8 202.292 80.3733 202.292 79.52V74.4H205.492V79.392C205.492 80.7573 205.065 81.8667 204.212 82.72C203.358 83.5733 202.249 84 200.884 84H189.428V49.184Z" fill="#FFB800"/>
<defs>
<linearGradient id="paint0_linear_627_332" x1="150.378" y1="-21.0307" x2="150.378" y2="138.802" gradientUnits="userSpaceOnUse">
<stop stop-color="#429FDD"/>
<stop offset="0.6125" stop-color="#9C429B" stop-opacity="0.652997"/>
<stop offset="0.9999" stop-color="#657BC3" stop-opacity="0.865448"/>
<stop offset="1" stop-color="#9C429B" stop-opacity="0"/>
</linearGradient>
</defs>
</svg>
