<svg width="932" height="808" viewBox="0 0 932 808" fill="none" xmlns="http://www.w3.org/2000/svg">
<path d="M732 342.081C732 506.938 530.433 597 349.631 597C168.83 597 0 456.193 0 291.336C0 126.479 168.83 0 349.631 0C530.433 0 732 177.224 732 342.081Z" fill="#800080" fill-opacity="0.7"/>
<path d="M932 565.415C932 708.552 813.235 808 662.003 808C510.77 808 323 708.552 323 565.415C323 422.278 535.962 257 687.195 257C838.428 257 932 422.278 932 565.415Z" fill="#0085DF" fill-opacity="0.7"/>
<path d="M191.5 400.188H199.312C199.062 403.167 198.229 405.823 196.812 408.156C195.396 410.469 193.406 412.292 190.844 413.625C188.281 414.958 185.167 415.625 181.5 415.625C178.688 415.625 176.156 415.125 173.906 414.125C171.656 413.104 169.729 411.667 168.125 409.812C166.521 407.938 165.292 405.677 164.438 403.031C163.604 400.385 163.188 397.427 163.188 394.156V390.375C163.188 387.104 163.615 384.146 164.469 381.5C165.344 378.854 166.594 376.594 168.219 374.719C169.844 372.823 171.792 371.375 174.062 370.375C176.354 369.375 178.927 368.875 181.781 368.875C185.406 368.875 188.469 369.542 190.969 370.875C193.469 372.208 195.406 374.052 196.781 376.406C198.177 378.76 199.031 381.458 199.344 384.5H191.531C191.323 382.542 190.865 380.865 190.156 379.469C189.469 378.073 188.448 377.01 187.094 376.281C185.74 375.531 183.969 375.156 181.781 375.156C179.99 375.156 178.427 375.49 177.094 376.156C175.76 376.823 174.646 377.802 173.75 379.094C172.854 380.385 172.177 381.979 171.719 383.875C171.281 385.75 171.062 387.896 171.062 390.312V394.156C171.062 396.448 171.26 398.531 171.656 400.406C172.073 402.26 172.698 403.854 173.531 405.188C174.385 406.521 175.469 407.552 176.781 408.281C178.094 409.01 179.667 409.375 181.5 409.375C183.729 409.375 185.531 409.021 186.906 408.312C188.302 407.604 189.354 406.573 190.062 405.219C190.792 403.844 191.271 402.167 191.5 400.188ZM204.25 398.469V397.75C204.25 395.312 204.604 393.052 205.312 390.969C206.021 388.865 207.042 387.042 208.375 385.5C209.729 383.938 211.375 382.729 213.312 381.875C215.271 381 217.479 380.562 219.938 380.562C222.417 380.562 224.625 381 226.562 381.875C228.521 382.729 230.177 383.938 231.531 385.5C232.885 387.042 233.917 388.865 234.625 390.969C235.333 393.052 235.688 395.312 235.688 397.75V398.469C235.688 400.906 235.333 403.167 234.625 405.25C233.917 407.333 232.885 409.156 231.531 410.719C230.177 412.26 228.531 413.469 226.594 414.344C224.656 415.198 222.458 415.625 220 415.625C217.521 415.625 215.302 415.198 213.344 414.344C211.406 413.469 209.76 412.26 208.406 410.719C207.052 409.156 206.021 407.333 205.312 405.25C204.604 403.167 204.25 400.906 204.25 398.469ZM211.781 397.75V398.469C211.781 399.99 211.938 401.427 212.25 402.781C212.562 404.135 213.052 405.323 213.719 406.344C214.385 407.365 215.24 408.167 216.281 408.75C217.323 409.333 218.562 409.625 220 409.625C221.396 409.625 222.604 409.333 223.625 408.75C224.667 408.167 225.521 407.365 226.188 406.344C226.854 405.323 227.344 404.135 227.656 402.781C227.99 401.427 228.156 399.99 228.156 398.469V397.75C228.156 396.25 227.99 394.833 227.656 393.5C227.344 392.146 226.844 390.948 226.156 389.906C225.49 388.865 224.635 388.052 223.594 387.469C222.573 386.865 221.354 386.562 219.938 386.562C218.521 386.562 217.292 386.865 216.25 387.469C215.229 388.052 214.385 388.865 213.719 389.906C213.052 390.948 212.562 392.146 212.25 393.5C211.938 394.833 211.781 396.25 211.781 397.75ZM249.531 388.062V415H242V381.188H249.094L249.531 388.062ZM248.312 396.844L245.75 396.812C245.75 394.479 246.042 392.323 246.625 390.344C247.208 388.365 248.062 386.646 249.188 385.188C250.312 383.708 251.708 382.573 253.375 381.781C255.062 380.969 257.01 380.562 259.219 380.562C260.76 380.562 262.167 380.792 263.438 381.25C264.729 381.688 265.844 382.385 266.781 383.344C267.74 384.302 268.469 385.531 268.969 387.031C269.49 388.531 269.75 390.344 269.75 392.469V415H262.219V393.125C262.219 391.479 261.969 390.188 261.469 389.25C260.99 388.312 260.292 387.646 259.375 387.25C258.479 386.833 257.406 386.625 256.156 386.625C254.74 386.625 253.531 386.896 252.531 387.438C251.552 387.979 250.75 388.719 250.125 389.656C249.5 390.594 249.042 391.677 248.75 392.906C248.458 394.135 248.312 395.448 248.312 396.844ZM269.281 394.844L265.75 395.625C265.75 393.583 266.031 391.656 266.594 389.844C267.177 388.01 268.021 386.406 269.125 385.031C270.25 383.635 271.635 382.542 273.281 381.75C274.927 380.958 276.812 380.562 278.938 380.562C280.667 380.562 282.208 380.802 283.562 381.281C284.938 381.74 286.104 382.469 287.062 383.469C288.021 384.469 288.75 385.771 289.25 387.375C289.75 388.958 290 390.875 290 393.125V415H282.438V393.094C282.438 391.385 282.188 390.062 281.688 389.125C281.208 388.188 280.521 387.542 279.625 387.188C278.729 386.812 277.656 386.625 276.406 386.625C275.24 386.625 274.208 386.844 273.312 387.281C272.438 387.698 271.698 388.292 271.094 389.062C270.49 389.812 270.031 390.677 269.719 391.656C269.427 392.635 269.281 393.698 269.281 394.844ZM305.312 387.688V428H297.781V381.188H304.719L305.312 387.688ZM327.344 397.781V398.438C327.344 400.896 327.052 403.177 326.469 405.281C325.906 407.365 325.062 409.188 323.938 410.75C322.833 412.292 321.469 413.49 319.844 414.344C318.219 415.198 316.344 415.625 314.219 415.625C312.115 415.625 310.271 415.24 308.688 414.469C307.125 413.677 305.802 412.562 304.719 411.125C303.635 409.688 302.76 408 302.094 406.062C301.448 404.104 300.99 401.958 300.719 399.625V397.094C300.99 394.615 301.448 392.365 302.094 390.344C302.76 388.323 303.635 386.583 304.719 385.125C305.802 383.667 307.125 382.542 308.688 381.75C310.25 380.958 312.073 380.562 314.156 380.562C316.281 380.562 318.167 380.979 319.812 381.812C321.458 382.625 322.844 383.792 323.969 385.312C325.094 386.812 325.938 388.625 326.5 390.75C327.062 392.854 327.344 395.198 327.344 397.781ZM319.812 398.438V397.781C319.812 396.219 319.667 394.771 319.375 393.438C319.083 392.083 318.625 390.896 318 389.875C317.375 388.854 316.573 388.062 315.594 387.5C314.635 386.917 313.479 386.625 312.125 386.625C310.792 386.625 309.646 386.854 308.688 387.312C307.729 387.75 306.927 388.365 306.281 389.156C305.635 389.948 305.135 390.875 304.781 391.938C304.427 392.979 304.177 394.115 304.031 395.344V401.406C304.281 402.906 304.708 404.281 305.312 405.531C305.917 406.781 306.771 407.781 307.875 408.531C309 409.26 310.438 409.625 312.188 409.625C313.542 409.625 314.698 409.333 315.656 408.75C316.615 408.167 317.396 407.365 318 406.344C318.625 405.302 319.083 404.104 319.375 402.75C319.667 401.396 319.812 399.958 319.812 398.438ZM354.094 407.031V381.188H361.656V415H354.531L354.094 407.031ZM355.156 400L357.688 399.938C357.688 402.208 357.438 404.302 356.938 406.219C356.438 408.115 355.667 409.771 354.625 411.188C353.583 412.583 352.25 413.677 350.625 414.469C349 415.24 347.052 415.625 344.781 415.625C343.135 415.625 341.625 415.385 340.25 414.906C338.875 414.427 337.688 413.688 336.688 412.688C335.708 411.688 334.948 410.385 334.406 408.781C333.865 407.177 333.594 405.26 333.594 403.031V381.188H341.125V403.094C341.125 404.323 341.271 405.354 341.562 406.188C341.854 407 342.25 407.656 342.75 408.156C343.25 408.656 343.833 409.01 344.5 409.219C345.167 409.427 345.875 409.531 346.625 409.531C348.771 409.531 350.458 409.115 351.688 408.281C352.938 407.427 353.823 406.281 354.344 404.844C354.885 403.406 355.156 401.792 355.156 400ZM384.875 381.188V386.688H365.812V381.188H384.875ZM371.312 372.906H378.844V405.656C378.844 406.698 378.99 407.5 379.281 408.062C379.594 408.604 380.021 408.969 380.562 409.156C381.104 409.344 381.74 409.438 382.469 409.438C382.99 409.438 383.49 409.406 383.969 409.344C384.448 409.281 384.833 409.219 385.125 409.156L385.156 414.906C384.531 415.094 383.802 415.26 382.969 415.406C382.156 415.552 381.219 415.625 380.156 415.625C378.427 415.625 376.896 415.323 375.562 414.719C374.229 414.094 373.188 413.083 372.438 411.688C371.688 410.292 371.312 408.438 371.312 406.125V372.906ZM405.594 415.625C403.094 415.625 400.833 415.219 398.812 414.406C396.812 413.573 395.104 412.417 393.688 410.938C392.292 409.458 391.219 407.719 390.469 405.719C389.719 403.719 389.344 401.562 389.344 399.25V398C389.344 395.354 389.729 392.958 390.5 390.812C391.271 388.667 392.344 386.833 393.719 385.312C395.094 383.771 396.719 382.594 398.594 381.781C400.469 380.969 402.5 380.562 404.688 380.562C407.104 380.562 409.219 380.969 411.031 381.781C412.844 382.594 414.344 383.74 415.531 385.219C416.74 386.677 417.635 388.417 418.219 390.438C418.823 392.458 419.125 394.688 419.125 397.125V400.344H393V394.938H411.688V394.344C411.646 392.99 411.375 391.719 410.875 390.531C410.396 389.344 409.656 388.385 408.656 387.656C407.656 386.927 406.323 386.562 404.656 386.562C403.406 386.562 402.292 386.833 401.312 387.375C400.354 387.896 399.552 388.656 398.906 389.656C398.26 390.656 397.76 391.865 397.406 393.281C397.073 394.677 396.906 396.25 396.906 398V399.25C396.906 400.729 397.104 402.104 397.5 403.375C397.917 404.625 398.521 405.719 399.312 406.656C400.104 407.594 401.062 408.333 402.188 408.875C403.312 409.396 404.594 409.656 406.031 409.656C407.844 409.656 409.458 409.292 410.875 408.562C412.292 407.833 413.521 406.802 414.562 405.469L418.531 409.312C417.802 410.375 416.854 411.396 415.688 412.375C414.521 413.333 413.094 414.115 411.406 414.719C409.74 415.323 407.802 415.625 405.594 415.625ZM432.562 387.625V415H425.031V381.188H432.219L432.562 387.625ZM442.906 380.969L442.844 387.969C442.385 387.885 441.885 387.823 441.344 387.781C440.823 387.74 440.302 387.719 439.781 387.719C438.49 387.719 437.354 387.906 436.375 388.281C435.396 388.635 434.573 389.156 433.906 389.844C433.26 390.51 432.76 391.323 432.406 392.281C432.052 393.24 431.844 394.312 431.781 395.5L430.062 395.625C430.062 393.5 430.271 391.531 430.688 389.719C431.104 387.906 431.729 386.312 432.562 384.938C433.417 383.562 434.479 382.49 435.75 381.719C437.042 380.948 438.531 380.562 440.219 380.562C440.677 380.562 441.167 380.604 441.688 380.688C442.229 380.771 442.635 380.865 442.906 380.969ZM488.25 403.281C488.25 402.344 488.104 401.51 487.812 400.781C487.542 400.052 487.052 399.385 486.344 398.781C485.635 398.177 484.635 397.594 483.344 397.031C482.073 396.448 480.448 395.854 478.469 395.25C476.302 394.583 474.302 393.844 472.469 393.031C470.656 392.198 469.073 391.24 467.719 390.156C466.365 389.052 465.312 387.792 464.562 386.375C463.812 384.938 463.438 383.281 463.438 381.406C463.438 379.552 463.823 377.865 464.594 376.344C465.385 374.823 466.5 373.51 467.938 372.406C469.396 371.281 471.115 370.417 473.094 369.812C475.073 369.188 477.26 368.875 479.656 368.875C483.031 368.875 485.938 369.5 488.375 370.75C490.833 372 492.719 373.677 494.031 375.781C495.365 377.885 496.031 380.208 496.031 382.75H488.25C488.25 381.25 487.927 379.927 487.281 378.781C486.656 377.615 485.698 376.698 484.406 376.031C483.135 375.365 481.521 375.031 479.562 375.031C477.708 375.031 476.167 375.312 474.938 375.875C473.708 376.438 472.792 377.198 472.188 378.156C471.583 379.115 471.281 380.198 471.281 381.406C471.281 382.26 471.479 383.042 471.875 383.75C472.271 384.438 472.875 385.083 473.688 385.688C474.5 386.271 475.521 386.823 476.75 387.344C477.979 387.865 479.427 388.365 481.094 388.844C483.615 389.594 485.812 390.427 487.688 391.344C489.562 392.24 491.125 393.26 492.375 394.406C493.625 395.552 494.562 396.854 495.188 398.312C495.812 399.75 496.125 401.385 496.125 403.219C496.125 405.135 495.74 406.865 494.969 408.406C494.198 409.927 493.094 411.229 491.656 412.312C490.24 413.375 488.531 414.198 486.531 414.781C484.552 415.344 482.344 415.625 479.906 415.625C477.719 415.625 475.562 415.333 473.438 414.75C471.333 414.167 469.417 413.281 467.688 412.094C465.958 410.885 464.583 409.385 463.562 407.594C462.542 405.781 462.031 403.667 462.031 401.25H469.875C469.875 402.729 470.125 403.99 470.625 405.031C471.146 406.073 471.865 406.927 472.781 407.594C473.698 408.24 474.76 408.719 475.969 409.031C477.198 409.344 478.51 409.5 479.906 409.5C481.74 409.5 483.271 409.24 484.5 408.719C485.75 408.198 486.688 407.469 487.312 406.531C487.938 405.594 488.25 404.51 488.25 403.281ZM516.125 409.625C517.354 409.625 518.458 409.385 519.438 408.906C520.438 408.406 521.24 407.719 521.844 406.844C522.469 405.969 522.812 404.958 522.875 403.812H529.969C529.927 406 529.281 407.99 528.031 409.781C526.781 411.573 525.125 413 523.062 414.062C521 415.104 518.719 415.625 516.219 415.625C513.635 415.625 511.385 415.188 509.469 414.312C507.552 413.417 505.958 412.188 504.688 410.625C503.417 409.062 502.458 407.26 501.812 405.219C501.188 403.177 500.875 400.99 500.875 398.656V397.562C500.875 395.229 501.188 393.042 501.812 391C502.458 388.938 503.417 387.125 504.688 385.562C505.958 384 507.552 382.781 509.469 381.906C511.385 381.01 513.625 380.562 516.188 380.562C518.896 380.562 521.271 381.104 523.312 382.188C525.354 383.25 526.958 384.74 528.125 386.656C529.312 388.552 529.927 390.76 529.969 393.281H522.875C522.812 392.031 522.5 390.906 521.938 389.906C521.396 388.885 520.625 388.073 519.625 387.469C518.646 386.865 517.469 386.562 516.094 386.562C514.573 386.562 513.312 386.875 512.312 387.5C511.312 388.104 510.531 388.938 509.969 390C509.406 391.042 509 392.219 508.75 393.531C508.521 394.823 508.406 396.167 508.406 397.562V398.656C508.406 400.052 508.521 401.406 508.75 402.719C508.979 404.031 509.375 405.208 509.938 406.25C510.521 407.271 511.312 408.094 512.312 408.719C513.312 409.323 514.583 409.625 516.125 409.625ZM543.812 381.188V415H536.25V381.188H543.812ZM535.75 372.312C535.75 371.167 536.125 370.219 536.875 369.469C537.646 368.698 538.708 368.312 540.062 368.312C541.396 368.312 542.448 368.698 543.219 369.469C543.99 370.219 544.375 371.167 544.375 372.312C544.375 373.438 543.99 374.375 543.219 375.125C542.448 375.875 541.396 376.25 540.062 376.25C538.708 376.25 537.646 375.875 536.875 375.125C536.125 374.375 535.75 373.438 535.75 372.312ZM566.969 415.625C564.469 415.625 562.208 415.219 560.188 414.406C558.188 413.573 556.479 412.417 555.062 410.938C553.667 409.458 552.594 407.719 551.844 405.719C551.094 403.719 550.719 401.562 550.719 399.25V398C550.719 395.354 551.104 392.958 551.875 390.812C552.646 388.667 553.719 386.833 555.094 385.312C556.469 383.771 558.094 382.594 559.969 381.781C561.844 380.969 563.875 380.562 566.062 380.562C568.479 380.562 570.594 380.969 572.406 381.781C574.219 382.594 575.719 383.74 576.906 385.219C578.115 386.677 579.01 388.417 579.594 390.438C580.198 392.458 580.5 394.688 580.5 397.125V400.344H554.375V394.938H573.062V394.344C573.021 392.99 572.75 391.719 572.25 390.531C571.771 389.344 571.031 388.385 570.031 387.656C569.031 386.927 567.698 386.562 566.031 386.562C564.781 386.562 563.667 386.833 562.688 387.375C561.729 387.896 560.927 388.656 560.281 389.656C559.635 390.656 559.135 391.865 558.781 393.281C558.448 394.677 558.281 396.25 558.281 398V399.25C558.281 400.729 558.479 402.104 558.875 403.375C559.292 404.625 559.896 405.719 560.688 406.656C561.479 407.594 562.438 408.333 563.562 408.875C564.688 409.396 565.969 409.656 567.406 409.656C569.219 409.656 570.833 409.292 572.25 408.562C573.667 407.833 574.896 406.802 575.938 405.469L579.906 409.312C579.177 410.375 578.229 411.396 577.062 412.375C575.896 413.333 574.469 414.115 572.781 414.719C571.115 415.323 569.177 415.625 566.969 415.625ZM593.844 388.406V415H586.312V381.188H593.406L593.844 388.406ZM592.5 396.844L590.062 396.812C590.083 394.417 590.417 392.219 591.062 390.219C591.729 388.219 592.646 386.5 593.812 385.062C595 383.625 596.417 382.521 598.062 381.75C599.708 380.958 601.542 380.562 603.562 380.562C605.188 380.562 606.656 380.792 607.969 381.25C609.302 381.688 610.438 382.406 611.375 383.406C612.333 384.406 613.062 385.708 613.562 387.312C614.062 388.896 614.312 390.844 614.312 393.156V415H606.75V393.125C606.75 391.5 606.51 390.219 606.031 389.281C605.573 388.323 604.896 387.646 604 387.25C603.125 386.833 602.031 386.625 600.719 386.625C599.427 386.625 598.271 386.896 597.25 387.438C596.229 387.979 595.365 388.719 594.656 389.656C593.969 390.594 593.438 391.677 593.062 392.906C592.688 394.135 592.5 395.448 592.5 396.844ZM637.5 381.188V386.688H618.438V381.188H637.5ZM623.938 372.906H631.469V405.656C631.469 406.698 631.615 407.5 631.906 408.062C632.219 408.604 632.646 408.969 633.188 409.156C633.729 409.344 634.365 409.438 635.094 409.438C635.615 409.438 636.115 409.406 636.594 409.344C637.073 409.281 637.458 409.219 637.75 409.156L637.781 414.906C637.156 415.094 636.427 415.26 635.594 415.406C634.781 415.552 633.844 415.625 632.781 415.625C631.052 415.625 629.521 415.323 628.188 414.719C626.854 414.094 625.812 413.083 625.062 411.688C624.312 410.292 623.938 408.438 623.938 406.125V372.906ZM651.375 381.188V415H643.812V381.188H651.375ZM643.312 372.312C643.312 371.167 643.688 370.219 644.438 369.469C645.208 368.698 646.271 368.312 647.625 368.312C648.958 368.312 650.01 368.698 650.781 369.469C651.552 370.219 651.938 371.167 651.938 372.312C651.938 373.438 651.552 374.375 650.781 375.125C650.01 375.875 648.958 376.25 647.625 376.25C646.271 376.25 645.208 375.875 644.438 375.125C643.688 374.375 643.312 373.438 643.312 372.312ZM678.594 405.844C678.594 405.094 678.406 404.417 678.031 403.812C677.656 403.188 676.938 402.625 675.875 402.125C674.833 401.625 673.292 401.167 671.25 400.75C669.458 400.354 667.812 399.885 666.312 399.344C664.833 398.781 663.562 398.104 662.5 397.312C661.438 396.521 660.615 395.583 660.031 394.5C659.448 393.417 659.156 392.167 659.156 390.75C659.156 389.375 659.458 388.073 660.062 386.844C660.667 385.615 661.531 384.531 662.656 383.594C663.781 382.656 665.146 381.917 666.75 381.375C668.375 380.833 670.188 380.562 672.188 380.562C675.021 380.562 677.448 381.042 679.469 382C681.51 382.938 683.073 384.219 684.156 385.844C685.24 387.448 685.781 389.26 685.781 391.281H678.25C678.25 390.385 678.021 389.552 677.562 388.781C677.125 387.99 676.458 387.354 675.562 386.875C674.667 386.375 673.542 386.125 672.188 386.125C670.896 386.125 669.823 386.333 668.969 386.75C668.135 387.146 667.51 387.667 667.094 388.312C666.698 388.958 666.5 389.667 666.5 390.438C666.5 391 666.604 391.51 666.812 391.969C667.042 392.406 667.417 392.812 667.938 393.188C668.458 393.542 669.167 393.875 670.062 394.188C670.979 394.5 672.125 394.802 673.5 395.094C676.083 395.635 678.302 396.333 680.156 397.188C682.031 398.021 683.469 399.104 684.469 400.438C685.469 401.75 685.969 403.417 685.969 405.438C685.969 406.938 685.646 408.312 685 409.562C684.375 410.792 683.458 411.865 682.25 412.781C681.042 413.677 679.594 414.375 677.906 414.875C676.24 415.375 674.365 415.625 672.281 415.625C669.219 415.625 666.625 415.083 664.5 414C662.375 412.896 660.76 411.49 659.656 409.781C658.573 408.052 658.031 406.26 658.031 404.406H665.312C665.396 405.802 665.781 406.917 666.469 407.75C667.177 408.562 668.052 409.156 669.094 409.531C670.156 409.885 671.25 410.062 672.375 410.062C673.729 410.062 674.865 409.885 675.781 409.531C676.698 409.156 677.396 408.656 677.875 408.031C678.354 407.385 678.594 406.656 678.594 405.844ZM708.062 381.188V386.688H689V381.188H708.062ZM694.5 372.906H702.031V405.656C702.031 406.698 702.177 407.5 702.469 408.062C702.781 408.604 703.208 408.969 703.75 409.156C704.292 409.344 704.927 409.438 705.656 409.438C706.177 409.438 706.677 409.406 707.156 409.344C707.635 409.281 708.021 409.219 708.312 409.156L708.344 414.906C707.719 415.094 706.99 415.26 706.156 415.406C705.344 415.552 704.406 415.625 703.344 415.625C701.615 415.625 700.083 415.323 698.75 414.719C697.417 414.094 696.375 413.083 695.625 411.688C694.875 410.292 694.5 408.438 694.5 406.125V372.906ZM171.656 465.25L179.5 459.969C180.812 459.094 181.75 458.24 182.312 457.406C182.875 456.552 183.156 455.49 183.156 454.219C183.156 453.135 182.74 452.135 181.906 451.219C181.073 450.302 179.896 449.844 178.375 449.844C177.312 449.844 176.417 450.094 175.688 450.594C174.958 451.073 174.406 451.719 174.031 452.531C173.677 453.323 173.5 454.208 173.5 455.188C173.5 456.125 173.74 457.094 174.219 458.094C174.698 459.073 175.354 460.104 176.188 461.188C177.021 462.25 177.958 463.396 179 464.625L200.5 490H191.781L174.219 469.344C172.698 467.51 171.354 465.833 170.188 464.312C169.021 462.771 168.115 461.281 167.469 459.844C166.823 458.385 166.5 456.885 166.5 455.344C166.5 452.969 166.99 450.927 167.969 449.219C168.948 447.51 170.333 446.198 172.125 445.281C173.917 444.344 176.01 443.875 178.406 443.875C180.719 443.875 182.708 444.344 184.375 445.281C186.062 446.198 187.354 447.417 188.25 448.938C189.167 450.458 189.625 452.125 189.625 453.938C189.625 455.375 189.365 456.688 188.844 457.875C188.323 459.062 187.604 460.146 186.688 461.125C185.771 462.104 184.708 463.031 183.5 463.906L173.969 470.844C172.865 471.74 172.042 472.604 171.5 473.438C170.979 474.25 170.635 475 170.469 475.688C170.302 476.375 170.219 476.979 170.219 477.5C170.219 478.833 170.5 480.042 171.062 481.125C171.646 482.208 172.49 483.073 173.594 483.719C174.719 484.344 176.083 484.656 177.688 484.656C179.417 484.656 181.094 484.271 182.719 483.5C184.344 482.708 185.802 481.594 187.094 480.156C188.385 478.719 189.406 477 190.156 475C190.927 473 191.312 470.781 191.312 468.344H197.812C197.812 470.552 197.594 472.646 197.156 474.625C196.74 476.604 196.062 478.438 195.125 480.125C194.208 481.812 193 483.323 191.5 484.656C191.354 484.802 191.188 484.99 191 485.219C190.833 485.427 190.667 485.604 190.5 485.75C188.708 487.396 186.698 488.625 184.469 489.438C182.26 490.229 179.906 490.625 177.406 490.625C174.385 490.625 171.771 490.073 169.562 488.969C167.354 487.865 165.646 486.344 164.438 484.406C163.25 482.469 162.656 480.25 162.656 477.75C162.656 475.896 163.042 474.271 163.812 472.875C164.583 471.458 165.635 470.146 166.969 468.938C168.323 467.708 169.885 466.479 171.656 465.25ZM247.156 444.5H254.969V474.906C254.969 478.365 254.219 481.26 252.719 483.594C251.219 485.927 249.177 487.688 246.594 488.875C244.031 490.042 241.167 490.625 238 490.625C234.729 490.625 231.812 490.042 229.25 488.875C226.688 487.688 224.667 485.927 223.188 483.594C221.729 481.26 221 478.365 221 474.906V444.5H228.812V474.906C228.812 477.094 229.188 478.896 229.938 480.312C230.688 481.708 231.75 482.74 233.125 483.406C234.5 484.073 236.125 484.406 238 484.406C239.875 484.406 241.49 484.073 242.844 483.406C244.219 482.74 245.281 481.708 246.031 480.312C246.781 478.896 247.156 477.094 247.156 474.906V444.5ZM269.469 444.5L279.125 461.094L288.781 444.5H297.812L284.062 467.031L298.156 490H289.031L279.125 473.094L269.219 490H260.062L274.188 467.031L260.406 444.5H269.469ZM339.75 483V442H347.312V490H340.469L339.75 483ZM317.75 473.469V472.812C317.75 470.25 318.052 467.917 318.656 465.812C319.26 463.688 320.135 461.865 321.281 460.344C322.427 458.802 323.823 457.625 325.469 456.812C327.115 455.979 328.969 455.562 331.031 455.562C333.073 455.562 334.865 455.958 336.406 456.75C337.948 457.542 339.26 458.677 340.344 460.156C341.427 461.615 342.292 463.365 342.938 465.406C343.583 467.427 344.042 469.677 344.312 472.156V474.25C344.042 476.667 343.583 478.875 342.938 480.875C342.292 482.875 341.427 484.604 340.344 486.062C339.26 487.521 337.938 488.646 336.375 489.438C334.833 490.229 333.031 490.625 330.969 490.625C328.927 490.625 327.083 490.198 325.438 489.344C323.812 488.49 322.427 487.292 321.281 485.75C320.135 484.208 319.26 482.396 318.656 480.312C318.052 478.208 317.75 475.927 317.75 473.469ZM325.281 472.812V473.469C325.281 475.01 325.417 476.448 325.688 477.781C325.979 479.115 326.427 480.292 327.031 481.312C327.635 482.312 328.417 483.104 329.375 483.688C330.354 484.25 331.521 484.531 332.875 484.531C334.583 484.531 335.99 484.156 337.094 483.406C338.198 482.656 339.062 481.646 339.688 480.375C340.333 479.083 340.771 477.646 341 476.062V470.406C340.875 469.177 340.615 468.031 340.219 466.969C339.844 465.906 339.333 464.979 338.688 464.188C338.042 463.375 337.24 462.75 336.281 462.312C335.344 461.854 334.229 461.625 332.938 461.625C331.562 461.625 330.396 461.917 329.438 462.5C328.479 463.083 327.688 463.885 327.062 464.906C326.458 465.927 326.01 467.115 325.719 468.469C325.427 469.823 325.281 471.271 325.281 472.812ZM370.094 490.625C367.594 490.625 365.333 490.219 363.312 489.406C361.312 488.573 359.604 487.417 358.188 485.938C356.792 484.458 355.719 482.719 354.969 480.719C354.219 478.719 353.844 476.562 353.844 474.25V473C353.844 470.354 354.229 467.958 355 465.812C355.771 463.667 356.844 461.833 358.219 460.312C359.594 458.771 361.219 457.594 363.094 456.781C364.969 455.969 367 455.562 369.188 455.562C371.604 455.562 373.719 455.969 375.531 456.781C377.344 457.594 378.844 458.74 380.031 460.219C381.24 461.677 382.135 463.417 382.719 465.438C383.323 467.458 383.625 469.688 383.625 472.125V475.344H357.5V469.938H376.188V469.344C376.146 467.99 375.875 466.719 375.375 465.531C374.896 464.344 374.156 463.385 373.156 462.656C372.156 461.927 370.823 461.562 369.156 461.562C367.906 461.562 366.792 461.833 365.812 462.375C364.854 462.896 364.052 463.656 363.406 464.656C362.76 465.656 362.26 466.865 361.906 468.281C361.573 469.677 361.406 471.25 361.406 473V474.25C361.406 475.729 361.604 477.104 362 478.375C362.417 479.625 363.021 480.719 363.812 481.656C364.604 482.594 365.562 483.333 366.688 483.875C367.812 484.396 369.094 484.656 370.531 484.656C372.344 484.656 373.958 484.292 375.375 483.562C376.792 482.833 378.021 481.802 379.062 480.469L383.031 484.312C382.302 485.375 381.354 486.396 380.188 487.375C379.021 488.333 377.594 489.115 375.906 489.719C374.24 490.323 372.302 490.625 370.094 490.625ZM408.469 480.844C408.469 480.094 408.281 479.417 407.906 478.812C407.531 478.188 406.812 477.625 405.75 477.125C404.708 476.625 403.167 476.167 401.125 475.75C399.333 475.354 397.688 474.885 396.188 474.344C394.708 473.781 393.438 473.104 392.375 472.312C391.312 471.521 390.49 470.583 389.906 469.5C389.323 468.417 389.031 467.167 389.031 465.75C389.031 464.375 389.333 463.073 389.938 461.844C390.542 460.615 391.406 459.531 392.531 458.594C393.656 457.656 395.021 456.917 396.625 456.375C398.25 455.833 400.062 455.562 402.062 455.562C404.896 455.562 407.323 456.042 409.344 457C411.385 457.938 412.948 459.219 414.031 460.844C415.115 462.448 415.656 464.26 415.656 466.281H408.125C408.125 465.385 407.896 464.552 407.438 463.781C407 462.99 406.333 462.354 405.438 461.875C404.542 461.375 403.417 461.125 402.062 461.125C400.771 461.125 399.698 461.333 398.844 461.75C398.01 462.146 397.385 462.667 396.969 463.312C396.573 463.958 396.375 464.667 396.375 465.438C396.375 466 396.479 466.51 396.688 466.969C396.917 467.406 397.292 467.812 397.812 468.188C398.333 468.542 399.042 468.875 399.938 469.188C400.854 469.5 402 469.802 403.375 470.094C405.958 470.635 408.177 471.333 410.031 472.188C411.906 473.021 413.344 474.104 414.344 475.438C415.344 476.75 415.844 478.417 415.844 480.438C415.844 481.938 415.521 483.312 414.875 484.562C414.25 485.792 413.333 486.865 412.125 487.781C410.917 488.677 409.469 489.375 407.781 489.875C406.115 490.375 404.24 490.625 402.156 490.625C399.094 490.625 396.5 490.083 394.375 489C392.25 487.896 390.635 486.49 389.531 484.781C388.448 483.052 387.906 481.26 387.906 479.406H395.188C395.271 480.802 395.656 481.917 396.344 482.75C397.052 483.562 397.927 484.156 398.969 484.531C400.031 484.885 401.125 485.062 402.25 485.062C403.604 485.062 404.74 484.885 405.656 484.531C406.573 484.156 407.271 483.656 407.75 483.031C408.229 482.385 408.469 481.656 408.469 480.844ZM430.5 456.188V490H422.938V456.188H430.5ZM422.438 447.312C422.438 446.167 422.812 445.219 423.562 444.469C424.333 443.698 425.396 443.312 426.75 443.312C428.083 443.312 429.135 443.698 429.906 444.469C430.677 445.219 431.062 446.167 431.062 447.312C431.062 448.438 430.677 449.375 429.906 450.125C429.135 450.875 428.083 451.25 426.75 451.25C425.396 451.25 424.333 450.875 423.562 450.125C422.812 449.375 422.438 448.438 422.438 447.312ZM460.406 456.188H467.25V489.062C467.25 492.104 466.604 494.688 465.312 496.812C464.021 498.938 462.219 500.552 459.906 501.656C457.594 502.781 454.917 503.344 451.875 503.344C450.583 503.344 449.146 503.156 447.562 502.781C446 502.406 444.479 501.802 443 500.969C441.542 500.156 440.323 499.083 439.344 497.75L442.875 493.312C444.083 494.75 445.417 495.802 446.875 496.469C448.333 497.135 449.865 497.469 451.469 497.469C453.198 497.469 454.667 497.146 455.875 496.5C457.104 495.875 458.052 494.948 458.719 493.719C459.385 492.49 459.719 490.99 459.719 489.219V463.844L460.406 456.188ZM437.438 473.469V472.812C437.438 470.25 437.75 467.917 438.375 465.812C439 463.688 439.896 461.865 441.062 460.344C442.229 458.802 443.646 457.625 445.312 456.812C446.979 455.979 448.865 455.562 450.969 455.562C453.156 455.562 455.021 455.958 456.562 456.75C458.125 457.542 459.427 458.677 460.469 460.156C461.51 461.615 462.323 463.365 462.906 465.406C463.51 467.427 463.958 469.677 464.25 472.156V474.25C463.979 476.667 463.521 478.875 462.875 480.875C462.229 482.875 461.375 484.604 460.312 486.062C459.25 487.521 457.938 488.646 456.375 489.438C454.833 490.229 453.01 490.625 450.906 490.625C448.844 490.625 446.979 490.198 445.312 489.344C443.667 488.49 442.25 487.292 441.062 485.75C439.896 484.208 439 482.396 438.375 480.312C437.75 478.208 437.438 475.927 437.438 473.469ZM444.969 472.812V473.469C444.969 475.01 445.115 476.448 445.406 477.781C445.719 479.115 446.188 480.292 446.812 481.312C447.458 482.312 448.271 483.104 449.25 483.688C450.25 484.25 451.427 484.531 452.781 484.531C454.552 484.531 456 484.156 457.125 483.406C458.271 482.656 459.146 481.646 459.75 480.375C460.375 479.083 460.812 477.646 461.062 476.062V470.406C460.938 469.177 460.677 468.031 460.281 466.969C459.906 465.906 459.396 464.979 458.75 464.188C458.104 463.375 457.292 462.75 456.312 462.312C455.333 461.854 454.177 461.625 452.844 461.625C451.49 461.625 450.312 461.917 449.312 462.5C448.312 463.083 447.49 463.885 446.844 464.906C446.219 465.927 445.75 467.115 445.438 468.469C445.125 469.823 444.969 471.271 444.969 472.812ZM482.531 463.406V490H475V456.188H482.094L482.531 463.406ZM481.188 471.844L478.75 471.812C478.771 469.417 479.104 467.219 479.75 465.219C480.417 463.219 481.333 461.5 482.5 460.062C483.688 458.625 485.104 457.521 486.75 456.75C488.396 455.958 490.229 455.562 492.25 455.562C493.875 455.562 495.344 455.792 496.656 456.25C497.99 456.688 499.125 457.406 500.062 458.406C501.021 459.406 501.75 460.708 502.25 462.312C502.75 463.896 503 465.844 503 468.156V490H495.438V468.125C495.438 466.5 495.198 465.219 494.719 464.281C494.26 463.323 493.583 462.646 492.688 462.25C491.812 461.833 490.719 461.625 489.406 461.625C488.115 461.625 486.958 461.896 485.938 462.438C484.917 462.979 484.052 463.719 483.344 464.656C482.656 465.594 482.125 466.677 481.75 467.906C481.375 469.135 481.188 470.448 481.188 471.844ZM525.594 490.625C523.094 490.625 520.833 490.219 518.812 489.406C516.812 488.573 515.104 487.417 513.688 485.938C512.292 484.458 511.219 482.719 510.469 480.719C509.719 478.719 509.344 476.562 509.344 474.25V473C509.344 470.354 509.729 467.958 510.5 465.812C511.271 463.667 512.344 461.833 513.719 460.312C515.094 458.771 516.719 457.594 518.594 456.781C520.469 455.969 522.5 455.562 524.688 455.562C527.104 455.562 529.219 455.969 531.031 456.781C532.844 457.594 534.344 458.74 535.531 460.219C536.74 461.677 537.635 463.417 538.219 465.438C538.823 467.458 539.125 469.688 539.125 472.125V475.344H513V469.938H531.688V469.344C531.646 467.99 531.375 466.719 530.875 465.531C530.396 464.344 529.656 463.385 528.656 462.656C527.656 461.927 526.323 461.562 524.656 461.562C523.406 461.562 522.292 461.833 521.312 462.375C520.354 462.896 519.552 463.656 518.906 464.656C518.26 465.656 517.76 466.865 517.406 468.281C517.073 469.677 516.906 471.25 516.906 473V474.25C516.906 475.729 517.104 477.104 517.5 478.375C517.917 479.625 518.521 480.719 519.312 481.656C520.104 482.594 521.062 483.333 522.188 483.875C523.312 484.396 524.594 484.656 526.031 484.656C527.844 484.656 529.458 484.292 530.875 483.562C532.292 482.833 533.521 481.802 534.562 480.469L538.531 484.312C537.802 485.375 536.854 486.396 535.688 487.375C534.521 488.333 533.094 489.115 531.406 489.719C529.74 490.323 527.802 490.625 525.594 490.625ZM552.562 462.625V490H545.031V456.188H552.219L552.562 462.625ZM562.906 455.969L562.844 462.969C562.385 462.885 561.885 462.823 561.344 462.781C560.823 462.74 560.302 462.719 559.781 462.719C558.49 462.719 557.354 462.906 556.375 463.281C555.396 463.635 554.573 464.156 553.906 464.844C553.26 465.51 552.76 466.323 552.406 467.281C552.052 468.24 551.844 469.312 551.781 470.5L550.062 470.625C550.062 468.5 550.271 466.531 550.688 464.719C551.104 462.906 551.729 461.312 552.562 459.938C553.417 458.562 554.479 457.49 555.75 456.719C557.042 455.948 558.531 455.562 560.219 455.562C560.677 455.562 561.167 455.604 561.688 455.688C562.229 455.771 562.635 455.865 562.906 455.969Z" fill="#FFC700"/>
</svg>
