<svg width="174" height="44" viewBox="0 0 174 44" fill="none" xmlns="http://www.w3.org/2000/svg">
<path d="M39.32 19.68C39.32 18.144 38.8507 16.9067 37.912 15.968C36.9733 15.0293 35.736 14.56 34.2 14.56H28.312C29.2507 16.1813 29.72 18.0587 29.72 20.192V44H20.12V19.68C20.12 18.144 19.6507 16.9067 18.712 15.968C17.7733 15.0293 16.536 14.56 15 14.56H10.52V44H0.92V9.952H38.68C41.752 9.952 44.2267 10.8907 46.104 12.768C47.9813 14.6453 48.92 17.12 48.92 20.192V40.8H50.904C51.7573 40.8 52.184 40.3733 52.184 39.52V34.4H55.384V39.392C55.384 40.7573 54.9573 41.8667 54.104 42.72C53.2507 43.5733 52.1413 44 50.776 44H39.32V19.68ZM61.7925 0.991997H71.3925L69.0885 5.6H59.4885L61.7925 0.991997ZM59.5525 9.184H69.1525V40.8H71.1365C71.9898 40.8 72.4165 40.3733 72.4165 39.52V34.4H75.6165V39.392C75.6165 40.7573 75.1898 41.8667 74.3365 42.72C73.4832 43.5733 72.3738 44 71.0085 44H59.5525V9.184ZM86.259 9.952H95.859V44H84.403C83.0377 44 81.9283 43.5733 81.075 42.72C80.2217 41.8667 79.795 40.7573 79.795 39.392V34.4H82.995V39.52C82.995 40.3733 83.4217 40.8 84.275 40.8H86.259V9.952ZM103.923 19.68C103.923 18.144 103.454 16.9067 102.515 15.968C101.576 15.0293 100.339 14.56 98.803 14.56H95.859V9.952H103.283C106.355 9.952 108.83 10.8907 110.707 12.768C112.584 14.6453 113.523 17.12 113.523 20.192V22.816H103.923V19.68ZM137.269 19.68C137.269 18.144 136.8 16.9067 135.861 15.968C134.922 15.0293 133.685 14.56 132.149 14.56H131.765C130.229 14.56 128.992 14.9653 128.053 15.776C127.114 16.5867 126.645 17.76 126.645 19.296H117.045C117.045 16.224 117.984 13.8987 119.861 12.32C121.738 10.7413 124.213 9.952 127.285 9.952H136.629C138.165 9.952 139.552 10.208 140.789 10.72C142.069 11.1893 143.157 11.872 144.053 12.768C144.949 13.664 145.632 14.752 146.101 16.032C146.613 17.2693 146.869 18.656 146.869 20.192V24.032H148.661C150.026 24.032 151.136 24.4587 151.989 25.312C152.842 26.1653 153.269 27.2747 153.269 28.64V33.504H150.069V28.512C150.069 27.6587 149.642 27.232 148.789 27.232H146.869V34.4C146.869 36.192 146.613 37.7067 146.101 38.944C145.632 40.1387 144.949 41.12 144.053 41.888C143.157 42.6133 142.069 43.1467 140.789 43.488C139.552 43.8293 138.165 44 136.629 44H127.285C124.213 44 121.738 43.2107 119.861 41.632C117.984 40.0107 117.045 37.7493 117.045 34.848V32.928C117.045 31.0933 117.344 29.6 117.941 28.448C118.581 27.296 119.434 26.3787 120.501 25.696C121.568 25.0133 122.784 24.544 124.149 24.288C125.514 24.032 126.944 23.8827 128.437 23.84C129.93 23.7547 131.445 23.7547 132.981 23.84C134.517 23.8827 135.946 23.904 137.269 23.904V19.68ZM126.645 32.928V34.848C126.645 36.384 127.114 37.536 128.053 38.304C128.992 39.0293 130.229 39.392 131.765 39.392H132.149C133.685 39.392 134.922 39.0293 135.861 38.304C136.8 37.5787 137.269 36.448 137.269 34.912V27.168C135.946 27.168 134.645 27.232 133.365 27.36C132.085 27.4453 130.933 27.68 129.909 28.064C128.928 28.448 128.138 29.024 127.541 29.792C126.944 30.56 126.645 31.6053 126.645 32.928ZM159.668 0.991997H169.268L166.964 5.6H157.364L159.668 0.991997ZM157.428 9.184H167.028V40.8H169.012C169.865 40.8 170.292 40.3733 170.292 39.52V34.4H173.492V39.392C173.492 40.7573 173.065 41.8667 172.212 42.72C171.358 43.5733 170.249 44 168.884 44H157.428V9.184Z" fill="#333333"/>
</svg>
