<svg width="218" height="99" viewBox="0 0 218 99" fill="none" xmlns="http://www.w3.org/2000/svg">
<rect width="218" height="99" fill="white"/>
<path d="M60.32 41.68C60.32 40.144 59.8507 38.9067 58.912 37.968C57.9733 37.0293 56.736 36.56 55.2 36.56H49.312C50.2507 38.1813 50.72 40.0587 50.72 42.192V66H41.12V41.68C41.12 40.144 40.6507 38.9067 39.712 37.968C38.7733 37.0293 37.536 36.56 36 36.56H31.52V66H21.92V31.952H59.68C62.752 31.952 65.2267 32.8907 67.104 34.768C68.9813 36.6453 69.92 39.12 69.92 42.192V62.8H71.904C72.7573 62.8 73.184 62.3733 73.184 61.52V56.4H76.384V61.392C76.384 62.7573 75.9573 63.8667 75.104 64.72C74.2507 65.5733 73.1413 66 71.776 66H60.32V41.68ZM82.7925 22.992H92.3925L90.0885 27.6H80.4885L82.7925 22.992ZM80.5525 31.184H90.1525V62.8H92.1365C92.9898 62.8 93.4165 62.3733 93.4165 61.52V56.4H96.6165V61.392C96.6165 62.7573 96.1898 63.8667 95.3365 64.72C94.4832 65.5733 93.3738 66 92.0085 66H80.5525V31.184ZM107.259 31.952H116.859V66H105.403C104.038 66 102.928 65.5733 102.075 64.72C101.222 63.8667 100.795 62.7573 100.795 61.392V56.4H103.995V61.52C103.995 62.3733 104.422 62.8 105.275 62.8H107.259V31.952ZM124.923 41.68C124.923 40.144 124.454 38.9067 123.515 37.968C122.576 37.0293 121.339 36.56 119.803 36.56H116.859V31.952H124.283C127.355 31.952 129.83 32.8907 131.707 34.768C133.584 36.6453 134.523 39.12 134.523 42.192V44.816H124.923V41.68ZM158.269 41.68C158.269 40.144 157.8 38.9067 156.861 37.968C155.922 37.0293 154.685 36.56 153.149 36.56H152.765C151.229 36.56 149.992 36.9653 149.053 37.776C148.114 38.5867 147.645 39.76 147.645 41.296H138.045C138.045 38.224 138.984 35.8987 140.861 34.32C142.738 32.7413 145.213 31.952 148.285 31.952H157.629C159.165 31.952 160.552 32.208 161.789 32.72C163.069 33.1893 164.157 33.872 165.053 34.768C165.949 35.664 166.632 36.752 167.101 38.032C167.613 39.2693 167.869 40.656 167.869 42.192V46.032H169.661C171.026 46.032 172.136 46.4587 172.989 47.312C173.842 48.1653 174.269 49.2747 174.269 50.64V55.504H171.069V50.512C171.069 49.6587 170.642 49.232 169.789 49.232H167.869V56.4C167.869 58.192 167.613 59.7067 167.101 60.944C166.632 62.1387 165.949 63.12 165.053 63.888C164.157 64.6133 163.069 65.1467 161.789 65.488C160.552 65.8293 159.165 66 157.629 66H148.285C145.213 66 142.738 65.2107 140.861 63.632C138.984 62.0107 138.045 59.7493 138.045 56.848V54.928C138.045 53.0933 138.344 51.6 138.941 50.448C139.581 49.296 140.434 48.3787 141.501 47.696C142.568 47.0133 143.784 46.544 145.149 46.288C146.514 46.032 147.944 45.8827 149.437 45.84C150.93 45.7547 152.445 45.7547 153.981 45.84C155.517 45.8827 156.946 45.904 158.269 45.904V41.68ZM147.645 54.928V56.848C147.645 58.384 148.114 59.536 149.053 60.304C149.992 61.0293 151.229 61.392 152.765 61.392H153.149C154.685 61.392 155.922 61.0293 156.861 60.304C157.8 59.5787 158.269 58.448 158.269 56.912V49.168C156.946 49.168 155.645 49.232 154.365 49.36C153.085 49.4453 151.933 49.68 150.909 50.064C149.928 50.448 149.138 51.024 148.541 51.792C147.944 52.56 147.645 53.6053 147.645 54.928ZM180.668 22.992H190.268L187.964 27.6H178.364L180.668 22.992ZM178.428 31.184H188.028V62.8H190.012C190.865 62.8 191.292 62.3733 191.292 61.52V56.4H194.492V61.392C194.492 62.7573 194.065 63.8667 193.212 64.72C192.358 65.5733 191.249 66 189.884 66H178.428V31.184Z" fill="#0085DF"/>
</svg>
