<svg width="269" height="298" viewBox="0 0 269 298" fill="none" xmlns="http://www.w3.org/2000/svg">
<path d="M4.32715 172.49C4.89057 172.644 5.51407 173.215 5.91022 173.611C6.07576 173.777 6.17432 174.056 6.36087 174.177C6.63681 174.356 6.92611 174.493 7.19285 174.697C7.77377 175.141 8.34415 175.748 8.71814 176.361C9.00671 176.834 9.20598 177.358 9.3999 177.875C9.47465 178.074 9.5715 178.279 9.67723 178.464C9.79665 178.673 10.0221 178.635 10.1279 178.776C10.3291 179.044 10.6166 179.264 10.8328 179.539C11.1511 179.944 11.2171 180.557 11.399 181.029C11.7228 181.871 12.5947 182.401 13.1091 183.121C13.7341 183.996 14.1797 184.868 14.3918 185.929C14.4759 186.35 14.5087 186.726 14.7731 187.073C15.1802 187.607 15.3172 188.181 15.6571 188.754C15.8269 189.041 15.9185 189.319 16.0268 189.632C16.1171 189.893 16.3693 189.944 16.489 190.199C16.832 190.927 16.7831 191.733 17.2806 192.411C17.5512 192.78 17.887 193.372 18.049 193.804C18.1739 194.137 18.5427 194.472 18.777 194.746C18.9145 194.906 18.8674 195.087 18.9503 195.271C19.1068 195.619 19.2957 195.904 19.4125 196.277C19.5869 196.832 19.6677 197.4 19.8227 197.958C19.9473 198.406 20.0317 198.444 20.3312 198.744C20.5822 198.995 20.537 199.444 20.5507 199.76C20.5795 200.425 20.6426 201.063 20.7587 201.719C20.8539 202.257 20.8759 202.919 21.0823 203.435C21.2039 203.739 21.338 204.085 21.4982 204.371C21.667 204.672 21.6932 205.091 21.868 205.353C22.0904 205.687 22.4877 205.854 22.6769 206.185C22.8869 206.553 23.3121 206.802 23.6937 206.971C24.6425 207.39 25.0543 208.342 25.7159 209.074C26.2126 209.624 26.3023 210.159 26.6403 210.784C26.9413 211.341 27.2029 211.911 27.4723 212.483C27.6899 212.944 27.804 213.449 28.0154 213.916C28.1942 214.311 28.3991 214.625 28.4545 215.06C28.4922 215.355 28.7881 215.611 28.9167 215.88C29.1601 216.39 29.3355 216.828 29.4945 217.394C29.7683 218.367 30.1594 219.135 30.6962 219.965C30.8442 220.193 30.9681 220.254 31.2047 220.34C31.3832 220.405 31.4497 220.7 31.534 220.843C31.6788 221.088 31.9462 221.162 32.0944 221.427C32.2432 221.692 32.4482 221.897 32.6028 222.149C32.9244 222.671 33.2545 223.229 33.7064 223.657C34.0522 223.984 34.3562 224.33 34.7059 224.651C35.0514 224.967 35.6073 225.067 35.9596 225.384C36.5209 225.889 37.0865 226.414 37.5947 226.979C37.9568 227.381 38.3565 227.966 38.8311 228.175C39.7049 228.558 40.3783 229.518 40.8648 230.313C41.161 230.797 41.3336 231.295 41.8355 231.584C42.4278 231.924 43.0014 232.295 43.5572 232.658C44.2465 233.109 43.702 231.218 43.3261 230.96C42.8916 230.661 42.7312 229.921 42.3324 229.579C41.9441 229.246 41.7778 228.537 41.5582 228.082C41.3298 227.609 41.1386 227.264 40.836 226.829C40.3299 226.101 39.8143 225.408 39.328 224.656C38.7103 223.702 39.0311 222.704 38.7387 221.681C38.6398 221.335 38.4282 221.022 38.3342 220.647C38.1872 220.058 37.7961 219.538 37.6294 218.977C37.3588 218.067 36.692 217.29 36.3583 216.377C36.2126 215.978 36.002 215.511 35.9192 215.106C35.809 214.567 35.5643 213.916 35.5263 213.384C35.4962 212.963 35.1456 212.639 34.9023 212.298C34.5045 211.741 34.1204 210.689 33.9664 210.022C33.8279 209.421 33.8135 208.922 33.5735 208.346C33.3035 207.698 32.9134 207.127 32.678 206.457C32.3688 205.577 32.2043 204.742 32.1002 203.805C32.0393 203.257 32.0876 202.834 31.8922 202.297C31.804 202.054 31.8896 201.222 31.6784 201.095C31.3763 200.914 31.3664 199.82 31.3664 199.489C31.3664 198.783 31.383 198.089 31.8402 197.501C32.3817 196.805 32.9421 197.313 33.5562 196.929C34.0115 196.645 34.8602 196.815 35.2721 197.039C35.6214 197.23 35.8628 197.442 36.1503 197.709C36.3419 197.887 36.4424 198.121 36.6587 198.276C36.7885 198.368 36.7224 198.51 36.8263 198.593C37.3921 199.046 37.6699 199.8 38.4382 200.026C38.7738 200.125 39.1935 200.246 39.4551 200.488C39.7407 200.753 40.1996 200.621 40.4142 200.824C40.7079 201.101 40.8267 201.364 40.9804 201.736C41.1213 202.077 41.6077 203.227 41.9973 203.273C42.2176 203.3 42.8296 203.847 42.991 204.024C43.1711 204.222 43.5172 204.473 43.823 204.544C44.6137 204.728 45.1611 206.124 45.5678 206.763C45.7893 207.111 46.2758 207.702 46.7176 207.838C47.1718 207.977 47.2778 208.027 47.642 208.363C47.8584 208.563 48.0495 208.76 48.2544 208.976C48.4082 209.138 48.3754 209.377 48.5318 209.507C48.7956 209.727 48.8227 209.925 49.0055 210.189C49.3244 210.65 49.7356 210.73 50.1842 211.021C51.16 211.655 52.1736 211.638 52.6628 212.899C52.7765 213.192 53.2656 213.726 53.5 213.916C53.9633 214.29 54.0295 214.387 54.5347 214.586C54.8165 214.697 54.9235 215.07 55.1009 215.291C55.3685 215.624 55.6627 215.928 55.8867 216.296C56.0862 216.624 56.2317 216.908 56.4529 217.209C56.7498 217.613 57.0345 217.8 57.4697 218.018C57.8706 218.218 58.0914 218.576 58.4057 218.873C58.5349 218.995 58.7052 219.004 58.8217 219.15C59.0481 219.435 59.1174 219.832 59.3648 220.098C59.5273 220.272 59.8235 220.693 60.0292 220.756C60.7929 220.991 61.6817 221.047 62.4212 221.369C62.9959 221.619 63.6781 221.733 64.1949 222.108C65.0106 222.702 65.1467 223.663 65.8011 224.391C66.6033 225.282 67.4602 225.989 68.3201 226.811C68.4714 226.956 68.6684 227.069 68.8517 227.17C69.0828 227.297 69.0918 227.485 69.2676 227.666C69.6779 228.089 70.2306 228.199 70.7583 228.394C71.3311 228.606 71.9668 228.563 72.5262 228.776C73.2233 229.041 74.2554 230.283 75 230.313C75.7905 230.344 76.8132 230.96 76.8132 230.578C77.0177 230.948 77.1912 231.226 77.5412 231.376C78.0433 231.591 78.3084 232.142 78.6794 232.531C79.2542 233.135 79.9084 233.568 80.7073 233.756C81.0082 233.827 81.267 233.904 81.5913 233.958C81.9399 234.016 82.3281 234.1 82.6775 234.207C83.4289 234.435 84.4777 234.453 85.081 235.056C85.2992 235.274 85.6163 235.394 85.7628 235.663C85.9658 236.035 86.179 236.136 86.589 236.136" stroke="#19C788" stroke-linecap="round"/>
<path d="M40.934 187.258C40.934 186.081 40.934 184.904 40.934 183.728C40.934 183.143 40.7855 182.542 40.7202 181.954C40.6623 181.433 40.5297 180.899 40.518 180.371C40.4971 179.429 40.31 178.501 40.31 177.534C40.31 177.307 40.2008 176.771 40.3678 176.604C40.5685 176.403 41.146 176.342 41.35 176.546C41.8124 177.008 42.0536 177.502 42.2282 178.118C42.3784 178.647 42.7683 178.972 43.0081 179.412C43.2604 179.874 43.8447 180.088 44.1059 180.55C44.6637 181.537 45.1059 182.556 45.4636 183.629C45.6597 184.217 45.9621 184.867 46.4112 185.316C47.086 185.991 47.6937 186.806 48.2196 187.627C48.8672 188.639 49.6066 189.828 49.6697 191.059C49.6838 191.333 49.9344 191.492 49.9817 191.753C50.0455 192.103 50.0364 192.401 50.2937 192.666C50.5911 192.971 50.9453 193.226 51.1893 193.578C51.6451 194.237 51.7549 194.834 51.9519 195.589C52.027 195.877 52.156 196.483 52.3794 196.669C52.8049 197.024 53.2235 197.392 53.4945 197.912C53.7948 198.487 54.2417 199.127 54.4767 199.714C54.6592 200.171 55.1518 200.391 55.4011 200.806C55.6833 201.277 55.9407 201.772 56.1985 202.256C56.3493 202.54 56.6344 202.98 56.7242 203.279C56.9296 203.964 57.3874 204.553 57.6429 205.238C57.9385 206.03 58.1628 206.84 58.4633 207.618C58.7052 208.244 58.7627 208.813 59.1855 209.311C59.7153 209.934 60.1235 211.051 60.2775 211.859C60.3465 212.221 60.5004 212.557 60.5663 212.922C60.6269 213.258 60.8854 213.471 60.9014 213.8C60.9359 214.507 61.1667 215.4 61.3405 216.088C61.5275 216.828 61.6153 217.637 61.8432 218.359C62.1784 219.42 62.7642 220.491 62.9814 221.577" stroke="#19C788" stroke-linecap="round"/>
<path d="M28.0383 166.77C28.0383 167.41 28.3827 167.87 28.6565 168.434C29.0184 169.179 29.3833 169.699 29.9912 170.26C31.1226 171.303 31.498 172.634 31.9902 174.039C32.1435 174.476 32.2977 174.908 32.4524 175.344C32.599 175.757 32.9558 176.02 33.2151 176.373C34.126 177.613 34.651 179.014 35.4221 180.342C36.0085 181.352 36.6049 182.313 37.2248 183.317C37.6853 184.064 38.1614 184.69 38.4381 185.536C38.5015 185.73 38.7122 185.996 38.7385 186.154C38.813 186.601 38.7905 187.061 38.8772 187.512C38.9775 188.034 39.2731 188.314 39.582 188.662C39.9084 189.029 40.2499 189.228 40.6162 189.557C41.144 190.032 41.5381 190.743 41.8584 191.366C42.4721 192.559 42.6328 193.964 43.2855 195.156C43.6693 195.857 44.65 196.93 44.6779 197.738C44.689 198.062 44.8251 198.267 45.0303 198.495C45.2812 198.774 45.4393 199.431 45.5099 199.784C45.7226 200.847 45.9835 202.013 46.4978 202.973C47.0069 203.923 47.179 204.821 47.3703 205.873C47.4563 206.347 47.353 207.323 47.9018 207.433" stroke="#19C788" stroke-linecap="round"/>
<path d="M27.9344 167.082C27.1222 167.082 25.6465 166.703 25.6465 167.816C25.6465 170.142 25.7109 172.412 25.8603 174.726C25.9349 175.883 26.7588 176.801 26.7905 177.956C26.8081 178.601 27.0552 179.133 27.1024 179.747C27.1227 180.009 27.2775 180.27 27.3278 180.538C27.4162 181.01 27.5164 181.601 27.6687 182.058C27.9395 182.87 28.0384 183.587 28.0384 184.45" stroke="#19C788" stroke-linecap="round"/>
<path d="M11.9188 163.338C11.9188 165.865 11.9188 168.392 11.9188 170.919C11.9188 171.867 11.9129 172.79 12.017 173.726C12.0944 174.423 12.2961 175.138 12.329 175.83C12.3484 176.237 12.5181 176.603 12.5427 176.985C12.5664 177.352 12.4855 177.744 12.5659 178.106C12.6658 178.556 12.6467 178.994 12.6467 179.458C12.6467 179.849 12.7076 180.154 12.8085 180.533C12.8699 180.763 13.0466 181.088 13.0627 181.307C13.0912 181.691 13.0627 182.088 13.0627 182.474" stroke="#19C788" stroke-linecap="round"/>
<path d="M12.8547 163.338C13.4252 163.338 14.2492 163.868 14.7325 164.17C15.2065 164.467 15.6101 164.657 16.0382 165.118C16.6823 165.811 16.7158 166.877 17.1764 167.683C17.3261 167.945 17.4575 168.196 17.7484 168.342C18.1429 168.539 18.4475 169.268 18.7595 169.601C19.4003 170.286 19.7325 171.214 20.2443 171.982C20.6412 172.577 20.7718 173.336 21 174C21.0731 174.213 21.4713 174.745 21.6471 174.896C21.8884 175.102 21.6805 175.39 21.9487 175.564C22.0826 175.65 22.5687 176.168 22.6074 176.28C22.7347 176.652 22.9259 177.115 23.162 177.436C23.3402 177.678 23.395 177.884 23.4856 178.164C23.5402 178.332 23.7256 178.381 23.7976 178.545C24.0399 179.096 24.5125 179.683 24.8606 180.18C25.6011 181.238 25.7627 182.371 26.0739 183.577C26.2531 184.272 26.4531 185.004 26.6806 185.686C26.8746 186.268 26.8717 186.859 27.1024 187.443C27.3985 188.192 27.9824 188.633 28.385 189.315C28.898 190.183 29.2705 191.245 29.6387 192.186C29.9021 192.859 29.8269 193.506 29.9161 194.22C30.0638 195.401 30.9447 197.028 31.7822 197.865" stroke="#19C788" stroke-linecap="round"/>
<path d="M4.01509 172.386C4.01509 172.838 3.99552 173.515 3.85909 173.952C3.77458 174.222 3.90204 174.605 3.7031 174.824C3.53769 175.006 3.5991 175.276 3.5991 175.512C3.5991 176.608 3.28711 177.537 3.28711 178.626" stroke="#19C788" stroke-linecap="round"/>
<path d="M44.3665 232.209C44.3989 233.864 45.4155 235.275 46.7217 236.146C47.7069 236.803 48.7015 237.899 48.9823 239.069C49.2417 240.15 50.1271 241.324 50.5725 242.326C50.8363 242.92 51.8723 243.043 52.1025 243.504" stroke="#19C788" stroke-linecap="round"/>
<path d="M62.7778 218.309C62.8508 217.53 64.7288 217.858 65.376 217.858C66.2529 217.858 66.9699 218.382 67.8865 218.422C68.2634 218.438 68.7912 218.479 69.1449 218.597C69.5729 218.74 70.0306 218.669 70.4408 218.816C71.1853 219.082 71.9724 219.119 72.751 219.342C73.5379 219.567 74.4213 219.896 75.1488 220.3C75.6863 220.598 76.3737 220.736 76.8391 221.151C77.1771 221.452 77.6393 221.81 78.0412 222.028C78.6676 222.366 79.0053 223.017 79.694 223.267C80.6163 223.603 81.5027 223.831 82.4862 223.831C83.0411 223.831 83.904 224.249 84.3519 224.507C85.164 224.974 85.9572 225.453 86.7872 225.909C87.5649 226.337 88.2414 226.557 88.6717 227.374C89.0348 228.064 90.0402 228.554 90.8378 228.701C91.5 230 92.2476 229.708 92.8099 230.53C93.4776 231.505 94.2284 232.386 94.9636 233.29C95.1833 233.561 95.5128 233.846 95.7587 234.111C96.0685 234.444 96.344 234.708 96.5851 235.1C97.0939 235.927 97.3469 236.761 98.025 237.491C98.4567 237.956 98.8238 238.588 99.1081 239.157C99.2863 239.513 98.9935 240.094 99.227 240.396C99.524 240.781 99.6197 241.232 99.6277 241.724C99.6386 242.388 99.707 242.388 100.172 242.807C100.423 243.032 100.629 243.377 100.805 243.664C101.281 244.443 101.543 245.348 101.825 246.194C101.998 246.712 102.22 246.891 102.22 247.496C102.22 247.926 102.392 248.395 102.47 248.823C102.558 249.309 102.583 249.794 102.645 250.288C102.686 250.606 102.608 250.96 102.677 251.271C102.785 251.76 103.071 252.215 103.115 252.723C103.181 253.487 103.121 254.273 103.121 255.04C103.121 255.568 103.121 256.096 103.121 256.624C103.121 256.962 103.121 257.3 103.121 257.638C103.121 258.118 102.956 258.171 102.839 258.546C102.416 259.899 103.019 261.327 101.719 262.283C100.737 263.005 100.395 264.3 99.7905 265.345C99.4443 265.943 98.6673 266.401 98.1878 266.916C97.755 267.381 97.5172 268.107 97.1235 268.632C96.8995 268.93 96.9018 269.218 96.8104 269.583" stroke="#19C788" stroke-linecap="round"/>
<path d="M86.781 236.79C87.2587 236.79 87.8031 236.787 88.1583 237.103C88.5124 237.418 89.1815 237.45 89.5106 237.779C89.8897 238.158 90.1321 238.32 90.6626 238.543C91.1048 238.729 91.1875 238.666 91.514 239.044C91.7504 239.318 92.1053 239.529 92.1902 239.889C92.3244 240.46 92.6989 240.581 93.0416 240.972C93.5286 241.529 93.8572 242.309 94.6568 242.537C94.9149 242.611 95.046 242.925 95.2954 243.032C95.6789 243.196 95.7043 243.086 95.9716 243.426C96.1059 243.597 96.3221 243.776 96.4787 243.946C96.8136 244.309 97.0542 244.902 97.1736 245.38C97.3311 246.01 97.73 246.559 98.0501 247.108C98.4919 247.865 99.4415 248.207 99.7655 249.086C100.09 249.966 100.543 250.77 100.867 251.64C101.131 252.35 100.929 253.096 101.105 253.8C101.277 254.488 101.318 255.085 101.318 255.829C101.318 256.166 101.543 256.416 101.543 256.743C101.543 257.1 101.627 257.42 101.65 257.769C101.752 259.308 101.769 260.829 101.769 262.371" stroke="#19C788" stroke-linecap="round"/>
<path d="M3.17367 178.5C3.17367 180.08 2.32612 181.869 2.72343 183.419C2.83636 183.859 3.06518 184.258 3.17362 184.703C3.30724 185.25 3.26724 185.84 3.52377 186.353C3.73061 186.767 3.99022 187.116 4.04066 187.587C4.07686 187.925 4.43312 188.078 4.56588 188.388C5.44244 190.433 5.06311 192.817 5.90812 194.824C6.2946 195.742 6.32496 196.908 6.44168 197.9C6.51879 198.555 6.71446 199.111 6.97524 199.709C7.10762 200.013 6.94662 200.347 7.20034 200.601C8.22334 201.624 8.98344 203.203 9.51799 204.569C9.99666 205.793 10.926 206.884 11.2771 208.113C11.3708 208.441 11.6886 208.597 11.8106 208.896C11.9289 209.187 11.9895 209.485 12.1441 209.763C12.4305 210.279 12.7544 211.009 12.8777 211.564C13.1358 212.725 13.3576 213.787 14.0116 214.749C14.3278 215.214 14.8959 215.45 15.2204 215.991C15.6361 216.684 16.2126 217.17 16.546 217.983C16.8716 218.778 16.8076 219.805 17.4047 220.501C17.7936 220.955 18.243 221.528 18.5135 222.069C18.6844 222.41 18.9193 222.558 19.1888 222.827C19.6846 223.323 19.956 223.948 20.2809 224.553C20.6549 225.249 21.0905 225.938 21.6315 226.52C21.9928 226.91 22.5655 227.802 22.6569 228.305C22.7641 228.894 23.3989 229.298 23.3989 229.955C23.3989 231.198 24.4019 231.458 25.133 232.19C26.1478 233.204 26.1942 234.481 26.8504 235.724C27.119 236.233 28.0628 236.618 28.5 237C28.8318 237.29 28.9557 238.041 29.4098 238.117C30.5275 238.303 31.0957 239.03 31.5857 240.01C32.0796 240.997 32.2913 241.314 33.4865 241.744C33.9657 241.917 34.1876 243.228 34.7287 243.228C35.1668 243.228 35.6012 243.415 35.9292 243.678C36.3131 243.985 36.3376 244.625 36.7212 244.945C37.0646 245.231 37.1838 246.033 37.4215 246.446C37.9151 247.303 38.8851 247.959 39.8226 248.18C40.5803 248.358 41.762 249.404 42.0068 250.139C42.1314 250.512 42.8485 250.509 43.2073 250.697C43.674 250.943 43.9617 251.687 44.2578 252.131C44.6026 252.649 45.2615 253.084 45.4666 253.665C45.6837 254.28 46.5109 254.818 47.1173 255.008C48.2673 255.367 49.09 256.097 49.9268 256.933C50.3905 257.397 50.8026 257.929 51.2274 258.392C51.6443 258.847 52.0745 259.159 52.5446 259.551C52.8341 259.792 53.2997 259.672 53.5534 259.968C53.9974 260.486 54.9444 260.526 55.5709 260.71C56.9384 261.112 57.5645 261.504 58.3638 262.702C58.9928 263.646 58.7453 264.137 60.1562 264.137C60.651 264.137 61.1727 265.09 61.6652 265.137C62.065 265.175 62.7426 265.744 63.0991 265.971C63.6378 266.313 64.2835 266.445 64.7332 266.871C65.2864 267.395 65.8687 267.877 66.4005 268.438C67.0395 269.113 67.8102 269.968 68.7182 270.097C69.6743 270.234 70.8432 270.101 71.7195 270.539" stroke="#19C788" stroke-linecap="round"/>
<path d="M71.8694 270.539C72.4446 270.539 73.0199 270.539 73.5951 270.539C74.2054 270.539 74.6509 270.778 75.2041 270.839C75.8879 270.915 76.3366 271.654 76.8965 271.965C77.1007 272.078 77.345 272.04 77.5718 272.04C77.8886 272.04 77.8248 272.288 78.097 272.348C79.0164 272.553 80.2181 272.79 81.1733 272.79C81.4839 272.79 81.3979 273.064 81.6235 273.09C81.9042 273.123 82.2085 273.09 82.4906 273.09C82.9503 273.09 83.2383 273.24 83.6911 273.24C85.0639 273.24 86.4367 273.24 87.8095 273.24C89.2378 273.24 90.618 273.136 92 272.79C92.3792 272.695 93.9834 272.422 94.0788 272.04C94.2006 271.553 94.8943 271.218 95.1043 270.714C95.2702 270.316 95.4521 270.253 95.7212 269.939C96.3351 269.223 96.9091 268.652 97.6804 268.138" stroke="#19C788" stroke-linecap="round"/>
<path d="M228.864 179.987C229.222 179.049 228.961 178.12 228.701 177.208C228.533 176.62 227.832 175.856 227.23 176.427C226.92 176.72 226.704 177.041 226.449 177.372C226.161 177.744 226.136 178.272 225.881 178.679C225.78 178.841 225.657 178.963 225.559 179.124C225.486 179.244 225.362 179.296 225.286 179.406C225.138 179.619 225.134 179.893 224.973 180.11C224.588 180.628 224.567 181.145 224.369 181.749C224.268 182.058 224.032 182.273 223.96 182.594C223.911 182.817 223.654 183.093 223.506 183.261C223.082 183.745 222.945 184.283 222.653 184.837C222.428 185.261 222.226 185.644 221.885 185.986C221.628 186.243 221.563 186.594 221.308 186.853C220.299 187.882 219.922 189.336 219.015 190.44C218.685 190.842 218.332 191.33 218.13 191.812C217.865 192.442 217.885 193.184 217.63 193.828C217.5 194.157 217.375 194.511 217.303 194.859C217.208 195.32 216.94 195.629 216.786 196.071C216.582 196.654 216.396 197.464 216.027 197.955C215.931 198.084 215.7 198.222 215.641 198.35C215.482 198.697 215.047 198.937 214.806 199.25C214.164 200.081 214.011 201.258 213.662 202.219" stroke="#19C788" stroke-linecap="round"/>
<path d="M213.662 202.219C213.49 202.515 213.364 202.689 213.335 203.037C213.307 203.371 213.021 203.669 212.944 203.999C212.807 204.586 212.423 205.182 212.1 205.698C211.618 206.465 211.22 207.415 210.637 208.104C209.689 209.225 209.378 210.717 208.803 212.032C208.727 212.205 208.78 212.388 208.748 212.568C208.688 212.917 208.536 213.249 208.435 213.585C208.336 213.916 208.127 214.132 207.986 214.443C207.866 214.707 207.759 215.022 207.568 215.247C207.373 215.477 207.201 215.609 207.05 215.901C206.891 216.209 206.958 216.609 206.878 216.945C206.803 217.259 206.734 218.72 206.387 218.893" stroke="#19C788" stroke-linecap="round"/>
<path d="M228.864 179.579C228.864 180.978 228.782 182.367 228.782 183.765C228.782 184.87 228.864 185.986 228.864 187.098" stroke="#19C788" stroke-linecap="round"/>
<path d="M241.288 166.419C240.903 167.213 240.182 167.848 239.717 168.603C239.476 168.994 239.262 169.407 239.054 169.816C238.77 170.372 238.472 170.941 238.055 171.405C237.28 172.267 236.97 173.389 236.293 174.32C236.108 174.575 235.853 174.771 235.657 175.02C235.419 175.323 235.271 175.666 235.04 175.973C234.886 176.178 234.862 176.415 234.713 176.609C234.499 176.888 234.343 177.103 234.177 177.417C233.963 177.822 233.602 178.377 233.323 178.743C232.892 179.311 232.596 179.946 232.252 180.573C231.675 181.622 231.127 182.611 230.871 183.82C230.763 184.331 230.569 185.049 230.131 185.386C229.709 185.711 229.547 186.356 229.273 186.789C229.082 187.09 229.002 187.467 228.828 187.788C228.601 188.206 228.347 188.51 228.079 188.905C227.708 189.452 227.202 189.855 226.934 190.472C226.737 190.927 226.679 191.348 226.167 191.348" stroke="#19C788" stroke-linecap="round"/>
<path d="M226.739 191.512C226.128 191.92 225.505 192.586 225.35 193.337C225.245 193.844 225.096 194.347 225.023 194.859C224.968 195.245 224.708 195.527 224.614 195.898C224.443 196.573 224.205 197.338 224.205 198.033C224.205 198.773 223.935 199.263 223.67 199.913C223.367 200.655 223.077 201.386 222.752 202.119C222.578 202.513 222.346 202.861 222.262 203.282C222.194 203.624 221.951 203.953 221.84 204.294C221.631 204.934 221.461 205.599 221.299 206.252C221.225 206.551 220.993 206.782 220.945 207.078C220.887 207.444 220.752 207.761 220.609 208.104" stroke="#19C788" stroke-linecap="round"/>
<path d="M241.533 166.501C241.944 166.485 242.339 166.419 242.755 166.419C242.934 166.419 243.225 166.346 243.25 166.583C243.297 167.041 243.413 167.462 243.413 167.927C243.413 169.262 243.413 170.597 243.413 171.932C243.413 172.465 243.652 172.961 243.658 173.458C243.667 174.126 243.658 174.796 243.658 175.465C243.658 176.48 243.577 177.519 243.577 178.516" stroke="#19C788" stroke-linecap="round"/>
<path d="M255.183 162.823C254.56 163.163 253.923 163.945 253.521 164.548C253.277 164.914 252.955 165.428 252.613 165.711C252.051 166.177 251.336 166.769 250.96 167.382C250.626 167.926 250.276 168.462 249.952 169.017C249.765 169.336 249.592 169.886 249.216 170.034C248.828 170.187 248.388 170.835 248.154 171.16C247.778 171.68 247.465 172.308 247.273 172.922C246.889 174.147 246.564 175.576 245.865 176.663C245.681 176.95 245.541 177.145 245.293 177.372C244.717 177.898 244.566 178.575 244.294 179.27C243.949 180.153 243.741 180.961 243.141 181.704C242.76 182.175 242.432 182.839 242.269 183.42C242.191 183.697 242.048 184.973 241.615 184.973" stroke="#19C788" stroke-linecap="round"/>
<path d="M241.615 184.973C241.517 186.247 240.694 187.395 240.634 188.651C240.627 188.801 240.584 189.009 240.516 189.142C240.373 189.421 240.321 189.487 240.257 189.845C240.157 190.413 239.873 191.235 239.608 191.748C239.095 192.743 238.836 193.901 238.573 194.981C238.522 195.189 238.44 195.813 238.296 195.957C238.027 196.227 237.937 196.394 237.937 196.825" stroke="#19C788" stroke-linecap="round"/>
<path d="M255.592 162.741C255.608 162.904 255.717 163.029 255.801 163.163C256.055 163.576 256.239 164.035 256.404 164.489C256.504 164.763 256.632 165.022 256.736 165.293C256.804 165.472 256.764 165.703 256.854 165.865C257.308 166.688 257.145 167.873 257.145 168.79C257.145 170.221 257.226 171.643 257.226 173.076C257.226 173.699 257.022 174.406 256.899 175.02C256.833 175.353 256.9 175.851 256.736 176.146C256.656 176.29 256.666 176.396 256.654 176.554C256.633 176.837 256.436 177.073 256.409 177.354C256.385 177.606 256.351 177.854 256.323 178.107C256.285 178.448 256.13 178.677 256.018 178.988C255.94 179.209 255.955 179.475 255.878 179.706C255.723 180.171 255.621 180.691 255.492 181.168C255.43 181.397 255.493 181.802 255.346 181.949" stroke="#19C788" stroke-linecap="round"/>
<path d="M266.054 178.189C266.054 177.467 266.054 176.745 266.054 176.023C266.054 175.771 265.972 175.538 265.972 175.283C265.972 174.961 265.809 174.769 265.809 174.447C265.809 173.782 265.647 172.036 264.755 171.914C264.006 171.811 263.362 172.345 263.025 172.976C262.76 173.473 262.793 174.057 262.535 174.547C262.299 174.996 261.845 175.298 261.549 175.701C261.239 176.123 260.737 176.373 260.432 176.845C260.087 177.38 259.923 177.994 259.556 178.511C259.31 178.859 259.084 179.363 258.734 179.597C258.64 179.66 258.569 179.916 258.53 180.01C258.32 180.508 258.1 180.928 257.803 181.381C257.601 181.69 257.485 182.227 257.181 182.448C256.888 182.661 256.569 183.178 256.327 183.475C255.434 184.572 255.31 185.936 254.815 187.221C254.527 187.97 254.053 188.835 253.612 189.514C253.369 189.887 253.331 190.296 253.04 190.649C252.783 190.961 252.579 191.317 252.4 191.675C251.512 193.451 250.665 195.253 250.038 197.134C249.854 197.686 249.543 198.209 249.362 198.786C249.234 199.194 248.937 199.666 248.731 200.04C248.479 200.495 248.459 201.405 247.909 201.484" stroke="#19C788" stroke-linecap="round"/>
<path d="M247.909 201.484C247.894 201.729 247.705 202.015 247.618 202.251C247.492 202.592 247.319 202.916 247.209 203.273C247.105 203.612 247.15 203.984 246.955 204.281C246.705 204.662 246.334 205.019 246.11 205.398C245.508 206.42 245.063 207.521 244.448 208.54C243.738 209.72 242.431 210.38 241.797 211.664C241.556 212.15 241.363 212.584 241.093 213.054C240.843 213.488 241.028 214.02 240.834 214.48C240.666 214.879 240.72 215.422 240.63 215.846C240.573 216.112 240.267 216.513 240.126 216.75C239.486 217.824 238.407 218.81 238.1 220.038" stroke="#19C788" stroke-linecap="round"/>
<path d="M238.1 220.038C237.642 220.523 237.332 221.136 236.974 221.69C236.806 221.952 236.545 222.467 236.239 222.589C235.786 222.77 235.526 223.388 235.321 223.797" stroke="#19C788" stroke-linecap="round"/>
<path d="M235.158 223.961C234.789 224.699 234.238 225.762 233.342 225.986C232.817 226.117 232.536 226.622 232.093 226.826C231.915 226.908 231.711 227.145 231.557 227.276C231.265 227.524 230.952 227.671 230.617 227.839C230.06 228.117 229.519 228.447 228.946 228.701C228.588 228.861 228.278 229.157 228.011 229.437C227.854 229.601 227.755 229.898 227.557 230.009C226.98 230.332 226.72 230.94 226.299 231.426C226.082 231.676 225.738 231.746 225.513 231.971" stroke="#19C788" stroke-linecap="round"/>
<path d="M202.873 224.533C203.588 223.758 203.996 223.011 204.97 222.512C205.597 222.192 206.231 221.886 206.846 221.545C207.308 221.288 207.804 220.936 208.213 220.601C208.647 220.244 209.21 220.299 209.629 219.938C209.998 219.62 210.45 219.417 210.769 219.039C211.066 218.686 211.354 218.335 211.723 218.053C212.334 217.586 213.2 217.565 213.771 217.032C214.035 216.784 214.352 216.425 214.484 216.087C214.731 215.449 215.174 214.982 215.487 214.398C215.807 213.8 216.442 213.28 216.895 212.763C217.376 212.213 217.82 211.616 218.37 211.119C218.832 210.702 219.358 210.427 219.905 210.143C220.336 209.92 220.807 209.37 221.113 208.999C221.472 208.563 221.931 208.13 222.371 207.777C222.591 207.601 222.698 207.347 222.916 207.169C223.227 206.915 223.605 206.754 223.924 206.506C224.75 205.863 225.406 205.172 226.09 204.385C226.362 204.072 226.73 203.849 227.003 203.536C227.354 203.133 227.864 202.91 228.192 202.51C228.975 201.556 229.732 200.6 230.535 199.667C230.966 199.168 231.316 198.6 231.889 198.251C232.146 198.093 232.372 197.864 232.624 197.724C232.95 197.543 233.281 197.438 233.56 197.188C233.975 196.815 234.693 196.366 235.203 196.18C235.669 196.011 236.281 196.208 236.666 196.452C237.005 196.668 237.606 196.754 237.755 197.17C237.95 197.71 237.716 198.571 237.655 199.104C237.571 199.849 237.249 200.509 237.02 201.22C236.891 201.622 236.97 202.056 236.838 202.437C236.509 203.386 236.548 204.605 236.548 205.607C236.548 205.998 236.384 206.351 236.384 206.76C236.384 207.193 236.447 207.667 236.257 208.068C236.139 208.317 236.114 208.623 235.975 208.844C235.813 209.105 235.459 209.411 235.403 209.703C235.326 210.108 235.077 210.524 234.949 210.929C234.859 211.215 234.807 211.511 234.731 211.8C234.663 212.061 234.43 212.148 234.422 212.454C234.415 212.776 234.23 212.936 234.059 213.199C233.592 213.921 233.63 214.817 233.237 215.551C233.074 215.856 232.999 216.257 232.869 216.587C232.714 216.983 232.557 217.442 232.479 217.858C232.386 218.353 232.046 218.637 231.793 219.016C231.722 219.123 231.561 219.131 231.48 219.238C231.355 219.405 231.261 219.61 231.194 219.806C231.004 220.362 230.824 220.931 230.585 221.468C230.455 221.761 230.604 222.146 230.445 222.408C230.137 222.913 229.756 223.523 229.582 224.088C229.379 224.746 228.641 225.138 228.379 225.75C228.305 225.922 228.096 226.014 227.983 226.159C227.703 226.519 227.667 226.816 227.52 227.203C227.281 227.836 227.134 228.5 226.576 228.947" stroke="#19C788" stroke-linecap="round"/>
<path d="M226.576 229.519C226.126 230.318 225.683 231.294 225.005 231.926C223.962 232.896 223.84 234.61 223.288 235.858C223.044 236.411 222.565 236.846 222.221 237.338C222.124 237.476 222.014 237.737 221.88 237.838C221.627 238.03 221.236 238.398 221.108 238.732C220.32 240.803 218.802 242.524 217.258 244.068" stroke="#19C788" stroke-linecap="round"/>
<path d="M203.199 224.533C202.602 224.64 202.1 224.784 201.547 225.023C201.179 225.182 200.84 225.271 200.466 225.396C200.042 225.537 199.749 225.861 199.403 226.118C199.095 226.346 198.919 226.771 198.613 226.967C198.155 227.26 197.596 227.321 197.115 227.553C196.796 227.706 196.455 227.84 196.125 227.966C195.959 228.029 195.893 228.173 195.743 228.247C195.514 228.362 195.243 228.37 195.008 228.474C193.234 229.266 192.292 231.615 190.276 231.93C189.811 232.003 189.398 232.205 188.932 232.28C188.224 232.393 187.673 232.553 186.998 232.834C185.919 233.282 184.94 234.065 184.064 234.832C183.199 235.589 182.025 235.962 181.095 236.63C180.707 236.908 180.355 237.237 179.968 237.511C179.702 237.7 179.437 237.794 179.228 238.06C178.886 238.498 178.576 238.971 178.188 239.372C177.657 239.922 177.009 240.301 176.408 240.78C175.752 241.304 174.86 241.918 174.356 242.606C174.199 242.819 174.152 243.077 174.056 243.318C173.938 243.618 173.69 243.813 173.484 244.05C173.265 244.302 173.046 244.604 172.88 244.894C172.432 245.679 172.09 246.598 171.55 247.319C171.247 247.723 170.959 248.187 170.869 248.69C170.735 249.436 170.424 250.079 170.424 250.852" stroke="#19C788" stroke-linecap="round"/>
<path d="M170.424 250.852C170.172 251.369 169.992 252.024 169.624 252.468C169.503 252.614 169.534 252.832 169.361 252.941C169.17 253.06 169.108 253.175 169.007 253.395C168.884 253.661 168.884 253.979 168.871 254.266C168.855 254.616 168.718 254.941 168.707 255.293C168.693 255.758 168.707 256.226 168.707 256.691C168.707 257.221 168.647 257.792 168.789 258.308C168.914 258.763 169.202 259.116 169.379 259.543C169.457 259.73 169.66 259.842 169.733 260.042C169.836 260.326 169.901 260.645 169.951 260.942C170.033 261.422 170.178 261.797 170.178 262.29C170.178 262.935 170.828 263.387 171.245 263.857C171.528 264.174 171.799 264.512 172.049 264.856C172.126 264.962 172.113 265.021 172.149 265.146C172.187 265.279 172.342 265.193 172.385 265.323C172.752 266.423 174.438 266.318 174.919 267.281" stroke="#19C788" stroke-linecap="round"/>
<path d="M167.871 262.098C167.184 262.098 166.927 261.394 166.787 260.777C166.612 260.009 166.166 259.224 166.132 258.447C166.095 257.611 165.745 256.851 165.745 255.988C165.745 255.372 165.745 254.757 165.745 254.141C165.745 253.074 165.745 252.008 165.745 250.941C165.745 250.007 165.943 249.126 166.057 248.203C166.136 247.554 166.184 246.92 166.363 246.286C166.481 245.864 166.686 245.455 166.765 245.024C166.889 244.354 166.891 243.683 167.093 243.027C167.274 242.438 167.744 242.182 168.113 241.701C168.416 241.305 168.726 240.766 168.891 240.299C169.094 239.728 169.252 239.572 169.6 239.107C169.902 238.705 170.303 238.713 170.674 238.452C171.04 238.196 171.26 237.645 171.447 237.261C171.582 236.983 171.786 236.839 171.882 236.53C171.995 236.167 172.088 236.009 172.263 235.714C172.609 235.132 173.32 234.98 173.81 234.549C174.151 234.248 174.331 233.822 174.518 233.416C174.637 233.16 174.968 232.979 175.125 232.718C175.406 232.249 176.182 231.48 176.741 231.344C177.426 231.176 178.271 230.6 178.695 230.023C178.899 229.747 178.982 229.38 179.222 229.132C179.387 228.96 179.615 228.947 179.812 228.842C180.004 228.739 180.128 228.578 180.36 228.563C180.515 228.552 180.676 228.607 180.773 228.455C181.159 227.855 181.394 227.574 181.987 227.167C182.408 226.877 182.979 226.835 183.372 226.533C183.816 226.192 184.198 225.529 184.542 225.083C184.94 224.569 185.994 223.557 186.663 223.537C188.053 223.496 189.038 222.389 189.906 221.459C190.137 221.212 190.491 221.35 190.797 221.293C191.227 221.213 191.372 221.173 191.694 220.826C192.005 220.491 192.297 220.125 192.709 219.908C193.078 219.712 193.191 219.363 193.503 219.113C193.594 219.04 193.978 218.955 194.105 218.909C194.319 218.831 194.665 218.898 194.889 218.898C195.486 218.898 196.07 218.415 196.72 218.415C197.036 218.415 197.264 218.296 197.562 218.2C197.795 218.125 198.054 218.175 198.271 218.077C198.478 217.983 198.86 217.938 199.087 217.932C199.457 217.921 199.711 217.738 200.086 217.738C201.324 217.738 202.371 217.255 203.619 217.255C204.59 217.255 205.579 217.159 206.529 217.159" stroke="#19C788" stroke-linecap="round"/>
<path d="M167.775 261.808C167.775 262.679 168.429 263.388 169.224 263.741C169.918 264.049 170.537 265.242 170.91 265.856C171.244 266.406 171.809 266.619 172.242 267.005C172.735 267.445 173.591 267.326 174.153 267.607" stroke="#19C788" stroke-linecap="round"/>
<path d="M266.434 178.338C266.434 180.03 266.434 181.722 266.434 183.414C266.434 184.057 265.945 184.643 265.909 185.262C265.864 186.047 265.686 186.763 265.571 187.511C265.391 188.681 264.557 189.586 264.447 190.746C264.383 191.412 264.003 192.107 263.753 192.756C263.444 193.561 263.149 194.29 262.926 195.14C262.819 195.543 262.793 196.401 262.529 196.719C262.177 197.145 261.868 197.524 261.737 198.048C261.58 198.677 261.297 199.271 261.177 199.901C261.029 200.678 260.869 201.516 260.402 202.163C260.155 202.505 259.992 203.035 259.942 203.45C259.879 203.966 259.645 204.222 259.429 204.692C259.222 205.142 258.78 205.527 258.683 206.015C258.622 206.321 258.552 206.603 258.38 206.871C257.973 207.505 258 208.291 257.815 208.969C257.567 209.878 257.062 210.719 256.731 211.604C256.585 211.992 256.344 212.342 256.218 212.734C256.1 213.099 255.815 213.438 255.734 213.795C255.563 214.548 254.522 215.184 254.056 215.753C253.732 216.147 253.438 216.702 253.193 217.152C252.901 217.689 252.509 218.112 252.266 218.673C252.127 218.996 252.035 219.494 251.829 219.774C251.562 220.138 251.229 220.442 250.967 220.817C250.49 221.498 249.745 222.119 249.463 222.921C249.366 223.197 249.202 223.436 249.125 223.725C249.013 224.146 248.739 224.396 248.624 224.786C248.528 225.11 248.302 225.376 248.135 225.672C247.924 226.043 247.793 226.582 247.505 226.896C247.232 227.193 247.099 227.555 246.771 227.817C246.321 228.174 246.152 228.424 245.914 228.901C245.522 229.685 245.419 230.532 245.162 231.372C245.053 231.728 244.508 232.231 244.259 232.502C244.039 232.741 243.766 232.981 243.496 233.155C243.043 233.446 242.643 233.803 242.196 234.111C241.93 234.293 241.506 234.969 241.467 235.276C241.359 236.148 240.593 236.684 240.121 237.38C239.548 238.226 238.94 239.117 238.087 239.705C237.331 240.227 236.77 240.947 236.351 241.757C235.99 242.454 235.678 243.141 235.232 243.791C234.873 244.313 234.066 245.081 233.443 245.259C232.491 245.531 231.885 246.56 231.176 247.2C230.594 247.725 229.972 248.572 229.194 248.832" stroke="#19C788" stroke-linecap="round"/>
<path d="M229.299 249.042C228.602 249.042 228.31 249.587 227.784 249.927C227.535 250.088 227.36 250.473 227.201 250.72C226.988 251.052 226.615 251.211 226.42 251.513C226.12 251.977 225.621 252.293 225.214 252.666C224.577 253.25 223.726 254.044 222.9 254.339C222.631 254.435 222.405 254.397 222.171 254.601C221.942 254.802 221.779 255.067 221.525 255.236C221.081 255.532 220.724 255.925 220.382 256.332C220.144 256.616 219.79 257.172 219.438 257.323C219.089 257.473 218.219 257.76 217.975 258.028C217.385 258.677 216.702 259.228 215.825 259.473C215.549 259.551 215.35 259.583 215.091 259.695C214.792 259.824 214.459 259.623 214.24 259.928C214.045 260.199 213.808 260.234 213.54 260.417C213.141 260.692 212.998 261.161 212.643 261.466C212.077 261.954 211.308 262.348 210.627 262.679C210.083 262.943 209.322 262.931 208.808 263.25C208.255 263.593 207.785 263.968 207.27 264.38C206.616 264.903 206.118 265.704 205.323 266.012C204.301 266.409 203.311 266.81 202.281 267.236C201.164 267.698 199.938 268.082 198.878 268.658C198.4 268.917 197.898 268.958 197.502 269.346C197.192 269.649 196.656 270.323 196.243 270.435C195.406 270.664 194.637 270.861 193.772 270.861C193.137 270.861 192.394 270.754 191.774 270.873C190.945 271.03 190.216 271.176 189.378 271.176C188.086 271.176 186.882 270.966 185.608 270.966C184.112 270.966 182.64 270.861 181.144 270.861C180.273 270.861 178.435 271.182 177.688 270.604C177.028 270.095 176.07 269.888 175.357 269.439C175.013 269.223 174.498 268.948 174.144 268.786C173.976 268.709 173.995 268.49 173.841 268.39C173.678 268.283 173.456 268.143 173.282 268.052C172.896 267.849 172.553 267.871 172.233 267.551C172.107 267.425 171.918 267.457 171.813 267.353C171.638 267.178 171.762 266.962 171.499 266.875" stroke="#19C788" stroke-linecap="round"/>
<path d="M229 112.497C229 158.832 193.468 170 129.576 170C65.684 170 32 135.737 32 89.4016C32 43.0661 57.5527 63.478 121.445 63.478C185.337 63.478 229 66.1614 229 112.497Z" fill="#0085DF"/>
<path d="M95.7305 106.602V115H93.1523V104.434H95.584L95.7305 106.602ZM95.3496 109.336H94.5586C94.5586 108.6 94.6465 107.923 94.8223 107.305C95.0046 106.686 95.2715 106.149 95.623 105.693C95.9746 105.231 96.4076 104.873 96.9219 104.619C97.4427 104.365 98.0449 104.238 98.7285 104.238C99.2038 104.238 99.64 104.31 100.037 104.453C100.434 104.59 100.776 104.808 101.062 105.107C101.355 105.4 101.58 105.785 101.736 106.26C101.893 106.729 101.971 107.292 101.971 107.949V115H99.3926V108.213C99.3926 107.718 99.321 107.331 99.1777 107.051C99.041 106.771 98.8424 106.576 98.582 106.465C98.3216 106.348 98.0091 106.289 97.6445 106.289C97.2409 106.289 96.8926 106.37 96.5996 106.533C96.3132 106.689 96.0755 106.908 95.8867 107.188C95.7044 107.467 95.5677 107.79 95.4766 108.154C95.3919 108.519 95.3496 108.913 95.3496 109.336ZM101.775 108.857L100.711 109.053C100.717 108.389 100.809 107.767 100.984 107.188C101.16 106.602 101.417 106.09 101.756 105.654C102.101 105.212 102.527 104.867 103.035 104.619C103.549 104.365 104.142 104.238 104.812 104.238C105.333 104.238 105.802 104.313 106.219 104.463C106.642 104.606 107.003 104.837 107.303 105.156C107.602 105.469 107.83 105.876 107.986 106.377C108.149 106.878 108.23 107.49 108.23 108.213V115H105.633V108.203C105.633 107.689 105.561 107.295 105.418 107.021C105.281 106.748 105.083 106.559 104.822 106.455C104.562 106.344 104.256 106.289 103.904 106.289C103.546 106.289 103.234 106.357 102.967 106.494C102.706 106.624 102.485 106.807 102.303 107.041C102.127 107.275 101.993 107.549 101.902 107.861C101.818 108.167 101.775 108.499 101.775 108.857ZM113.301 113.828L116.133 104.434H118.896L114.658 116.602C114.56 116.862 114.433 117.145 114.277 117.451C114.127 117.757 113.926 118.047 113.672 118.32C113.418 118.6 113.099 118.828 112.715 119.004C112.337 119.18 111.878 119.268 111.338 119.268C111.103 119.268 110.895 119.251 110.713 119.219C110.53 119.186 110.338 119.144 110.137 119.092V117.158C110.202 117.165 110.277 117.168 110.361 117.168C110.452 117.174 110.53 117.178 110.596 117.178C110.973 117.178 111.286 117.132 111.533 117.041C111.78 116.956 111.979 116.816 112.129 116.621C112.285 116.432 112.415 116.185 112.519 115.879L113.301 113.828ZM111.904 104.434L114.297 112.217L114.717 114.941L112.939 115.264L109.121 104.434H111.904ZM127.386 112.461L129.701 104.434H131.341L130.853 107.207L128.519 115H127.103L127.386 112.461ZM126.107 104.434L127.845 112.48L128.001 115H126.371L123.597 104.434H126.107ZM133.49 112.363L135.189 104.434H137.689L134.935 115H133.304L133.49 112.363ZM131.595 104.434L133.89 112.383L134.193 115H132.777L130.423 107.207L129.945 104.434H131.595ZM138.413 109.824V109.619C138.413 108.844 138.524 108.132 138.745 107.48C138.967 106.823 139.289 106.253 139.712 105.771C140.135 105.29 140.653 104.915 141.265 104.648C141.877 104.375 142.574 104.238 143.355 104.238C144.149 104.238 144.852 104.375 145.464 104.648C146.083 104.915 146.604 105.29 147.027 105.771C147.45 106.253 147.772 106.823 147.994 107.48C148.215 108.132 148.326 108.844 148.326 109.619V109.824C148.326 110.592 148.215 111.305 147.994 111.963C147.772 112.614 147.45 113.184 147.027 113.672C146.604 114.154 146.086 114.528 145.474 114.795C144.862 115.062 144.162 115.195 143.374 115.195C142.593 115.195 141.893 115.062 141.275 114.795C140.656 114.528 140.135 114.154 139.712 113.672C139.289 113.184 138.967 112.614 138.745 111.963C138.524 111.305 138.413 110.592 138.413 109.824ZM140.992 109.619V109.824C140.992 110.286 141.037 110.719 141.128 111.123C141.219 111.527 141.359 111.882 141.548 112.188C141.737 112.493 141.981 112.734 142.281 112.91C142.587 113.079 142.951 113.164 143.374 113.164C143.791 113.164 144.149 113.079 144.449 112.91C144.748 112.734 144.992 112.493 145.181 112.188C145.376 111.882 145.52 111.527 145.611 111.123C145.702 110.719 145.747 110.286 145.747 109.824V109.619C145.747 109.163 145.702 108.737 145.611 108.34C145.52 107.936 145.376 107.581 145.181 107.275C144.992 106.963 144.745 106.719 144.439 106.543C144.139 106.361 143.778 106.27 143.355 106.27C142.938 106.27 142.58 106.361 142.281 106.543C141.981 106.719 141.737 106.963 141.548 107.275C141.359 107.581 141.219 107.936 141.128 108.34C141.037 108.737 140.992 109.163 140.992 109.619ZM152.439 106.592V115H149.861V104.434H152.302L152.439 106.592ZM155.652 104.365L155.612 106.768C155.469 106.742 155.307 106.722 155.124 106.709C154.948 106.696 154.782 106.689 154.626 106.689C154.229 106.689 153.881 106.745 153.581 106.855C153.282 106.96 153.031 107.113 152.829 107.314C152.634 107.516 152.484 107.764 152.38 108.057C152.276 108.343 152.217 108.669 152.204 109.033L151.648 108.965C151.648 108.294 151.716 107.673 151.853 107.1C151.989 106.527 152.188 106.025 152.448 105.596C152.709 105.166 153.034 104.834 153.425 104.6C153.822 104.359 154.278 104.238 154.792 104.238C154.935 104.238 155.088 104.251 155.251 104.277C155.42 104.297 155.554 104.326 155.652 104.365ZM159.306 99.9902V115H156.728V99.9902H159.306ZM165.927 104.434L161.327 109.6L158.837 112.129L158.017 110.127L159.94 107.705L162.812 104.434H165.927ZM163.29 115L160.019 110.078L161.737 108.408L166.278 115H163.29Z" fill="white"/>
</svg>
