<svg width="412" height="892" viewBox="0 0 412 892" fill="none" xmlns="http://www.w3.org/2000/svg">
<g clip-path="url(#clip0_554_701)">
<rect width="412" height="892" fill="white"/>
<g clip-path="url(#clip1_554_701)">
<rect width="412" height="371.903" fill="#FEF5F6"/>
<path d="M214.566 121.82L232.162 109.105L254.278 122.918L230.653 140.562L205.206 130.898L214.566 121.82Z" fill="#ECCFB2"/>
<path d="M214.522 122.171C187.954 123.875 168.591 114.721 168.591 114.721L131.471 98.0707L127.443 107.07L123.415 116.068L160.536 132.719C160.536 132.719 180.247 141.091 196.662 162.076C213.077 183.061 225.835 190.194 247.328 199.831L311.411 228.573C317.884 231.478 325.486 228.576 328.384 222.096L337.662 201.363L346.94 180.63C349.842 174.15 346.943 166.539 340.47 163.637L276.387 134.895C254.895 125.255 241.086 120.47 214.519 122.177L214.522 122.171Z" fill="#331818"/>
<path d="M132.341 96.1111L122.364 118.41L130.57 122.09L140.547 99.7911L132.341 96.1111Z" fill="#94886C"/>
<path d="M128.946 97.4061L121.07 115.01L123.414 116.061L131.29 98.4572L128.946 97.4061Z" fill="#94886C"/>
<path d="M139.671 101.743L131.618 119.74L156.497 130.897L164.549 112.901L139.671 101.743Z" fill="#602D2D"/>
<g opacity="0.1">
<path d="M258.168 127.431C258.168 127.431 344.276 165.101 328.914 220.922L337.665 201.36L346.943 180.627C349.845 174.147 346.946 166.536 340.473 163.634L276.39 134.892C269.789 131.931 263.913 129.431 258.168 127.433V127.431Z" fill="black"/>
</g>
<g opacity="0.05">
<path d="M173.219 137.935C173.219 137.935 199.049 150.459 210.418 142.878C221.787 135.293 203.822 168.103 237.053 192.402C237.053 192.402 214.779 182.414 202.57 165.663C189.797 148.14 182.856 143.668 173.221 137.938L173.219 137.935Z" fill="white"/>
</g>
<g opacity="0.1">
<path d="M131.623 119.749L145.148 104.206L139.675 101.752L131.623 119.749Z" fill="black"/>
</g>
<path d="M48.8672 236.996C67.2827 244.305 88.6056 236.457 97.8221 218.36C99.2056 215.642 100.241 212.84 100.946 210.005L115.109 155.871L111.493 154.026L110.847 153.698L91.7967 143.976L73.2174 134.494L72.0825 133.914L68.9762 132.33L33.5404 175.605C31.6626 177.843 30.0042 180.329 28.6236 183.046C19.4948 200.977 25.4763 222.623 41.8531 233.359L25.1487 266.165C20.3109 264.3 11.4746 261.304 1.43615 259.901L0 262.721L25.1078 275.536L50.2156 288.35L51.6517 285.53C44.3745 277.966 36.4742 272.444 32.2154 269.711L48.8701 237.004L48.8672 236.996Z" fill="#DFE6E5"/>
<path d="M98.0441 203.545L40.4664 174.159L37.8427 177.336C36.193 179.301 34.7393 181.483 33.5255 183.869C24.9378 200.734 31.5775 221.343 48.3521 229.906C65.1267 238.469 85.6891 231.739 94.2767 214.875C95.4906 212.491 96.4003 210.028 97.0203 207.539L98.047 203.545H98.0441Z" fill="#602D2D"/>
<g opacity="0.1">
<path d="M97.8221 218.36C99.2056 215.642 100.241 212.84 100.946 210.005L108.811 179.951C108.811 179.951 84.0017 237.959 24.9908 207.841C26.8569 218.043 32.7478 227.385 41.8531 233.356L25.1487 266.162C20.3109 264.297 11.4746 261.301 1.43615 259.898L0 262.718L25.1078 275.533L50.2156 288.348L51.6517 285.527C44.3745 277.964 36.4742 272.441 32.2154 269.708L48.8701 237.002C67.2856 244.311 88.6085 236.463 97.825 218.365L97.8221 218.36Z" fill="black"/>
</g>
<path d="M49.7124 163.634L66.2998 143.797C68.9761 140.597 73.5069 139.671 77.2245 141.569L83.7822 144.916C83.7822 144.916 70.266 141.273 49.7124 163.637V163.634Z" fill="#F2FAF9"/>
<g opacity="0.1">
<path d="M51.6489 285.525C44.5939 278.192 36.9539 272.777 32.6104 269.963C32.6162 269.966 43.2864 277.855 45.6381 286.008L50.2127 288.342L51.6489 285.522V285.525Z" fill="black"/>
</g>
<path d="M43.4561 265.31L35.5587 247.74V228.465L41.9936 232.512L45.7434 245.292L84.4054 227.534L88.2078 231.927L62.7607 265.31L68.0257 338.812H33.8037L43.4561 265.31Z" fill="#ECCFB2"/>
<path d="M22.104 371.903L29.7089 301.329L73.5832 308.357L81.188 371.903H22.104Z" fill="#293A53"/>
<path d="M52.8244 269.96L41.1158 268.824L40.2383 274.095L52.8156 275.852L52.8244 269.96Z" fill="#ABABAB"/>
<path d="M59.9816 282.588C64.5855 282.588 68.3177 278.851 68.3177 274.242C68.3177 269.632 64.5855 265.896 59.9816 265.896C55.3777 265.896 51.6455 269.632 51.6455 274.242C51.6455 278.851 55.3777 282.588 59.9816 282.588Z" fill="#7A7A7A"/>
<path d="M67.455 277.541C69.3609 273.977 68.0196 269.54 64.4591 267.632C60.8986 265.724 56.4672 267.067 54.5613 270.631C52.6554 274.196 53.9967 278.632 57.5572 280.541C61.1177 282.449 65.5491 281.106 67.455 277.541Z" fill="#BFBFBF"/>
<path d="M32.3413 301.622L33.8038 292.837L70.3657 301.329L71.3455 308L32.3413 301.622Z" fill="#D4D4D4"/>
<path d="M202.758 169.421L174.786 159.596L160.747 139.976L167.181 121.82H180.929L202.758 169.421Z" fill="#ECCFB2"/>
<path d="M281.84 135.876L218.368 170.724L234.663 199.012L287.336 222.679L345.311 165.16L281.84 135.876Z" fill="#CFCFCF"/>
<path d="M357.771 91.6959L283.302 132.069L256.448 157.444L248.495 197.372L267.8 203.229L297.634 173.652L308.457 145.54L389.068 124.494L357.771 91.6959Z" fill="#ECCFB2"/>
<path d="M314.014 115.378L338.452 139.13L353.954 135.03L330.101 106.592L314.014 115.378Z" fill="#DEDEDE"/>
<path d="M232.115 109.228L258.147 125.334L269.362 117.325L238.035 96.6509L232.115 109.228Z" fill="#DEDEDE"/>
<path d="M395.328 0H318.694L294.709 35.1404L241.768 81.4086L238.035 96.6508L269.362 117.325L281.839 114.499L345.896 62.6671L395.328 0Z" fill="#D4D4D4"/>
<path d="M410.537 61.203L337.998 91.658L330.101 106.593L354.086 134.998L369.295 135.876L412 125.826V59.5016L410.537 61.203Z" fill="#D4D4D4"/>
<path d="M93.4172 123.245C96.199 121.766 97.2561 118.308 95.7782 115.523C94.3003 112.738 90.8471 111.68 88.0653 113.16C85.2834 114.639 84.2264 118.096 85.7043 120.882C87.1822 123.667 90.6353 124.725 93.4172 123.245Z" fill="#BD8888"/>
<g opacity="0.65">
<path d="M90.349 113.082C90.6094 113.284 90.6532 113.662 90.4514 113.92C90.2495 114.18 89.8721 114.224 89.6146 114.022C89.3542 113.82 89.3103 113.442 89.5122 113.185C89.7141 112.924 90.0915 112.88 90.349 113.082Z" fill="#FFFCF2"/>
<path d="M88.9448 121.566C88.9273 121.557 88.9127 121.545 88.8951 121.536C88.9361 121.56 88.9741 121.583 89.015 121.607C88.6055 121.367 88.2312 121.074 87.8977 120.737L87.9942 120.837C87.6988 120.532 87.4414 120.189 87.2337 119.817C87.2542 119.856 87.2776 119.897 87.2981 119.935C87.1167 119.604 86.9734 119.252 86.8828 118.886C86.8945 118.93 86.9032 118.971 86.9149 119.015C86.8301 118.681 86.7892 118.336 86.7921 117.99V118.125C86.7921 117.785 86.8418 117.448 86.9296 117.12L86.8944 117.252C86.9939 116.889 87.1431 116.541 87.3332 116.216C87.3098 116.257 87.2864 116.295 87.263 116.336C87.4882 115.955 87.769 115.609 88.0849 115.299L87.9855 115.396C88.2399 115.15 88.5149 114.924 88.8074 114.722C89.0414 114.561 89.0823 114.215 88.9156 113.99C88.743 113.756 88.4184 113.718 88.1844 113.882C87.5672 114.309 87.0027 114.839 86.5844 115.463C86.1983 116.034 85.9292 116.672 85.8122 117.352C85.5958 118.605 85.9643 119.902 86.7043 120.921C87.1899 121.589 87.8275 122.116 88.5383 122.526C88.6494 122.591 88.8191 122.573 88.9331 122.529C89.0618 122.476 89.1701 122.374 89.2227 122.245C89.2754 122.119 89.2754 121.976 89.2256 121.85C89.1701 121.706 89.0706 121.633 88.9419 121.56L88.9448 121.566Z" fill="#FFFCF2"/>
</g>
<g opacity="0.1">
<path d="M89.3191 112.681C90.5329 112.693 91.7497 113.091 92.7793 113.899C95.2568 115.846 95.6926 119.434 93.7475 121.917C92.9402 122.948 91.8521 123.624 90.6763 123.926C92.3874 123.943 94.0868 123.191 95.2246 121.738C97.1697 119.258 96.7338 115.668 94.2564 113.72C92.8056 112.581 90.9775 112.259 89.3191 112.681Z" fill="black"/>
</g>
<path d="M71.328 102.417C73.1064 103.813 73.4193 106.39 72.0241 108.171C70.6289 109.951 68.055 110.265 66.2766 108.868C64.4982 107.471 64.1853 104.894 65.5805 103.114C66.9757 101.333 69.5496 101.02 71.328 102.417Z" fill="#BD8888"/>
<g opacity="0.65">
<path d="M68.5263 101.957C68.7136 102.103 68.7458 102.373 68.5995 102.56C68.4532 102.748 68.184 102.78 67.9968 102.634C67.8095 102.487 67.7774 102.218 67.9236 102.033C68.0699 101.846 68.3391 101.813 68.5263 101.96V101.957Z" fill="#FFFCF2"/>
<path d="M67.517 108.048C67.517 108.048 67.4936 108.033 67.4819 108.028C67.5112 108.045 67.5404 108.063 67.5697 108.077C67.2772 107.905 67.0052 107.697 66.7682 107.454C66.7916 107.477 66.815 107.501 66.8384 107.527C66.6249 107.307 66.4406 107.061 66.2915 106.795L66.3383 106.88C66.2066 106.642 66.1072 106.391 66.0399 106.127C66.0487 106.159 66.0545 106.189 66.0633 106.221C66.0048 105.981 65.9726 105.735 65.9756 105.486V105.582C65.9756 105.339 66.0107 105.096 66.075 104.862C66.0662 104.894 66.0575 104.924 66.0487 104.956C66.1189 104.695 66.2271 104.446 66.3646 104.212C66.347 104.241 66.3295 104.271 66.3149 104.3C66.4757 104.025 66.6776 103.779 66.9057 103.556C66.8823 103.579 66.8589 103.603 66.8326 103.626C67.0139 103.448 67.2128 103.29 67.4234 103.143C67.5901 103.026 67.6194 102.78 67.5024 102.619C67.3766 102.452 67.1456 102.423 66.9788 102.54C66.5372 102.847 66.1306 103.228 65.8293 103.676C65.5515 104.086 65.3584 104.543 65.2736 105.032C65.1186 105.931 65.3818 106.862 65.9141 107.594C66.2622 108.074 66.7214 108.452 67.2304 108.745C67.3094 108.792 67.4322 108.78 67.5141 108.745C67.6077 108.707 67.6837 108.634 67.7218 108.54C67.7598 108.449 67.7598 108.347 67.7218 108.256C67.6808 108.154 67.6106 108.101 67.517 108.048Z" fill="#FFFCF2"/>
</g>
<g opacity="0.1">
<path d="M67.7859 101.67C68.6575 101.679 69.5321 101.963 70.2692 102.543C72.0475 103.94 72.3605 106.517 70.9653 108.297C70.3862 109.035 69.6052 109.521 68.7599 109.738C69.9884 109.749 71.2081 109.211 72.0241 108.168C73.4193 106.388 73.1093 103.811 71.328 102.414C70.2867 101.597 68.9734 101.363 67.7859 101.667V101.67Z" fill="black"/>
</g>
<path d="M106.053 96.6408C110.578 93.6694 111.841 87.5879 108.873 83.0575C105.905 78.5271 99.8304 77.2633 95.3053 80.2347C90.7802 83.2061 89.5178 89.2875 92.4857 93.8179C95.4537 98.3483 101.528 99.6122 106.053 96.6408Z" fill="#BD8888"/>
<g opacity="0.65">
<path d="M100.019 79.6167C100.464 79.9653 100.543 80.6126 100.192 81.0578C99.8406 81.5031 99.197 81.5822 98.7523 81.2307C98.3076 80.8821 98.2286 80.2348 98.5796 79.7895C98.9307 79.3443 99.5744 79.2652 100.019 79.6167Z" fill="#FFFCF2"/>
<path d="M97.6087 94.1941C97.5795 94.1766 97.5502 94.1619 97.5239 94.1443C97.5941 94.1853 97.6614 94.2263 97.7316 94.2673C97.0296 93.8544 96.3832 93.3537 95.8128 92.7709C95.8684 92.8295 95.9239 92.8852 95.9795 92.9437C95.4706 92.4195 95.0289 91.8339 94.6721 91.1926L94.7861 91.3975C94.4732 90.8294 94.2304 90.2262 94.0695 89.5966C94.0871 89.6698 94.1075 89.7459 94.1251 89.8192C93.9818 89.2423 93.9086 88.6537 93.9145 88.0592V88.2876C93.9203 87.7049 93.9993 87.1251 94.1514 86.5599L94.09 86.7854C94.2626 86.1616 94.517 85.5642 94.8446 85.0049C94.8037 85.0752 94.7627 85.1425 94.7218 85.2128C95.1108 84.5569 95.5905 83.9624 96.1345 83.4295C96.076 83.4851 96.0205 83.5407 95.962 83.5964C96.3978 83.1718 96.8716 82.7881 97.3718 82.4397C97.7725 82.1615 97.8427 81.567 97.559 81.1834C97.2606 80.7822 96.7049 80.7178 96.3042 80.996C95.2453 81.731 94.2772 82.6417 93.5547 83.7135C92.8908 84.6974 92.4315 85.7897 92.2268 86.9611C91.8524 89.1134 92.4871 91.3448 93.7595 93.096C94.5931 94.2439 95.6899 95.1459 96.9126 95.8516C97.1027 95.9599 97.3952 95.9336 97.5882 95.8574C97.8105 95.7696 97.9919 95.591 98.0855 95.3684C98.1762 95.1546 98.1761 94.9086 98.0913 94.6919C97.9948 94.446 97.8222 94.3201 97.6029 94.1941H97.6087Z" fill="#FFFCF2"/>
</g>
<g opacity="0.1">
<path d="M98.2463 78.9314C100.332 78.9519 102.423 79.6342 104.193 81.0223C108.451 84.3665 109.194 90.5307 105.857 94.7944C104.471 96.5631 102.602 97.7257 100.58 98.244C103.52 98.2733 106.439 96.9819 108.393 94.4869C111.733 90.2232 110.987 84.056 106.729 80.7148C104.237 78.7586 101.095 78.2022 98.2493 78.9314H98.2463Z" fill="black"/>
</g>
<path d="M289.688 353.416C289.688 352.328 289.933 351.352 290.424 350.488C290.915 349.613 291.581 348.931 292.424 348.44C293.277 347.949 294.221 347.704 295.256 347.704C296.472 347.704 297.533 347.997 298.44 348.584C299.347 349.171 300.008 350.003 300.424 351.08H298.68C298.371 350.408 297.923 349.891 297.336 349.528C296.76 349.165 296.067 348.984 295.256 348.984C294.477 348.984 293.779 349.165 293.16 349.528C292.541 349.891 292.056 350.408 291.704 351.08C291.352 351.741 291.176 352.52 291.176 353.416C291.176 354.301 291.352 355.08 291.704 355.752C292.056 356.413 292.541 356.925 293.16 357.288C293.779 357.651 294.477 357.832 295.256 357.832C296.067 357.832 296.76 357.656 297.336 357.304C297.923 356.941 298.371 356.424 298.68 355.752H300.424C300.008 356.819 299.347 357.645 298.44 358.232C297.533 358.808 296.472 359.096 295.256 359.096C294.221 359.096 293.277 358.856 292.424 358.376C291.581 357.885 290.915 357.208 290.424 356.344C289.933 355.48 289.688 354.504 289.688 353.416ZM306.415 359.144C305.594 359.144 304.847 358.957 304.175 358.584C303.514 358.211 302.991 357.683 302.607 357C302.234 356.307 302.047 355.507 302.047 354.6C302.047 353.704 302.239 352.915 302.623 352.232C303.018 351.539 303.551 351.011 304.223 350.648C304.895 350.275 305.647 350.088 306.479 350.088C307.311 350.088 308.063 350.275 308.735 350.648C309.407 351.011 309.935 351.533 310.319 352.216C310.714 352.899 310.911 353.693 310.911 354.6C310.911 355.507 310.709 356.307 310.303 357C309.909 357.683 309.37 358.211 308.687 358.584C308.005 358.957 307.247 359.144 306.415 359.144ZM306.415 357.864C306.938 357.864 307.429 357.741 307.887 357.496C308.346 357.251 308.714 356.883 308.991 356.392C309.279 355.901 309.423 355.304 309.423 354.6C309.423 353.896 309.285 353.299 309.007 352.808C308.73 352.317 308.367 351.955 307.919 351.72C307.471 351.475 306.986 351.352 306.463 351.352C305.93 351.352 305.439 351.475 304.991 351.72C304.554 351.955 304.202 352.317 303.935 352.808C303.669 353.299 303.535 353.896 303.535 354.6C303.535 355.315 303.663 355.917 303.919 356.408C304.186 356.899 304.538 357.267 304.975 357.512C305.413 357.747 305.893 357.864 306.415 357.864ZM317.098 350.072C318.164 350.072 319.028 350.397 319.69 351.048C320.351 351.688 320.682 352.616 320.682 353.832V359H319.242V354.04C319.242 353.165 319.023 352.499 318.586 352.04C318.148 351.571 317.551 351.336 316.794 351.336C316.026 351.336 315.412 351.576 314.954 352.056C314.506 352.536 314.282 353.235 314.282 354.152V359H312.826V350.232H314.282V351.48C314.57 351.032 314.959 350.685 315.45 350.44C315.951 350.195 316.5 350.072 317.098 350.072ZM327.332 350.072C328.399 350.072 329.263 350.397 329.924 351.048C330.585 351.688 330.916 352.616 330.916 353.832V359H329.476V354.04C329.476 353.165 329.257 352.499 328.82 352.04C328.383 351.571 327.785 351.336 327.028 351.336C326.26 351.336 325.647 351.576 325.188 352.056C324.74 352.536 324.516 353.235 324.516 354.152V359H323.06V350.232H324.516V351.48C324.804 351.032 325.193 350.685 325.684 350.44C326.185 350.195 326.735 350.072 327.332 350.072ZM341.295 354.28C341.295 354.557 341.279 354.851 341.247 355.16H334.239C334.292 356.024 334.585 356.701 335.119 357.192C335.663 357.672 336.319 357.912 337.087 357.912C337.716 357.912 338.239 357.768 338.655 357.48C339.081 357.181 339.38 356.787 339.551 356.296H341.119C340.884 357.139 340.415 357.827 339.711 358.36C339.007 358.883 338.132 359.144 337.087 359.144C336.255 359.144 335.508 358.957 334.847 358.584C334.196 358.211 333.684 357.683 333.311 357C332.937 356.307 332.751 355.507 332.751 354.6C332.751 353.693 332.932 352.899 333.295 352.216C333.657 351.533 334.164 351.011 334.815 350.648C335.476 350.275 336.233 350.088 337.087 350.088C337.919 350.088 338.655 350.269 339.295 350.632C339.935 350.995 340.425 351.496 340.767 352.136C341.119 352.765 341.295 353.48 341.295 354.28ZM339.791 353.976C339.791 353.421 339.668 352.947 339.423 352.552C339.177 352.147 338.841 351.843 338.415 351.64C337.999 351.427 337.535 351.32 337.023 351.32C336.287 351.32 335.657 351.555 335.135 352.024C334.623 352.493 334.329 353.144 334.255 353.976H339.791ZM342.672 354.6C342.672 353.693 342.854 352.904 343.216 352.232C343.579 351.549 344.08 351.021 344.72 350.648C345.371 350.275 346.112 350.088 346.944 350.088C348.022 350.088 348.907 350.349 349.6 350.872C350.304 351.395 350.768 352.12 350.992 353.048H349.424C349.275 352.515 348.982 352.093 348.544 351.784C348.118 351.475 347.584 351.32 346.944 351.32C346.112 351.32 345.44 351.608 344.928 352.184C344.416 352.749 344.16 353.555 344.16 354.6C344.16 355.656 344.416 356.472 344.928 357.048C345.44 357.624 346.112 357.912 346.944 357.912C347.584 357.912 348.118 357.763 348.544 357.464C348.971 357.165 349.264 356.739 349.424 356.184H350.992C350.758 357.08 350.288 357.8 349.584 358.344C348.88 358.877 348 359.144 346.944 359.144C346.112 359.144 345.371 358.957 344.72 358.584C344.08 358.211 343.579 357.683 343.216 357C342.854 356.317 342.672 355.517 342.672 354.6ZM354.711 351.432V356.6C354.711 357.027 354.802 357.331 354.983 357.512C355.164 357.683 355.479 357.768 355.927 357.768H356.999V359H355.687C354.876 359 354.268 358.813 353.863 358.44C353.458 358.067 353.255 357.453 353.255 356.6V351.432H352.119V350.232H353.255V348.024H354.711V350.232H356.999V351.432H354.711ZM359.515 348.808C359.238 348.808 359.003 348.712 358.811 348.52C358.619 348.328 358.523 348.093 358.523 347.816C358.523 347.539 358.619 347.304 358.811 347.112C359.003 346.92 359.238 346.824 359.515 346.824C359.782 346.824 360.006 346.92 360.187 347.112C360.379 347.304 360.475 347.539 360.475 347.816C360.475 348.093 360.379 348.328 360.187 348.52C360.006 348.712 359.782 348.808 359.515 348.808ZM360.219 350.232V359H358.763V350.232H360.219ZM366.973 350.072C368.039 350.072 368.903 350.397 369.565 351.048C370.226 351.688 370.557 352.616 370.557 353.832V359H369.117V354.04C369.117 353.165 368.898 352.499 368.461 352.04C368.023 351.571 367.426 351.336 366.669 351.336C365.901 351.336 365.287 351.576 364.829 352.056C364.381 352.536 364.157 353.235 364.157 354.152V359H362.701V350.232H364.157V351.48C364.445 351.032 364.834 350.685 365.325 350.44C365.826 350.195 366.375 350.072 366.973 350.072ZM376.551 350.088C377.308 350.088 377.97 350.253 378.535 350.584C379.111 350.915 379.538 351.331 379.815 351.832V350.232H381.287V359.192C381.287 359.992 381.116 360.701 380.775 361.32C380.434 361.949 379.943 362.44 379.303 362.792C378.674 363.144 377.938 363.32 377.095 363.32C375.943 363.32 374.983 363.048 374.215 362.504C373.447 361.96 372.994 361.219 372.855 360.28H374.295C374.455 360.813 374.786 361.24 375.287 361.56C375.788 361.891 376.391 362.056 377.095 362.056C377.895 362.056 378.546 361.805 379.047 361.304C379.559 360.803 379.815 360.099 379.815 359.192V357.352C379.527 357.864 379.1 358.291 378.535 358.632C377.97 358.973 377.308 359.144 376.551 359.144C375.772 359.144 375.063 358.952 374.423 358.568C373.794 358.184 373.298 357.645 372.935 356.952C372.572 356.259 372.391 355.469 372.391 354.584C372.391 353.688 372.572 352.904 372.935 352.232C373.298 351.549 373.794 351.021 374.423 350.648C375.063 350.275 375.772 350.088 376.551 350.088ZM379.815 354.6C379.815 353.939 379.682 353.363 379.415 352.872C379.148 352.381 378.786 352.008 378.327 351.752C377.879 351.485 377.383 351.352 376.839 351.352C376.295 351.352 375.799 351.48 375.351 351.736C374.903 351.992 374.546 352.365 374.279 352.856C374.012 353.347 373.879 353.923 373.879 354.584C373.879 355.256 374.012 355.843 374.279 356.344C374.546 356.835 374.903 357.213 375.351 357.48C375.799 357.736 376.295 357.864 376.839 357.864C377.383 357.864 377.879 357.736 378.327 357.48C378.786 357.213 379.148 356.835 379.415 356.344C379.682 355.843 379.815 355.261 379.815 354.6ZM384.212 359.096C383.934 359.096 383.7 359 383.508 358.808C383.316 358.616 383.22 358.381 383.22 358.104C383.22 357.827 383.316 357.592 383.508 357.4C383.7 357.208 383.934 357.112 384.212 357.112C384.478 357.112 384.702 357.208 384.884 357.4C385.076 357.592 385.172 357.827 385.172 358.104C385.172 358.381 385.076 358.616 384.884 358.808C384.702 359 384.478 359.096 384.212 359.096ZM387.571 359.096C387.294 359.096 387.059 359 386.867 358.808C386.675 358.616 386.579 358.381 386.579 358.104C386.579 357.827 386.675 357.592 386.867 357.4C387.059 357.208 387.294 357.112 387.571 357.112C387.838 357.112 388.062 357.208 388.243 357.4C388.435 357.592 388.531 357.827 388.531 358.104C388.531 358.381 388.435 358.616 388.243 358.808C388.062 359 387.838 359.096 387.571 359.096ZM390.93 359.096C390.653 359.096 390.418 359 390.226 358.808C390.034 358.616 389.938 358.381 389.938 358.104C389.938 357.827 390.034 357.592 390.226 357.4C390.418 357.208 390.653 357.112 390.93 357.112C391.197 357.112 391.421 357.208 391.602 357.4C391.794 357.592 391.89 357.827 391.89 358.104C391.89 358.381 391.794 358.616 391.602 358.808C391.421 359 391.197 359.096 390.93 359.096Z" fill="black"/>
</g>
<rect y="371" width="412" height="10" fill="#F4DEE3"/>
<path d="M66.512 436.248C68.272 436.248 69.816 436.592 71.144 437.28C72.488 437.968 73.52 438.952 74.24 440.232C74.976 441.496 75.344 442.968 75.344 444.648C75.344 446.328 74.976 447.8 74.24 449.064C73.52 450.312 72.488 451.28 71.144 451.968C69.816 452.656 68.272 453 66.512 453H60.656V436.248H66.512ZM66.392 450.144C68.152 450.144 69.512 449.664 70.472 448.704C71.432 447.744 71.912 446.392 71.912 444.648C71.912 442.904 71.432 441.544 70.472 440.568C69.512 439.576 68.152 439.08 66.392 439.08H64.016V450.144H66.392ZM81.2191 441.768C81.6511 441.064 82.2111 440.512 82.8991 440.112C83.6031 439.712 84.4031 439.512 85.2991 439.512V443.04H84.4111C83.3551 443.04 82.5551 443.288 82.0111 443.784C81.4831 444.28 81.2191 445.144 81.2191 446.376V453H77.8591V439.704H81.2191V441.768ZM89.2663 438.12C88.6743 438.12 88.1783 437.936 87.7783 437.568C87.3943 437.184 87.2023 436.712 87.2023 436.152C87.2023 435.592 87.3943 435.128 87.7783 434.76C88.1783 434.376 88.6743 434.184 89.2663 434.184C89.8583 434.184 90.3463 434.376 90.7303 434.76C91.1303 435.128 91.3303 435.592 91.3303 436.152C91.3303 436.712 91.1303 437.184 90.7303 437.568C90.3463 437.936 89.8583 438.12 89.2663 438.12ZM90.9223 439.704V453H87.5623V439.704H90.9223ZM101.61 439.512C103.194 439.512 104.474 440.016 105.45 441.024C106.426 442.016 106.914 443.408 106.914 445.2V453H103.554V445.656C103.554 444.6 103.29 443.792 102.762 443.232C102.234 442.656 101.514 442.368 100.602 442.368C99.6739 442.368 98.9379 442.656 98.3939 443.232C97.8659 443.792 97.6019 444.6 97.6019 445.656V453H94.2419V439.704H97.6019V441.36C98.0499 440.784 98.6179 440.336 99.3059 440.016C100.01 439.68 100.778 439.512 101.61 439.512ZM117.981 453L113.469 447.336V453H110.109V435.24H113.469V445.344L117.933 439.704H122.301L116.445 446.376L122.349 453H117.981ZM133.204 441.768C133.636 441.064 134.196 440.512 134.884 440.112C135.588 439.712 136.388 439.512 137.284 439.512V443.04H136.396C135.34 443.04 134.54 443.288 133.996 443.784C133.468 444.28 133.204 445.144 133.204 446.376V453H129.844V439.704H133.204V441.768ZM151.907 446.064C151.907 446.544 151.875 446.976 151.811 447.36H142.091C142.171 448.32 142.507 449.072 143.099 449.616C143.691 450.16 144.419 450.432 145.283 450.432C146.531 450.432 147.419 449.896 147.947 448.824H151.571C151.187 450.104 150.451 451.16 149.363 451.992C148.275 452.808 146.939 453.216 145.355 453.216C144.075 453.216 142.923 452.936 141.899 452.376C140.891 451.8 140.099 450.992 139.523 449.952C138.963 448.912 138.683 447.712 138.683 446.352C138.683 444.976 138.963 443.768 139.523 442.728C140.083 441.688 140.867 440.888 141.875 440.328C142.883 439.768 144.043 439.488 145.355 439.488C146.619 439.488 147.747 439.76 148.739 440.304C149.747 440.848 150.523 441.624 151.067 442.632C151.627 443.624 151.907 444.768 151.907 446.064ZM148.427 445.104C148.411 444.24 148.099 443.552 147.491 443.04C146.883 442.512 146.139 442.248 145.259 442.248C144.427 442.248 143.723 442.504 143.147 443.016C142.587 443.512 142.243 444.208 142.115 445.104H148.427ZM159.447 453.216C158.359 453.216 157.383 453.024 156.519 452.64C155.655 452.24 154.967 451.704 154.455 451.032C153.959 450.36 153.687 449.616 153.639 448.8H157.023C157.087 449.312 157.335 449.736 157.767 450.072C158.215 450.408 158.767 450.576 159.423 450.576C160.063 450.576 160.559 450.448 160.911 450.192C161.279 449.936 161.463 449.608 161.463 449.208C161.463 448.776 161.239 448.456 160.791 448.248C160.359 448.024 159.663 447.784 158.703 447.528C157.711 447.288 156.895 447.04 156.255 446.784C155.631 446.528 155.087 446.136 154.623 445.608C154.175 445.08 153.951 444.368 153.951 443.472C153.951 442.736 154.159 442.064 154.575 441.456C155.007 440.848 155.615 440.368 156.399 440.016C157.199 439.664 158.135 439.488 159.207 439.488C160.791 439.488 162.055 439.888 162.999 440.688C163.943 441.472 164.463 442.536 164.559 443.88H161.343C161.295 443.352 161.071 442.936 160.671 442.632C160.287 442.312 159.767 442.152 159.111 442.152C158.503 442.152 158.031 442.264 157.695 442.488C157.375 442.712 157.215 443.024 157.215 443.424C157.215 443.872 157.439 444.216 157.887 444.456C158.335 444.68 159.031 444.912 159.975 445.152C160.935 445.392 161.727 445.64 162.351 445.896C162.975 446.152 163.511 446.552 163.959 447.096C164.423 447.624 164.663 448.328 164.679 449.208C164.679 449.976 164.463 450.664 164.031 451.272C163.615 451.88 163.007 452.36 162.207 452.712C161.423 453.048 160.503 453.216 159.447 453.216ZM170.797 441.624C171.229 441.016 171.821 440.512 172.573 440.112C173.341 439.696 174.213 439.488 175.189 439.488C176.325 439.488 177.349 439.768 178.261 440.328C179.189 440.888 179.917 441.688 180.445 442.728C180.989 443.752 181.261 444.944 181.261 446.304C181.261 447.664 180.989 448.872 180.445 449.928C179.917 450.968 179.189 451.776 178.261 452.352C177.349 452.928 176.325 453.216 175.189 453.216C174.213 453.216 173.349 453.016 172.597 452.616C171.861 452.216 171.261 451.712 170.797 451.104V459.336H167.437V439.704H170.797V441.624ZM177.829 446.304C177.829 445.504 177.661 444.816 177.325 444.24C177.005 443.648 176.573 443.2 176.029 442.896C175.501 442.592 174.925 442.44 174.301 442.44C173.693 442.44 173.117 442.6 172.573 442.92C172.045 443.224 171.613 443.672 171.277 444.264C170.957 444.856 170.797 445.552 170.797 446.352C170.797 447.152 170.957 447.848 171.277 448.44C171.613 449.032 172.045 449.488 172.573 449.808C173.117 450.112 173.693 450.264 174.301 450.264C174.925 450.264 175.501 450.104 176.029 449.784C176.573 449.464 177.005 449.008 177.325 448.416C177.661 447.824 177.829 447.12 177.829 446.304ZM189.607 453.216C188.327 453.216 187.175 452.936 186.151 452.376C185.127 451.8 184.319 450.992 183.727 449.952C183.151 448.912 182.863 447.712 182.863 446.352C182.863 444.992 183.159 443.792 183.751 442.752C184.359 441.712 185.183 440.912 186.223 440.352C187.263 439.776 188.423 439.488 189.703 439.488C190.983 439.488 192.143 439.776 193.183 440.352C194.223 440.912 195.039 441.712 195.631 442.752C196.239 443.792 196.543 444.992 196.543 446.352C196.543 447.712 196.231 448.912 195.607 449.952C194.999 450.992 194.167 451.8 193.111 452.376C192.071 452.936 190.903 453.216 189.607 453.216ZM189.607 450.288C190.215 450.288 190.783 450.144 191.311 449.856C191.855 449.552 192.287 449.104 192.607 448.512C192.927 447.92 193.087 447.2 193.087 446.352C193.087 445.088 192.751 444.12 192.079 443.448C191.423 442.76 190.615 442.416 189.655 442.416C188.695 442.416 187.887 442.76 187.231 443.448C186.591 444.12 186.271 445.088 186.271 446.352C186.271 447.616 186.583 448.592 187.207 449.28C187.847 449.952 188.647 450.288 189.607 450.288ZM206.376 439.512C207.96 439.512 209.24 440.016 210.216 441.024C211.192 442.016 211.68 443.408 211.68 445.2V453H208.32V445.656C208.32 444.6 208.056 443.792 207.528 443.232C207 442.656 206.28 442.368 205.368 442.368C204.44 442.368 203.704 442.656 203.16 443.232C202.632 443.792 202.368 444.6 202.368 445.656V453H199.008V439.704H202.368V441.36C202.816 440.784 203.384 440.336 204.072 440.016C204.776 439.68 205.544 439.512 206.376 439.512ZM219.963 453.216C218.875 453.216 217.899 453.024 217.035 452.64C216.171 452.24 215.483 451.704 214.971 451.032C214.475 450.36 214.203 449.616 214.155 448.8H217.539C217.603 449.312 217.851 449.736 218.283 450.072C218.731 450.408 219.283 450.576 219.939 450.576C220.579 450.576 221.075 450.448 221.427 450.192C221.795 449.936 221.979 449.608 221.979 449.208C221.979 448.776 221.755 448.456 221.307 448.248C220.875 448.024 220.179 447.784 219.219 447.528C218.227 447.288 217.411 447.04 216.771 446.784C216.147 446.528 215.603 446.136 215.139 445.608C214.691 445.08 214.467 444.368 214.467 443.472C214.467 442.736 214.675 442.064 215.091 441.456C215.523 440.848 216.131 440.368 216.915 440.016C217.715 439.664 218.651 439.488 219.723 439.488C221.307 439.488 222.571 439.888 223.515 440.688C224.459 441.472 224.979 442.536 225.075 443.88H221.859C221.811 443.352 221.587 442.936 221.187 442.632C220.803 442.312 220.283 442.152 219.627 442.152C219.019 442.152 218.547 442.264 218.211 442.488C217.891 442.712 217.731 443.024 217.731 443.424C217.731 443.872 217.955 444.216 218.403 444.456C218.851 444.68 219.547 444.912 220.491 445.152C221.451 445.392 222.243 445.64 222.867 445.896C223.491 446.152 224.027 446.552 224.475 447.096C224.939 447.624 225.179 448.328 225.195 449.208C225.195 449.976 224.979 450.664 224.547 451.272C224.131 451.88 223.523 452.36 222.723 452.712C221.939 453.048 221.019 453.216 219.963 453.216ZM229.657 438.12C229.065 438.12 228.569 437.936 228.169 437.568C227.785 437.184 227.593 436.712 227.593 436.152C227.593 435.592 227.785 435.128 228.169 434.76C228.569 434.376 229.065 434.184 229.657 434.184C230.249 434.184 230.737 434.376 231.121 434.76C231.521 435.128 231.721 435.592 231.721 436.152C231.721 436.712 231.521 437.184 231.121 437.568C230.737 437.936 230.249 438.12 229.657 438.12ZM231.313 439.704V453H227.953V439.704H231.313ZM237.993 441.648C238.425 441.008 239.017 440.488 239.769 440.088C240.537 439.688 241.409 439.488 242.385 439.488C243.521 439.488 244.545 439.768 245.457 440.328C246.385 440.888 247.113 441.688 247.641 442.728C248.185 443.752 248.457 444.944 248.457 446.304C248.457 447.664 248.185 448.872 247.641 449.928C247.113 450.968 246.385 451.776 245.457 452.352C244.545 452.928 243.521 453.216 242.385 453.216C241.393 453.216 240.521 453.024 239.769 452.64C239.033 452.24 238.441 451.728 237.993 451.104V453H234.633V435.24H237.993V441.648ZM245.025 446.304C245.025 445.504 244.857 444.816 244.521 444.24C244.201 443.648 243.769 443.2 243.225 442.896C242.697 442.592 242.121 442.44 241.497 442.44C240.889 442.44 240.313 442.6 239.769 442.92C239.241 443.224 238.809 443.672 238.473 444.264C238.153 444.856 237.993 445.552 237.993 446.352C237.993 447.152 238.153 447.848 238.473 448.44C238.809 449.032 239.241 449.488 239.769 449.808C240.313 450.112 240.889 450.264 241.497 450.264C242.121 450.264 242.697 450.104 243.225 449.784C243.769 449.464 244.201 449.008 244.521 448.416C244.857 447.824 245.025 447.12 245.025 446.304ZM254.258 435.24V453H250.898V435.24H254.258ZM270.298 439.704L262.066 459.288H258.49L261.37 452.664L256.042 439.704H259.81L263.242 448.992L266.722 439.704H270.298ZM65.78 464.636L63.056 469.844V473H61.964V469.844L59.228 464.636H60.44L62.504 468.872L64.568 464.636H65.78ZM69.7998 473.108C69.1838 473.108 68.6238 472.968 68.1198 472.688C67.6238 472.408 67.2318 472.012 66.9438 471.5C66.6638 470.98 66.5238 470.38 66.5238 469.7C66.5238 469.028 66.6678 468.436 66.9558 467.924C67.2518 467.404 67.6518 467.008 68.1558 466.736C68.6598 466.456 69.2238 466.316 69.8478 466.316C70.4718 466.316 71.0358 466.456 71.5398 466.736C72.0438 467.008 72.4398 467.4 72.7278 467.912C73.0238 468.424 73.1718 469.02 73.1718 469.7C73.1718 470.38 73.0198 470.98 72.7158 471.5C72.4198 472.012 72.0158 472.408 71.5038 472.688C70.9918 472.968 70.4238 473.108 69.7998 473.108ZM69.7998 472.148C70.1918 472.148 70.5598 472.056 70.9038 471.872C71.2478 471.688 71.5238 471.412 71.7318 471.044C71.9478 470.676 72.0558 470.228 72.0558 469.7C72.0558 469.172 71.9518 468.724 71.7438 468.356C71.5358 467.988 71.2638 467.716 70.9278 467.54C70.5918 467.356 70.2278 467.264 69.8358 467.264C69.4358 467.264 69.0678 467.356 68.7318 467.54C68.4038 467.716 68.1398 467.988 67.9398 468.356C67.7398 468.724 67.6398 469.172 67.6398 469.7C67.6398 470.236 67.7358 470.688 67.9278 471.056C68.1278 471.424 68.3918 471.7 68.7198 471.884C69.0478 472.06 69.4078 472.148 69.7998 472.148ZM80.4396 466.424V473H79.3476V472.028C79.1396 472.364 78.8476 472.628 78.4716 472.82C78.1036 473.004 77.6956 473.096 77.2476 473.096C76.7356 473.096 76.2756 472.992 75.8676 472.784C75.4596 472.568 75.1356 472.248 74.8956 471.824C74.6636 471.4 74.5476 470.884 74.5476 470.276V466.424H75.6276V470.132C75.6276 470.78 75.7916 471.28 76.1196 471.632C76.4476 471.976 76.8956 472.148 77.4636 472.148C78.0476 472.148 78.5076 471.968 78.8436 471.608C79.1796 471.248 79.3476 470.724 79.3476 470.036V466.424H80.4396ZM85.0746 469.7C85.0746 469.02 85.2106 468.428 85.4826 467.924C85.7546 467.412 86.1306 467.016 86.6106 466.736C87.0986 466.456 87.6546 466.316 88.2786 466.316C89.0866 466.316 89.7506 466.512 90.2706 466.904C90.7986 467.296 91.1466 467.84 91.3146 468.536H90.1386C90.0266 468.136 89.8066 467.82 89.4786 467.588C89.1586 467.356 88.7586 467.24 88.2786 467.24C87.6546 467.24 87.1506 467.456 86.7666 467.888C86.3826 468.312 86.1906 468.916 86.1906 469.7C86.1906 470.492 86.3826 471.104 86.7666 471.536C87.1506 471.968 87.6546 472.184 88.2786 472.184C88.7586 472.184 89.1586 472.072 89.4786 471.848C89.7986 471.624 90.0186 471.304 90.1386 470.888H91.3146C91.1386 471.56 90.7866 472.1 90.2586 472.508C89.7306 472.908 89.0706 473.108 88.2786 473.108C87.6546 473.108 87.0986 472.968 86.6106 472.688C86.1306 472.408 85.7546 472.012 85.4826 471.5C85.2106 470.988 85.0746 470.388 85.0746 469.7ZM92.3637 469.688C92.3637 469.016 92.4997 468.428 92.7717 467.924C93.0437 467.412 93.4157 467.016 93.8877 466.736C94.3677 466.456 94.8997 466.316 95.4837 466.316C96.0597 466.316 96.5597 466.44 96.9837 466.688C97.4077 466.936 97.7237 467.248 97.9317 467.624V466.424H99.0357V473H97.9317V471.776C97.7157 472.16 97.3917 472.48 96.9597 472.736C96.5357 472.984 96.0397 473.108 95.4717 473.108C94.8877 473.108 94.3597 472.964 93.8877 472.676C93.4157 472.388 93.0437 471.984 92.7717 471.464C92.4997 470.944 92.3637 470.352 92.3637 469.688ZM97.9317 469.7C97.9317 469.204 97.8317 468.772 97.6317 468.404C97.4317 468.036 97.1597 467.756 96.8157 467.564C96.4797 467.364 96.1077 467.264 95.6997 467.264C95.2917 467.264 94.9197 467.36 94.5837 467.552C94.2477 467.744 93.9797 468.024 93.7797 468.392C93.5797 468.76 93.4797 469.192 93.4797 469.688C93.4797 470.192 93.5797 470.632 93.7797 471.008C93.9797 471.376 94.2477 471.66 94.5837 471.86C94.9197 472.052 95.2917 472.148 95.6997 472.148C96.1077 472.148 96.4797 472.052 96.8157 471.86C97.1597 471.66 97.4317 471.376 97.6317 471.008C97.8317 470.632 97.9317 470.196 97.9317 469.7ZM104.085 466.304C104.885 466.304 105.533 466.548 106.029 467.036C106.525 467.516 106.773 468.212 106.773 469.124V473H105.693V469.28C105.693 468.624 105.529 468.124 105.201 467.78C104.873 467.428 104.425 467.252 103.857 467.252C103.281 467.252 102.821 467.432 102.477 467.792C102.141 468.152 101.973 468.676 101.973 469.364V473H100.881V466.424H101.973V467.36C102.189 467.024 102.481 466.764 102.849 466.58C103.225 466.396 103.637 466.304 104.085 466.304ZM111.348 469.688C111.348 469.016 111.484 468.428 111.756 467.924C112.028 467.412 112.4 467.016 112.872 466.736C113.352 466.456 113.884 466.316 114.468 466.316C115.044 466.316 115.544 466.44 115.968 466.688C116.392 466.936 116.708 467.248 116.916 467.624V466.424H118.02V473H116.916V471.776C116.7 472.16 116.376 472.48 115.944 472.736C115.52 472.984 115.024 473.108 114.456 473.108C113.872 473.108 113.344 472.964 112.872 472.676C112.4 472.388 112.028 471.984 111.756 471.464C111.484 470.944 111.348 470.352 111.348 469.688ZM116.916 469.7C116.916 469.204 116.816 468.772 116.616 468.404C116.416 468.036 116.144 467.756 115.8 467.564C115.464 467.364 115.092 467.264 114.684 467.264C114.276 467.264 113.904 467.36 113.568 467.552C113.232 467.744 112.964 468.024 112.764 468.392C112.564 468.76 112.464 469.192 112.464 469.688C112.464 470.192 112.564 470.632 112.764 471.008C112.964 471.376 113.232 471.66 113.568 471.86C113.904 472.052 114.276 472.148 114.684 472.148C115.092 472.148 115.464 472.052 115.8 471.86C116.144 471.66 116.416 471.376 116.616 471.008C116.816 470.632 116.916 470.196 116.916 469.7ZM120.957 464.12V473H119.865V464.12H120.957ZM131.579 466.424L129.527 473H128.399L126.815 467.78L125.231 473H124.103L122.039 466.424H123.155L124.667 471.944L126.299 466.424H127.415L129.011 471.956L130.499 466.424H131.579ZM132.254 469.688C132.254 469.016 132.39 468.428 132.662 467.924C132.934 467.412 133.306 467.016 133.778 466.736C134.258 466.456 134.79 466.316 135.374 466.316C135.95 466.316 136.45 466.44 136.874 466.688C137.298 466.936 137.614 467.248 137.822 467.624V466.424H138.926V473H137.822V471.776C137.606 472.16 137.282 472.48 136.85 472.736C136.426 472.984 135.93 473.108 135.362 473.108C134.778 473.108 134.25 472.964 133.778 472.676C133.306 472.388 132.934 471.984 132.662 471.464C132.39 470.944 132.254 470.352 132.254 469.688ZM137.822 469.7C137.822 469.204 137.722 468.772 137.522 468.404C137.322 468.036 137.05 467.756 136.706 467.564C136.37 467.364 135.998 467.264 135.59 467.264C135.182 467.264 134.81 467.36 134.474 467.552C134.138 467.744 133.87 468.024 133.67 468.392C133.47 468.76 133.37 469.192 133.37 469.688C133.37 470.192 133.47 470.632 133.67 471.008C133.87 471.376 134.138 471.66 134.474 471.86C134.81 472.052 135.182 472.148 135.59 472.148C135.998 472.148 136.37 472.052 136.706 471.86C137.05 471.66 137.322 471.376 137.522 471.008C137.722 470.632 137.822 470.196 137.822 469.7ZM146.436 466.424L142.476 476.096H141.348L142.644 472.928L139.992 466.424H141.204L143.268 471.752L145.308 466.424H146.436ZM149.861 473.108C149.357 473.108 148.905 473.024 148.505 472.856C148.105 472.68 147.789 472.44 147.557 472.136C147.325 471.824 147.197 471.468 147.173 471.068H148.301C148.333 471.396 148.485 471.664 148.757 471.872C149.037 472.08 149.401 472.184 149.849 472.184C150.265 472.184 150.593 472.092 150.833 471.908C151.073 471.724 151.193 471.492 151.193 471.212C151.193 470.924 151.065 470.712 150.809 470.576C150.553 470.432 150.157 470.292 149.621 470.156C149.133 470.028 148.733 469.9 148.421 469.772C148.117 469.636 147.853 469.44 147.629 469.184C147.413 468.92 147.305 468.576 147.305 468.152C147.305 467.816 147.405 467.508 147.605 467.228C147.805 466.948 148.089 466.728 148.457 466.568C148.825 466.4 149.245 466.316 149.717 466.316C150.445 466.316 151.033 466.5 151.481 466.868C151.929 467.236 152.169 467.74 152.201 468.38H151.109C151.085 468.036 150.945 467.76 150.689 467.552C150.441 467.344 150.105 467.24 149.681 467.24C149.289 467.24 148.977 467.324 148.745 467.492C148.513 467.66 148.397 467.88 148.397 468.152C148.397 468.368 148.465 468.548 148.601 468.692C148.745 468.828 148.921 468.94 149.129 469.028C149.345 469.108 149.641 469.2 150.017 469.304C150.489 469.432 150.873 469.56 151.169 469.688C151.465 469.808 151.717 469.992 151.925 470.24C152.141 470.488 152.253 470.812 152.261 471.212C152.261 471.572 152.161 471.896 151.961 472.184C151.761 472.472 151.477 472.7 151.109 472.868C150.749 473.028 150.333 473.108 149.861 473.108ZM163.002 469.46C163.002 469.668 162.99 469.888 162.966 470.12H157.71C157.75 470.768 157.97 471.276 158.37 471.644C158.778 472.004 159.27 472.184 159.846 472.184C160.318 472.184 160.71 472.076 161.022 471.86C161.342 471.636 161.566 471.34 161.694 470.972H162.87C162.694 471.604 162.342 472.12 161.814 472.52C161.286 472.912 160.63 473.108 159.846 473.108C159.222 473.108 158.662 472.968 158.166 472.688C157.678 472.408 157.294 472.012 157.014 471.5C156.734 470.98 156.594 470.38 156.594 469.7C156.594 469.02 156.73 468.424 157.002 467.912C157.274 467.4 157.654 467.008 158.142 466.736C158.638 466.456 159.206 466.316 159.846 466.316C160.47 466.316 161.022 466.452 161.502 466.724C161.982 466.996 162.35 467.372 162.606 467.852C162.87 468.324 163.002 468.86 163.002 469.46ZM161.874 469.232C161.874 468.816 161.782 468.46 161.598 468.164C161.414 467.86 161.162 467.632 160.842 467.48C160.53 467.32 160.182 467.24 159.798 467.24C159.246 467.24 158.774 467.416 158.382 467.768C157.998 468.12 157.778 468.608 157.722 469.232H161.874ZM167.648 466.304C168.448 466.304 169.096 466.548 169.592 467.036C170.088 467.516 170.336 468.212 170.336 469.124V473H169.256V469.28C169.256 468.624 169.092 468.124 168.764 467.78C168.436 467.428 167.988 467.252 167.42 467.252C166.844 467.252 166.384 467.432 166.04 467.792C165.704 468.152 165.536 468.676 165.536 469.364V473H164.444V466.424H165.536V467.36C165.752 467.024 166.044 466.764 166.412 466.58C166.788 466.396 167.2 466.304 167.648 466.304ZM171.711 469.688C171.711 469.016 171.847 468.428 172.119 467.924C172.391 467.412 172.763 467.016 173.235 466.736C173.715 466.456 174.251 466.316 174.843 466.316C175.355 466.316 175.831 466.436 176.271 466.676C176.711 466.908 177.047 467.216 177.279 467.6V464.12H178.383V473H177.279V471.764C177.063 472.156 176.743 472.48 176.319 472.736C175.895 472.984 175.399 473.108 174.831 473.108C174.247 473.108 173.715 472.964 173.235 472.676C172.763 472.388 172.391 471.984 172.119 471.464C171.847 470.944 171.711 470.352 171.711 469.688ZM177.279 469.7C177.279 469.204 177.179 468.772 176.979 468.404C176.779 468.036 176.507 467.756 176.163 467.564C175.827 467.364 175.455 467.264 175.047 467.264C174.639 467.264 174.267 467.36 173.931 467.552C173.595 467.744 173.327 468.024 173.127 468.392C172.927 468.76 172.827 469.192 172.827 469.688C172.827 470.192 172.927 470.632 173.127 471.008C173.327 471.376 173.595 471.66 173.931 471.86C174.267 472.052 174.639 472.148 175.047 472.148C175.455 472.148 175.827 472.052 176.163 471.86C176.507 471.66 176.779 471.376 176.979 471.008C177.179 470.632 177.279 470.196 177.279 469.7ZM189.428 469.46C189.428 469.668 189.416 469.888 189.392 470.12H184.136C184.176 470.768 184.396 471.276 184.796 471.644C185.204 472.004 185.696 472.184 186.272 472.184C186.744 472.184 187.136 472.076 187.448 471.86C187.768 471.636 187.992 471.34 188.12 470.972H189.296C189.12 471.604 188.768 472.12 188.24 472.52C187.712 472.912 187.056 473.108 186.272 473.108C185.648 473.108 185.088 472.968 184.592 472.688C184.104 472.408 183.72 472.012 183.44 471.5C183.16 470.98 183.02 470.38 183.02 469.7C183.02 469.02 183.156 468.424 183.428 467.912C183.7 467.4 184.08 467.008 184.568 466.736C185.064 466.456 185.632 466.316 186.272 466.316C186.896 466.316 187.448 466.452 187.928 466.724C188.408 466.996 188.776 467.372 189.032 467.852C189.296 468.324 189.428 468.86 189.428 469.46ZM188.3 469.232C188.3 468.816 188.208 468.46 188.024 468.164C187.84 467.86 187.588 467.632 187.268 467.48C186.956 467.32 186.608 467.24 186.224 467.24C185.672 467.24 185.2 467.416 184.808 467.768C184.424 468.12 184.204 468.608 184.148 469.232H188.3ZM190.461 469.688C190.461 469.016 190.597 468.428 190.869 467.924C191.141 467.412 191.513 467.016 191.985 466.736C192.465 466.456 192.997 466.316 193.581 466.316C194.157 466.316 194.657 466.44 195.081 466.688C195.505 466.936 195.821 467.248 196.029 467.624V466.424H197.133V473H196.029V471.776C195.813 472.16 195.489 472.48 195.057 472.736C194.633 472.984 194.137 473.108 193.569 473.108C192.985 473.108 192.457 472.964 191.985 472.676C191.513 472.388 191.141 471.984 190.869 471.464C190.597 470.944 190.461 470.352 190.461 469.688ZM196.029 469.7C196.029 469.204 195.929 468.772 195.729 468.404C195.529 468.036 195.257 467.756 194.913 467.564C194.577 467.364 194.205 467.264 193.797 467.264C193.389 467.264 193.017 467.36 192.681 467.552C192.345 467.744 192.077 468.024 191.877 468.392C191.677 468.76 191.577 469.192 191.577 469.688C191.577 470.192 191.677 470.632 191.877 471.008C192.077 471.376 192.345 471.66 192.681 471.86C193.017 472.052 193.389 472.148 193.797 472.148C194.205 472.148 194.577 472.052 194.913 471.86C195.257 471.66 195.529 471.376 195.729 471.008C195.929 470.632 196.029 470.196 196.029 469.7ZM200.071 467.492C200.263 467.116 200.535 466.824 200.887 466.616C201.247 466.408 201.683 466.304 202.195 466.304V467.432H201.907C200.683 467.432 200.071 468.096 200.071 469.424V473H198.979V466.424H200.071V467.492ZM204.547 464.12V473H203.455V464.12H204.547ZM212.072 466.424L208.112 476.096H206.984L208.28 472.928L205.628 466.424H206.84L208.904 471.752L210.944 466.424H212.072ZM217.461 467.648C217.685 467.256 218.013 466.936 218.445 466.688C218.877 466.44 219.369 466.316 219.921 466.316C220.513 466.316 221.045 466.456 221.517 466.736C221.989 467.016 222.361 467.412 222.633 467.924C222.905 468.428 223.041 469.016 223.041 469.688C223.041 470.352 222.905 470.944 222.633 471.464C222.361 471.984 221.985 472.388 221.505 472.676C221.033 472.964 220.505 473.108 219.921 473.108C219.353 473.108 218.853 472.984 218.421 472.736C217.997 472.488 217.677 472.172 217.461 471.788V473H216.369V464.12H217.461V467.648ZM221.925 469.688C221.925 469.192 221.825 468.76 221.625 468.392C221.425 468.024 221.153 467.744 220.809 467.552C220.473 467.36 220.101 467.264 219.693 467.264C219.293 467.264 218.921 467.364 218.577 467.564C218.241 467.756 217.969 468.04 217.761 468.416C217.561 468.784 217.461 469.212 217.461 469.7C217.461 470.196 217.561 470.632 217.761 471.008C217.969 471.376 218.241 471.66 218.577 471.86C218.921 472.052 219.293 472.148 219.693 472.148C220.101 472.148 220.473 472.052 220.809 471.86C221.153 471.66 221.425 471.376 221.625 471.008C221.825 470.632 221.925 470.192 221.925 469.688ZM230.143 466.424L226.183 476.096H225.055L226.351 472.928L223.699 466.424H224.911L226.975 471.752L229.015 466.424H230.143ZM235.532 467.636C235.748 467.26 236.068 466.948 236.492 466.7C236.924 466.444 237.424 466.316 237.992 466.316C238.576 466.316 239.104 466.456 239.576 466.736C240.056 467.016 240.432 467.412 240.704 467.924C240.976 468.428 241.112 469.016 241.112 469.688C241.112 470.352 240.976 470.944 240.704 471.464C240.432 471.984 240.056 472.388 239.576 472.676C239.104 472.964 238.576 473.108 237.992 473.108C237.432 473.108 236.936 472.984 236.504 472.736C236.08 472.48 235.756 472.164 235.532 471.788V476.12H234.44V466.424H235.532V467.636ZM239.996 469.688C239.996 469.192 239.896 468.76 239.696 468.392C239.496 468.024 239.224 467.744 238.88 467.552C238.544 467.36 238.172 467.264 237.764 467.264C237.364 467.264 236.992 467.364 236.648 467.564C236.312 467.756 236.04 468.04 235.832 468.416C235.632 468.784 235.532 469.212 235.532 469.7C235.532 470.196 235.632 470.632 235.832 471.008C236.04 471.376 236.312 471.66 236.648 471.86C236.992 472.052 237.364 472.148 237.764 472.148C238.172 472.148 238.544 472.052 238.88 471.86C239.224 471.66 239.496 471.376 239.696 471.008C239.896 470.632 239.996 470.192 239.996 469.688ZM243.641 467.492C243.833 467.116 244.105 466.824 244.457 466.616C244.817 466.408 245.253 466.304 245.765 466.304V467.432H245.477C244.253 467.432 243.641 468.096 243.641 469.424V473H242.549V466.424H243.641V467.492ZM253.026 469.46C253.026 469.668 253.014 469.888 252.99 470.12H247.734C247.774 470.768 247.994 471.276 248.394 471.644C248.802 472.004 249.294 472.184 249.87 472.184C250.342 472.184 250.734 472.076 251.046 471.86C251.366 471.636 251.59 471.34 251.718 470.972H252.894C252.718 471.604 252.366 472.12 251.838 472.52C251.31 472.912 250.654 473.108 249.87 473.108C249.246 473.108 248.686 472.968 248.19 472.688C247.702 472.408 247.318 472.012 247.038 471.5C246.758 470.98 246.618 470.38 246.618 469.7C246.618 469.02 246.754 468.424 247.026 467.912C247.298 467.4 247.678 467.008 248.166 466.736C248.662 466.456 249.23 466.316 249.87 466.316C250.494 466.316 251.046 466.452 251.526 466.724C252.006 466.996 252.374 467.372 252.63 467.852C252.894 468.324 253.026 468.86 253.026 469.46ZM251.898 469.232C251.898 468.816 251.806 468.46 251.622 468.164C251.438 467.86 251.186 467.632 250.866 467.48C250.554 467.32 250.206 467.24 249.822 467.24C249.27 467.24 248.798 467.416 248.406 467.768C248.022 468.12 247.802 468.608 247.746 469.232H251.898ZM256.795 473.108C256.291 473.108 255.839 473.024 255.439 472.856C255.039 472.68 254.723 472.44 254.491 472.136C254.259 471.824 254.131 471.468 254.107 471.068H255.235C255.267 471.396 255.419 471.664 255.691 471.872C255.971 472.08 256.335 472.184 256.783 472.184C257.199 472.184 257.527 472.092 257.767 471.908C258.007 471.724 258.127 471.492 258.127 471.212C258.127 470.924 257.999 470.712 257.743 470.576C257.487 470.432 257.091 470.292 256.555 470.156C256.067 470.028 255.667 469.9 255.355 469.772C255.051 469.636 254.787 469.44 254.563 469.184C254.347 468.92 254.239 468.576 254.239 468.152C254.239 467.816 254.339 467.508 254.539 467.228C254.739 466.948 255.023 466.728 255.391 466.568C255.759 466.4 256.179 466.316 256.651 466.316C257.379 466.316 257.967 466.5 258.415 466.868C258.863 467.236 259.103 467.74 259.135 468.38H258.043C258.019 468.036 257.879 467.76 257.623 467.552C257.375 467.344 257.039 467.24 256.615 467.24C256.223 467.24 255.911 467.324 255.679 467.492C255.447 467.66 255.331 467.88 255.331 468.152C255.331 468.368 255.399 468.548 255.535 468.692C255.679 468.828 255.855 468.94 256.063 469.028C256.279 469.108 256.575 469.2 256.951 469.304C257.423 469.432 257.807 469.56 258.103 469.688C258.399 469.808 258.651 469.992 258.859 470.24C259.075 470.488 259.187 470.812 259.195 471.212C259.195 471.572 259.095 471.896 258.895 472.184C258.695 472.472 258.411 472.7 258.043 472.868C257.683 473.028 257.267 473.108 256.795 473.108ZM263.065 473.108C262.561 473.108 262.109 473.024 261.709 472.856C261.309 472.68 260.993 472.44 260.761 472.136C260.529 471.824 260.401 471.468 260.377 471.068H261.505C261.537 471.396 261.689 471.664 261.961 471.872C262.241 472.08 262.605 472.184 263.053 472.184C263.469 472.184 263.797 472.092 264.037 471.908C264.277 471.724 264.397 471.492 264.397 471.212C264.397 470.924 264.269 470.712 264.013 470.576C263.757 470.432 263.361 470.292 262.825 470.156C262.337 470.028 261.937 469.9 261.625 469.772C261.321 469.636 261.057 469.44 260.833 469.184C260.617 468.92 260.509 468.576 260.509 468.152C260.509 467.816 260.609 467.508 260.809 467.228C261.009 466.948 261.293 466.728 261.661 466.568C262.029 466.4 262.449 466.316 262.921 466.316C263.649 466.316 264.237 466.5 264.685 466.868C265.133 467.236 265.373 467.74 265.405 468.38H264.313C264.289 468.036 264.149 467.76 263.893 467.552C263.645 467.344 263.309 467.24 262.885 467.24C262.493 467.24 262.181 467.324 261.949 467.492C261.717 467.66 261.601 467.88 261.601 468.152C261.601 468.368 261.669 468.548 261.805 468.692C261.949 468.828 262.125 468.94 262.333 469.028C262.549 469.108 262.845 469.2 263.221 469.304C263.693 469.432 264.077 469.56 264.373 469.688C264.669 469.808 264.921 469.992 265.129 470.24C265.345 470.488 265.457 470.812 265.465 471.212C265.465 471.572 265.365 471.896 265.165 472.184C264.965 472.472 264.681 472.7 264.313 472.868C263.953 473.028 263.537 473.108 263.065 473.108ZM267.57 465.356C267.362 465.356 267.186 465.284 267.042 465.14C266.898 464.996 266.826 464.82 266.826 464.612C266.826 464.404 266.898 464.228 267.042 464.084C267.186 463.94 267.362 463.868 267.57 463.868C267.77 463.868 267.938 463.94 268.074 464.084C268.218 464.228 268.29 464.404 268.29 464.612C268.29 464.82 268.218 464.996 268.074 465.14C267.938 465.284 267.77 465.356 267.57 465.356ZM268.098 466.424V473H267.006V466.424H268.098ZM273.163 466.304C273.963 466.304 274.611 466.548 275.107 467.036C275.603 467.516 275.851 468.212 275.851 469.124V473H274.771V469.28C274.771 468.624 274.607 468.124 274.279 467.78C273.951 467.428 273.503 467.252 272.935 467.252C272.359 467.252 271.899 467.432 271.555 467.792C271.219 468.152 271.051 468.676 271.051 469.364V473H269.959V466.424H271.051V467.36C271.267 467.024 271.559 466.764 271.927 466.58C272.303 466.396 272.715 466.304 273.163 466.304ZM280.347 466.316C280.915 466.316 281.411 466.44 281.835 466.688C282.267 466.936 282.587 467.248 282.795 467.624V466.424H283.899V473.144C283.899 473.744 283.771 474.276 283.515 474.74C283.259 475.212 282.891 475.58 282.411 475.844C281.939 476.108 281.387 476.24 280.755 476.24C279.891 476.24 279.171 476.036 278.595 475.628C278.019 475.22 277.679 474.664 277.575 473.96H278.655C278.775 474.36 279.023 474.68 279.399 474.92C279.775 475.168 280.227 475.292 280.755 475.292C281.355 475.292 281.843 475.104 282.219 474.728C282.603 474.352 282.795 473.824 282.795 473.144V471.764C282.579 472.148 282.259 472.468 281.835 472.724C281.411 472.98 280.915 473.108 280.347 473.108C279.763 473.108 279.231 472.964 278.751 472.676C278.279 472.388 277.907 471.984 277.635 471.464C277.363 470.944 277.227 470.352 277.227 469.688C277.227 469.016 277.363 468.428 277.635 467.924C277.907 467.412 278.279 467.016 278.751 466.736C279.231 466.456 279.763 466.316 280.347 466.316ZM282.795 469.7C282.795 469.204 282.695 468.772 282.495 468.404C282.295 468.036 282.023 467.756 281.679 467.564C281.343 467.364 280.971 467.264 280.563 467.264C280.155 467.264 279.783 467.36 279.447 467.552C279.111 467.744 278.843 468.024 278.643 468.392C278.443 468.76 278.343 469.192 278.343 469.688C278.343 470.192 278.443 470.632 278.643 471.008C278.843 471.376 279.111 471.66 279.447 471.86C279.783 472.052 280.155 472.148 280.563 472.148C280.971 472.148 281.343 472.052 281.679 471.86C282.023 471.66 282.295 471.376 282.495 471.008C282.695 470.632 282.795 470.196 282.795 469.7ZM290.276 467.324V471.2C290.276 471.52 290.344 471.748 290.48 471.884C290.616 472.012 290.852 472.076 291.188 472.076H291.992V473H291.008C290.4 473 289.944 472.86 289.64 472.58C289.336 472.3 289.184 471.84 289.184 471.2V467.324H288.332V466.424H289.184V464.768H290.276V466.424H291.992V467.324H290.276ZM296.579 466.304C297.075 466.304 297.523 466.412 297.923 466.628C298.323 466.836 298.635 467.152 298.859 467.576C299.091 468 299.207 468.516 299.207 469.124V473H298.127V469.28C298.127 468.624 297.963 468.124 297.635 467.78C297.307 467.428 296.859 467.252 296.291 467.252C295.715 467.252 295.255 467.432 294.911 467.792C294.575 468.152 294.407 468.676 294.407 469.364V473H293.315V464.12H294.407V467.36C294.623 467.024 294.919 466.764 295.295 466.58C295.679 466.396 296.107 466.304 296.579 466.304ZM306.99 469.46C306.99 469.668 306.978 469.888 306.954 470.12H301.698C301.738 470.768 301.958 471.276 302.358 471.644C302.766 472.004 303.258 472.184 303.834 472.184C304.306 472.184 304.698 472.076 305.01 471.86C305.33 471.636 305.554 471.34 305.682 470.972H306.858C306.682 471.604 306.33 472.12 305.802 472.52C305.274 472.912 304.618 473.108 303.834 473.108C303.21 473.108 302.65 472.968 302.154 472.688C301.666 472.408 301.282 472.012 301.002 471.5C300.722 470.98 300.582 470.38 300.582 469.7C300.582 469.02 300.718 468.424 300.99 467.912C301.262 467.4 301.642 467.008 302.13 466.736C302.626 466.456 303.194 466.316 303.834 466.316C304.458 466.316 305.01 466.452 305.49 466.724C305.97 466.996 306.338 467.372 306.594 467.852C306.858 468.324 306.99 468.86 306.99 469.46ZM305.862 469.232C305.862 468.816 305.77 468.46 305.586 468.164C305.402 467.86 305.15 467.632 304.83 467.48C304.518 467.32 304.17 467.24 303.786 467.24C303.234 467.24 302.762 467.416 302.37 467.768C301.986 468.12 301.766 468.608 301.71 469.232H305.862ZM317.631 469.46C317.631 469.668 317.619 469.888 317.595 470.12H312.339C312.379 470.768 312.599 471.276 312.999 471.644C313.407 472.004 313.899 472.184 314.475 472.184C314.947 472.184 315.339 472.076 315.651 471.86C315.971 471.636 316.195 471.34 316.323 470.972H317.499C317.323 471.604 316.971 472.12 316.443 472.52C315.915 472.912 315.259 473.108 314.475 473.108C313.851 473.108 313.291 472.968 312.795 472.688C312.307 472.408 311.923 472.012 311.643 471.5C311.363 470.98 311.223 470.38 311.223 469.7C311.223 469.02 311.359 468.424 311.631 467.912C311.903 467.4 312.283 467.008 312.771 466.736C313.267 466.456 313.835 466.316 314.475 466.316C315.099 466.316 315.651 466.452 316.131 466.724C316.611 466.996 316.979 467.372 317.235 467.852C317.499 468.324 317.631 468.86 317.631 469.46ZM316.503 469.232C316.503 468.816 316.411 468.46 316.227 468.164C316.043 467.86 315.791 467.632 315.471 467.48C315.159 467.32 314.811 467.24 314.427 467.24C313.875 467.24 313.403 467.416 313.011 467.768C312.627 468.12 312.407 468.608 312.351 469.232H316.503ZM322.504 473L320.944 470.552L319.444 473H318.304L320.428 469.736L318.304 466.424H319.54L321.1 468.86L322.588 466.424H323.728L321.616 469.676L323.74 473H322.504ZM325.379 465.356C325.171 465.356 324.995 465.284 324.851 465.14C324.707 464.996 324.635 464.82 324.635 464.612C324.635 464.404 324.707 464.228 324.851 464.084C324.995 463.94 325.171 463.868 325.379 463.868C325.579 463.868 325.747 463.94 325.883 464.084C326.027 464.228 326.099 464.404 326.099 464.612C326.099 464.82 326.027 464.996 325.883 465.14C325.747 465.284 325.579 465.356 325.379 465.356ZM325.907 466.424V473H324.815V466.424H325.907ZM329.1 467.324V471.2C329.1 471.52 329.168 471.748 329.304 471.884C329.44 472.012 329.676 472.076 330.012 472.076H330.816V473H329.832C329.224 473 328.768 472.86 328.464 472.58C328.16 472.3 328.008 471.84 328.008 471.2V467.324H327.156V466.424H328.008V464.768H329.1V466.424H330.816V467.324H329.1ZM336.43 467.648C336.654 467.256 336.982 466.936 337.414 466.688C337.846 466.44 338.338 466.316 338.89 466.316C339.482 466.316 340.014 466.456 340.486 466.736C340.958 467.016 341.33 467.412 341.602 467.924C341.874 468.428 342.01 469.016 342.01 469.688C342.01 470.352 341.874 470.944 341.602 471.464C341.33 471.984 340.954 472.388 340.474 472.676C340.002 472.964 339.474 473.108 338.89 473.108C338.322 473.108 337.822 472.984 337.39 472.736C336.966 472.488 336.646 472.172 336.43 471.788V473H335.338V464.12H336.43V467.648ZM340.894 469.688C340.894 469.192 340.794 468.76 340.594 468.392C340.394 468.024 340.122 467.744 339.778 467.552C339.442 467.36 339.07 467.264 338.662 467.264C338.262 467.264 337.89 467.364 337.546 467.564C337.21 467.756 336.938 468.04 336.73 468.416C336.53 468.784 336.43 469.212 336.43 469.7C336.43 470.196 336.53 470.632 336.73 471.008C336.938 471.376 337.21 471.66 337.546 471.86C337.89 472.052 338.262 472.148 338.662 472.148C339.07 472.148 339.442 472.052 339.778 471.86C340.122 471.66 340.394 471.376 340.594 471.008C340.794 470.632 340.894 470.192 340.894 469.688ZM349.279 466.424V473H348.187V472.028C347.979 472.364 347.687 472.628 347.311 472.82C346.943 473.004 346.535 473.096 346.087 473.096C345.575 473.096 345.115 472.992 344.707 472.784C344.299 472.568 343.975 472.248 343.735 471.824C343.503 471.4 343.387 470.884 343.387 470.276V466.424H344.467V470.132C344.467 470.78 344.631 471.28 344.959 471.632C345.287 471.976 345.735 472.148 346.303 472.148C346.887 472.148 347.347 471.968 347.683 471.608C348.019 471.248 348.187 470.724 348.187 470.036V466.424H349.279ZM352.455 467.324V471.2C352.455 471.52 352.523 471.748 352.659 471.884C352.795 472.012 353.031 472.076 353.367 472.076H354.171V473H353.187C352.579 473 352.123 472.86 351.819 472.58C351.515 472.3 351.363 471.84 351.363 471.2V467.324H350.511V466.424H351.363V464.768H352.455V466.424H354.171V467.324H352.455ZM356.826 467.324V471.2C356.826 471.52 356.894 471.748 357.03 471.884C357.166 472.012 357.402 472.076 357.738 472.076H358.542V473H357.558C356.95 473 356.494 472.86 356.19 472.58C355.886 472.3 355.734 471.84 355.734 471.2V467.324H354.882V466.424H355.734V464.768H356.826V466.424H358.542V467.324H356.826ZM362.733 473.108C362.117 473.108 361.557 472.968 361.053 472.688C360.557 472.408 360.165 472.012 359.877 471.5C359.597 470.98 359.457 470.38 359.457 469.7C359.457 469.028 359.601 468.436 359.889 467.924C360.185 467.404 360.585 467.008 361.089 466.736C361.593 466.456 362.157 466.316 362.781 466.316C363.405 466.316 363.969 466.456 364.473 466.736C364.977 467.008 365.373 467.4 365.661 467.912C365.957 468.424 366.105 469.02 366.105 469.7C366.105 470.38 365.953 470.98 365.649 471.5C365.353 472.012 364.949 472.408 364.437 472.688C363.925 472.968 363.357 473.108 362.733 473.108ZM362.733 472.148C363.125 472.148 363.493 472.056 363.837 471.872C364.181 471.688 364.457 471.412 364.665 471.044C364.881 470.676 364.989 470.228 364.989 469.7C364.989 469.172 364.885 468.724 364.677 468.356C364.469 467.988 364.197 467.716 363.861 467.54C363.525 467.356 363.161 467.264 362.769 467.264C362.369 467.264 362.001 467.356 361.665 467.54C361.337 467.716 361.073 467.988 360.873 468.356C360.673 468.724 360.573 469.172 360.573 469.7C360.573 470.236 360.669 470.688 360.861 471.056C361.061 471.424 361.325 471.7 361.653 471.884C361.981 472.06 362.341 472.148 362.733 472.148ZM370.745 466.304C371.545 466.304 372.193 466.548 372.689 467.036C373.185 467.516 373.433 468.212 373.433 469.124V473H372.353V469.28C372.353 468.624 372.189 468.124 371.861 467.78C371.533 467.428 371.085 467.252 370.517 467.252C369.941 467.252 369.481 467.432 369.137 467.792C368.801 468.152 368.633 468.676 368.633 469.364V473H367.541V466.424H368.633V467.36C368.849 467.024 369.141 466.764 369.509 466.58C369.885 466.396 370.297 466.304 370.745 466.304Z" fill="black"/>
<path d="M26.0781 35.7012H26.2148C26.8438 35.7012 27.3678 35.6191 27.7871 35.4551C28.2109 35.2865 28.5482 35.054 28.7988 34.7578C29.0495 34.4616 29.2295 34.113 29.3389 33.7119C29.4482 33.3109 29.5029 32.8757 29.5029 32.4062V30.6904C29.5029 30.2848 29.4596 29.9294 29.373 29.624C29.291 29.3141 29.1725 29.0566 29.0176 28.8516C28.8672 28.6419 28.6917 28.4847 28.4912 28.3799C28.2952 28.2751 28.0833 28.2227 27.8555 28.2227C27.6048 28.2227 27.3792 28.2796 27.1787 28.3936C26.9827 28.5029 26.8164 28.6556 26.6797 28.8516C26.5475 29.043 26.445 29.2686 26.3721 29.5283C26.3037 29.7835 26.2695 30.057 26.2695 30.3486C26.2695 30.6221 26.3014 30.8864 26.3652 31.1416C26.4336 31.3923 26.5339 31.6156 26.666 31.8115C26.7982 32.0075 26.9645 32.1624 27.165 32.2764C27.3656 32.3903 27.6003 32.4473 27.8691 32.4473C28.1243 32.4473 28.359 32.3994 28.5732 32.3037C28.7874 32.2035 28.9743 32.069 29.1338 31.9004C29.2933 31.7318 29.4186 31.5426 29.5098 31.333C29.6009 31.1234 29.651 30.9092 29.6602 30.6904L30.2891 30.8818C30.2891 31.2282 30.2161 31.57 30.0703 31.9072C29.929 32.2399 29.7308 32.5452 29.4756 32.8232C29.2249 33.0967 28.931 33.3154 28.5938 33.4795C28.2611 33.6436 27.8988 33.7256 27.5068 33.7256C27.0329 33.7256 26.6136 33.6367 26.249 33.459C25.889 33.2767 25.5882 33.0306 25.3467 32.7207C25.1097 32.4108 24.932 32.0553 24.8135 31.6543C24.695 31.2533 24.6357 30.8317 24.6357 30.3896C24.6357 29.9111 24.7087 29.4622 24.8545 29.043C25.0003 28.6237 25.2122 28.2546 25.4902 27.9355C25.7682 27.612 26.1055 27.3613 26.502 27.1836C26.903 27.0013 27.3564 26.9102 27.8623 26.9102C28.4001 26.9102 28.8717 27.015 29.2773 27.2246C29.6829 27.4342 30.0247 27.7236 30.3027 28.0928C30.5807 28.4619 30.7904 28.8903 30.9316 29.3779C31.0729 29.8656 31.1436 30.3896 31.1436 30.9502V31.5312C31.1436 32.1191 31.0911 32.6865 30.9863 33.2334C30.8815 33.7757 30.7106 34.2793 30.4736 34.7441C30.2412 35.2044 29.9336 35.61 29.5508 35.9609C29.1725 36.3073 28.7077 36.5785 28.1562 36.7744C27.6094 36.9658 26.9668 37.0615 26.2285 37.0615H26.0781V35.7012ZM33.1019 36.1797C33.1019 35.9245 33.1885 35.7103 33.3617 35.5371C33.5349 35.3594 33.7696 35.2705 34.0658 35.2705C34.3666 35.2705 34.6013 35.3594 34.7699 35.5371C34.9431 35.7103 35.0296 35.9245 35.0296 36.1797C35.0296 36.4349 34.9431 36.6491 34.7699 36.8223C34.6013 36.9954 34.3666 37.082 34.0658 37.082C33.7696 37.082 33.5349 36.9954 33.3617 36.8223C33.1885 36.6491 33.1019 36.4349 33.1019 36.1797ZM33.1088 30.3555C33.1088 30.1003 33.1953 29.8861 33.3685 29.7129C33.5417 29.5352 33.7764 29.4463 34.0726 29.4463C34.3734 29.4463 34.6081 29.5352 34.7767 29.7129C34.9499 29.8861 35.0365 30.1003 35.0365 30.3555C35.0365 30.6107 34.9499 30.8249 34.7767 30.998C34.6081 31.1712 34.3734 31.2578 34.0726 31.2578C33.7764 31.2578 33.5417 31.1712 33.3685 30.998C33.1953 30.8249 33.1088 30.6107 33.1088 30.3555ZM38.7517 31.2783H39.7361C40.1189 31.2783 40.4356 31.2122 40.6862 31.0801C40.9415 30.9479 41.1306 30.7656 41.2536 30.5332C41.3767 30.3008 41.4382 30.0342 41.4382 29.7334C41.4382 29.4189 41.3812 29.1501 41.2673 28.9268C41.1579 28.6989 40.9893 28.5234 40.7614 28.4004C40.5381 28.2773 40.2533 28.2158 39.907 28.2158C39.6153 28.2158 39.351 28.2751 39.114 28.3936C38.8816 28.5075 38.697 28.6715 38.5603 28.8857C38.4236 29.0954 38.3552 29.346 38.3552 29.6377H36.7009C36.7009 29.109 36.8399 28.6396 37.1179 28.2295C37.3959 27.8193 37.7741 27.498 38.2527 27.2656C38.7357 27.0286 39.278 26.9102 39.8796 26.9102C40.5222 26.9102 41.0827 27.0173 41.5612 27.2314C42.0443 27.4411 42.4203 27.7555 42.6892 28.1748C42.9581 28.5941 43.0925 29.1136 43.0925 29.7334C43.0925 30.016 43.0264 30.3031 42.8943 30.5947C42.7621 30.8864 42.5661 31.153 42.3064 31.3945C42.0466 31.6315 41.723 31.8252 41.3357 31.9756C40.9483 32.1214 40.4994 32.1943 39.989 32.1943H38.7517V31.2783ZM38.7517 32.5635V31.6611H39.989C40.5723 31.6611 41.0691 31.7295 41.4792 31.8662C41.8939 32.0029 42.2312 32.1921 42.4909 32.4336C42.7507 32.6706 42.9398 32.9417 43.0583 33.2471C43.1814 33.5524 43.2429 33.876 43.2429 34.2178C43.2429 34.6826 43.1586 35.0973 42.99 35.4619C42.8259 35.8219 42.5912 36.1273 42.2859 36.3779C41.9805 36.6286 41.6228 36.8177 41.2126 36.9453C40.807 37.0729 40.365 37.1367 39.8864 37.1367C39.4581 37.1367 39.0479 37.0775 38.656 36.959C38.264 36.8405 37.9131 36.665 37.6032 36.4326C37.2933 36.1956 37.0473 35.9017 36.865 35.5508C36.6872 35.1953 36.5984 34.7852 36.5984 34.3203H38.2458C38.2458 34.6165 38.3142 34.8786 38.4509 35.1064C38.5922 35.3298 38.7881 35.5052 39.0388 35.6328C39.294 35.7604 39.5857 35.8242 39.9138 35.8242C40.2601 35.8242 40.5586 35.7627 40.8093 35.6396C41.0599 35.5166 41.2514 35.3343 41.3835 35.0928C41.5202 34.8512 41.5886 34.5596 41.5886 34.2178C41.5886 33.8304 41.5134 33.516 41.363 33.2744C41.2126 33.0329 40.9984 32.8551 40.7204 32.7412C40.4424 32.6227 40.1143 32.5635 39.7361 32.5635H38.7517ZM51.5382 31.1895V32.8164C51.5382 33.5957 51.4607 34.2611 51.3057 34.8125C51.1554 35.3594 50.9366 35.8037 50.6495 36.1455C50.3624 36.4873 50.0183 36.738 49.6173 36.8975C49.2208 37.057 48.7764 37.1367 48.2843 37.1367C47.8923 37.1367 47.5277 37.0866 47.1905 36.9863C46.8578 36.8861 46.557 36.7288 46.2882 36.5146C46.0193 36.3005 45.7891 36.0247 45.5977 35.6875C45.4109 35.3457 45.2651 34.9378 45.1602 34.4639C45.06 33.9899 45.0098 33.4408 45.0098 32.8164V31.1895C45.0098 30.4056 45.0873 29.7448 45.2423 29.207C45.3972 28.6647 45.6182 28.2249 45.9054 27.8877C46.1925 27.5459 46.5343 27.2975 46.9307 27.1426C47.3318 26.9876 47.7784 26.9102 48.2706 26.9102C48.6671 26.9102 49.0317 26.9603 49.3643 27.0605C49.7016 27.1562 50.0024 27.3089 50.2667 27.5186C50.5356 27.7282 50.7634 28.0016 50.9503 28.3389C51.1417 28.6715 51.2875 29.0749 51.3878 29.5488C51.488 30.0182 51.5382 30.5651 51.5382 31.1895ZM49.8907 33.0488V30.9434C49.8907 30.5469 49.8679 30.1982 49.8223 29.8975C49.7768 29.5921 49.7084 29.3346 49.6173 29.125C49.5307 28.9108 49.4213 28.7376 49.2891 28.6055C49.157 28.4688 49.0066 28.3708 48.838 28.3115C48.6693 28.2477 48.4802 28.2158 48.2706 28.2158C48.0154 28.2158 47.7875 28.266 47.587 28.3662C47.3865 28.4619 47.2179 28.6169 47.0811 28.8311C46.9444 29.0452 46.8396 29.3278 46.7667 29.6787C46.6983 30.0251 46.6641 30.4466 46.6641 30.9434V33.0488C46.6641 33.4499 46.6869 33.8031 46.7325 34.1084C46.7781 34.4137 46.8464 34.6758 46.9376 34.8945C47.0287 35.1087 47.1381 35.2865 47.2657 35.4277C47.3979 35.5645 47.5483 35.6647 47.7169 35.7285C47.8901 35.7923 48.0792 35.8242 48.2843 35.8242C48.544 35.8242 48.7742 35.7741 48.9747 35.6738C49.1752 35.5736 49.3438 35.4141 49.4805 35.1953C49.6173 34.972 49.7198 34.6826 49.7882 34.3271C49.8565 33.9717 49.8907 33.5456 49.8907 33.0488Z" fill="#1F1F1F"/>
<path opacity="0.1" d="M350.5 26.4167C347.1 26.4167 344.125 27.9042 342 30.2417L350.5 40.5834L359 30.2417C356.875 27.9042 353.9 26.4167 350.5 26.4167Z" fill="#1F1F1F"/>
<path d="M373.583 26.4167L359.417 40.5834H373.583V26.4167Z" fill="#1F1F1F"/>
<path d="M385.5 26H382.5V27.5H381C380.448 27.5 380 28.0037 380 28.625V39.875C380 40.4963 380.448 41 381 41H387C387.552 41 388 40.4963 388 39.875V28.625C388 28.0037 387.552 27.5 387 27.5H385.5V26Z" fill="#1F1F1F" fill-opacity="0.3"/>
<path d="M380 34C380 34.5833 380 39.3667 380 39.95C380 40.5299 380.448 41 381 41H387C387.552 41 388 40.5299 388 39.95C388 39.3667 388 34.5833 388 34H380Z" fill="#1F1F1F"/>
<path d="M0 436H30C35.5228 436 40 440.477 40 446V466C40 471.523 35.5228 476 30 476H0V436Z" fill="#421926"/>
<path d="M23 465H27C27.5304 465 28.0391 464.789 28.4142 464.414C28.7893 464.039 29 463.53 29 463V449C29 448.47 28.7893 447.961 28.4142 447.586C28.0391 447.211 27.5304 447 27 447H23" stroke="#F3DDE1" stroke-width="2" stroke-linecap="round" stroke-linejoin="round"/>
<path d="M16 461L11 456L16 451" stroke="#F3DDE1" stroke-width="2" stroke-linecap="round" stroke-linejoin="round"/>
<path d="M11 456H23" stroke="#F3DDE1" stroke-width="2" stroke-linecap="round" stroke-linejoin="round"/>
<path d="M41.436 751.636L39.012 760H37.788L35.844 753.268L33.828 760L32.616 760.012L30.276 751.636H31.44L33.264 758.728L35.28 751.636H36.504L38.424 758.704L40.26 751.636H41.436ZM42.223 756.688C42.223 756.016 42.359 755.428 42.631 754.924C42.903 754.412 43.275 754.016 43.747 753.736C44.227 753.456 44.759 753.316 45.343 753.316C45.919 753.316 46.419 753.44 46.843 753.688C47.267 753.936 47.583 754.248 47.791 754.624V753.424H48.895V760H47.791V758.776C47.575 759.16 47.251 759.48 46.819 759.736C46.395 759.984 45.899 760.108 45.331 760.108C44.747 760.108 44.219 759.964 43.747 759.676C43.275 759.388 42.903 758.984 42.631 758.464C42.359 757.944 42.223 757.352 42.223 756.688ZM47.791 756.7C47.791 756.204 47.691 755.772 47.491 755.404C47.291 755.036 47.019 754.756 46.675 754.564C46.339 754.364 45.967 754.264 45.559 754.264C45.151 754.264 44.779 754.36 44.443 754.552C44.107 754.744 43.839 755.024 43.639 755.392C43.439 755.76 43.339 756.192 43.339 756.688C43.339 757.192 43.439 757.632 43.639 758.008C43.839 758.376 44.107 758.66 44.443 758.86C44.779 759.052 45.151 759.148 45.559 759.148C45.967 759.148 46.339 759.052 46.675 758.86C47.019 758.66 47.291 758.376 47.491 758.008C47.691 757.632 47.791 757.196 47.791 756.7ZM51.3044 752.356C51.0964 752.356 50.9204 752.284 50.7764 752.14C50.6324 751.996 50.5604 751.82 50.5604 751.612C50.5604 751.404 50.6324 751.228 50.7764 751.084C50.9204 750.94 51.0964 750.868 51.3044 750.868C51.5044 750.868 51.6724 750.94 51.8084 751.084C51.9524 751.228 52.0244 751.404 52.0244 751.612C52.0244 751.82 51.9524 751.996 51.8084 752.14C51.6724 752.284 51.5044 752.356 51.3044 752.356ZM51.8324 753.424V760H50.7404V753.424H51.8324ZM55.0255 754.324V758.2C55.0255 758.52 55.0935 758.748 55.2295 758.884C55.3655 759.012 55.6015 759.076 55.9375 759.076H56.7415V760H55.7575C55.1495 760 54.6935 759.86 54.3895 759.58C54.0855 759.3 53.9335 758.84 53.9335 758.2V754.324H53.0815V753.424H53.9335V751.768H55.0255V753.424H56.7415V754.324H55.0255ZM58.6286 752.356C58.4206 752.356 58.2446 752.284 58.1006 752.14C57.9566 751.996 57.8846 751.82 57.8846 751.612C57.8846 751.404 57.9566 751.228 58.1006 751.084C58.2446 750.94 58.4206 750.868 58.6286 750.868C58.8286 750.868 58.9966 750.94 59.1326 751.084C59.2766 751.228 59.3486 751.404 59.3486 751.612C59.3486 751.82 59.2766 751.996 59.1326 752.14C58.9966 752.284 58.8286 752.356 58.6286 752.356ZM59.1566 753.424V760H58.0646V753.424H59.1566ZM64.2218 753.304C65.0218 753.304 65.6698 753.548 66.1658 754.036C66.6618 754.516 66.9098 755.212 66.9098 756.124V760H65.8298V756.28C65.8298 755.624 65.6658 755.124 65.3378 754.78C65.0098 754.428 64.5618 754.252 63.9938 754.252C63.4178 754.252 62.9578 754.432 62.6138 754.792C62.2778 755.152 62.1098 755.676 62.1098 756.364V760H61.0178V753.424H62.1098V754.36C62.3258 754.024 62.6178 753.764 62.9858 753.58C63.3618 753.396 63.7738 753.304 64.2218 753.304ZM71.4055 753.316C71.9735 753.316 72.4695 753.44 72.8935 753.688C73.3255 753.936 73.6455 754.248 73.8535 754.624V753.424H74.9575V760.144C74.9575 760.744 74.8295 761.276 74.5735 761.74C74.3175 762.212 73.9495 762.58 73.4695 762.844C72.9975 763.108 72.4455 763.24 71.8135 763.24C70.9495 763.24 70.2295 763.036 69.6535 762.628C69.0775 762.22 68.7375 761.664 68.6335 760.96H69.7135C69.8335 761.36 70.0815 761.68 70.4575 761.92C70.8335 762.168 71.2855 762.292 71.8135 762.292C72.4135 762.292 72.9015 762.104 73.2775 761.728C73.6615 761.352 73.8535 760.824 73.8535 760.144V758.764C73.6375 759.148 73.3175 759.468 72.8935 759.724C72.4695 759.98 71.9735 760.108 71.4055 760.108C70.8215 760.108 70.2895 759.964 69.8095 759.676C69.3375 759.388 68.9655 758.984 68.6935 758.464C68.4215 757.944 68.2855 757.352 68.2855 756.688C68.2855 756.016 68.4215 755.428 68.6935 754.924C68.9655 754.412 69.3375 754.016 69.8095 753.736C70.2895 753.456 70.8215 753.316 71.4055 753.316ZM73.8535 756.7C73.8535 756.204 73.7535 755.772 73.5535 755.404C73.3535 755.036 73.0815 754.756 72.7375 754.564C72.4015 754.364 72.0295 754.264 71.6215 754.264C71.2135 754.264 70.8415 754.36 70.5055 754.552C70.1695 754.744 69.9015 755.024 69.7015 755.392C69.5015 755.76 69.4015 756.192 69.4015 756.688C69.4015 757.192 69.5015 757.632 69.7015 758.008C69.9015 758.376 70.1695 758.66 70.5055 758.86C70.8415 759.052 71.2135 759.148 71.6215 759.148C72.0295 759.148 72.4015 759.052 72.7375 758.86C73.0815 758.66 73.3535 758.376 73.5535 758.008C73.7535 757.632 73.8535 757.196 73.8535 756.7ZM81.3341 754.324V758.2C81.3341 758.52 81.4021 758.748 81.5381 758.884C81.6741 759.012 81.9101 759.076 82.2461 759.076H83.0501V760H82.0661C81.4581 760 81.0021 759.86 80.6981 759.58C80.3941 759.3 80.2421 758.84 80.2421 758.2V754.324H79.3901V753.424H80.2421V751.768H81.3341V753.424H83.0501V754.324H81.3341ZM87.2412 760.108C86.6252 760.108 86.0652 759.968 85.5612 759.688C85.0652 759.408 84.6732 759.012 84.3852 758.5C84.1052 757.98 83.9652 757.38 83.9652 756.7C83.9652 756.028 84.1092 755.436 84.3972 754.924C84.6932 754.404 85.0932 754.008 85.5972 753.736C86.1012 753.456 86.6652 753.316 87.2892 753.316C87.9132 753.316 88.4772 753.456 88.9812 753.736C89.4852 754.008 89.8812 754.4 90.1692 754.912C90.4652 755.424 90.6132 756.02 90.6132 756.7C90.6132 757.38 90.4612 757.98 90.1572 758.5C89.8612 759.012 89.4572 759.408 88.9452 759.688C88.4332 759.968 87.8652 760.108 87.2412 760.108ZM87.2412 759.148C87.6332 759.148 88.0012 759.056 88.3452 758.872C88.6892 758.688 88.9652 758.412 89.1732 758.044C89.3892 757.676 89.4972 757.228 89.4972 756.7C89.4972 756.172 89.3932 755.724 89.1852 755.356C88.9772 754.988 88.7052 754.716 88.3692 754.54C88.0332 754.356 87.6692 754.264 87.2772 754.264C86.8772 754.264 86.5092 754.356 86.1732 754.54C85.8452 754.716 85.5812 754.988 85.3812 755.356C85.1812 755.724 85.0812 756.172 85.0812 756.7C85.0812 757.236 85.1772 757.688 85.3692 758.056C85.5692 758.424 85.8332 758.7 86.1612 758.884C86.4892 759.06 86.8492 759.148 87.2412 759.148ZM95.8362 752.356C95.6282 752.356 95.4522 752.284 95.3082 752.14C95.1722 751.996 95.1042 751.82 95.1042 751.612C95.1042 751.404 95.1722 751.228 95.3082 751.084C95.4522 750.94 95.6282 750.868 95.8362 750.868C96.0442 750.868 96.2162 750.94 96.3522 751.084C96.4962 751.228 96.5682 751.404 96.5682 751.612C96.5682 751.82 96.4962 751.996 96.3522 752.14C96.2162 752.284 96.0442 752.356 95.8362 752.356ZM96.3762 761.428C96.3762 762.012 96.2282 762.44 95.9322 762.712C95.6362 762.984 95.2042 763.12 94.6362 763.12H94.0002V762.196H94.4562C94.7602 762.196 94.9722 762.136 95.0922 762.016C95.2202 761.896 95.2842 761.692 95.2842 761.404V753.424H96.3762V761.428ZM101.093 760.108C100.477 760.108 99.9168 759.968 99.4128 759.688C98.9168 759.408 98.5248 759.012 98.2368 758.5C97.9568 757.98 97.8168 757.38 97.8168 756.7C97.8168 756.028 97.9608 755.436 98.2488 754.924C98.5448 754.404 98.9448 754.008 99.4488 753.736C99.9528 753.456 100.517 753.316 101.141 753.316C101.765 753.316 102.329 753.456 102.833 753.736C103.337 754.008 103.733 754.4 104.021 754.912C104.317 755.424 104.465 756.02 104.465 756.7C104.465 757.38 104.313 757.98 104.009 758.5C103.713 759.012 103.309 759.408 102.797 759.688C102.285 759.968 101.717 760.108 101.093 760.108ZM101.093 759.148C101.485 759.148 101.853 759.056 102.197 758.872C102.541 758.688 102.817 758.412 103.025 758.044C103.241 757.676 103.349 757.228 103.349 756.7C103.349 756.172 103.245 755.724 103.037 755.356C102.829 754.988 102.557 754.716 102.221 754.54C101.885 754.356 101.521 754.264 101.129 754.264C100.729 754.264 100.361 754.356 100.025 754.54C99.6968 754.716 99.4328 754.988 99.2328 755.356C99.0328 755.724 98.9328 756.172 98.9328 756.7C98.9328 757.236 99.0288 757.688 99.2208 758.056C99.4208 758.424 99.6848 758.7 100.013 758.884C100.341 759.06 100.701 759.148 101.093 759.148ZM106.465 752.356C106.257 752.356 106.081 752.284 105.937 752.14C105.793 751.996 105.721 751.82 105.721 751.612C105.721 751.404 105.793 751.228 105.937 751.084C106.081 750.94 106.257 750.868 106.465 750.868C106.665 750.868 106.833 750.94 106.969 751.084C107.113 751.228 107.185 751.404 107.185 751.612C107.185 751.82 107.113 751.996 106.969 752.14C106.833 752.284 106.665 752.356 106.465 752.356ZM106.993 753.424V760H105.901V753.424H106.993ZM112.058 753.304C112.858 753.304 113.506 753.548 114.002 754.036C114.498 754.516 114.746 755.212 114.746 756.124V760H113.666V756.28C113.666 755.624 113.502 755.124 113.174 754.78C112.846 754.428 112.398 754.252 111.83 754.252C111.254 754.252 110.794 754.432 110.45 754.792C110.114 755.152 109.946 755.676 109.946 756.364V760H108.854V753.424H109.946V754.36C110.162 754.024 110.454 753.764 110.822 753.58C111.198 753.396 111.61 753.304 112.058 753.304Z" fill="black"/>
<path d="M34.328 549L32.336 545.58H31.016V549H29.924V540.636H32.624C33.256 540.636 33.788 540.744 34.22 540.96C34.66 541.176 34.988 541.468 35.204 541.836C35.42 542.204 35.528 542.624 35.528 543.096C35.528 543.672 35.36 544.18 35.024 544.62C34.696 545.06 34.2 545.352 33.536 545.496L35.636 549H34.328ZM31.016 544.704H32.624C33.216 544.704 33.66 544.56 33.956 544.272C34.252 543.976 34.4 543.584 34.4 543.096C34.4 542.6 34.252 542.216 33.956 541.944C33.668 541.672 33.224 541.536 32.624 541.536H31.016V544.704ZM43.2248 545.46C43.2248 545.668 43.2128 545.888 43.1888 546.12H37.9328C37.9728 546.768 38.1928 547.276 38.5928 547.644C39.0008 548.004 39.4928 548.184 40.0688 548.184C40.5408 548.184 40.9328 548.076 41.2448 547.86C41.5648 547.636 41.7888 547.34 41.9168 546.972H43.0928C42.9168 547.604 42.5648 548.12 42.0368 548.52C41.5088 548.912 40.8528 549.108 40.0688 549.108C39.4448 549.108 38.8848 548.968 38.3888 548.688C37.9008 548.408 37.5168 548.012 37.2368 547.5C36.9568 546.98 36.8168 546.38 36.8168 545.7C36.8168 545.02 36.9528 544.424 37.2248 543.912C37.4968 543.4 37.8768 543.008 38.3648 542.736C38.8608 542.456 39.4288 542.316 40.0688 542.316C40.6928 542.316 41.2448 542.452 41.7248 542.724C42.2048 542.996 42.5728 543.372 42.8288 543.852C43.0928 544.324 43.2248 544.86 43.2248 545.46ZM42.0968 545.232C42.0968 544.816 42.0048 544.46 41.8208 544.164C41.6368 543.86 41.3848 543.632 41.0648 543.48C40.7528 543.32 40.4048 543.24 40.0208 543.24C39.4688 543.24 38.9968 543.416 38.6048 543.768C38.2208 544.12 38.0008 544.608 37.9448 545.232H42.0968ZM44.2582 545.688C44.2582 545.016 44.3942 544.428 44.6662 543.924C44.9382 543.412 45.3102 543.016 45.7822 542.736C46.2622 542.456 46.7942 542.316 47.3782 542.316C47.9542 542.316 48.4542 542.44 48.8782 542.688C49.3022 542.936 49.6182 543.248 49.8262 543.624V542.424H50.9302V549H49.8262V547.776C49.6102 548.16 49.2862 548.48 48.8542 548.736C48.4302 548.984 47.9342 549.108 47.3662 549.108C46.7822 549.108 46.2542 548.964 45.7822 548.676C45.3102 548.388 44.9382 547.984 44.6662 547.464C44.3942 546.944 44.2582 546.352 44.2582 545.688ZM49.8262 545.7C49.8262 545.204 49.7262 544.772 49.5262 544.404C49.3262 544.036 49.0542 543.756 48.7102 543.564C48.3742 543.364 48.0022 543.264 47.5942 543.264C47.1862 543.264 46.8142 543.36 46.4782 543.552C46.1422 543.744 45.8742 544.024 45.6742 544.392C45.4742 544.76 45.3742 545.192 45.3742 545.688C45.3742 546.192 45.4742 546.632 45.6742 547.008C45.8742 547.376 46.1422 547.66 46.4782 547.86C46.8142 548.052 47.1862 548.148 47.5942 548.148C48.0022 548.148 48.3742 548.052 48.7102 547.86C49.0542 547.66 49.3262 547.376 49.5262 547.008C49.7262 546.632 49.8262 546.196 49.8262 545.7ZM52.3676 545.688C52.3676 545.016 52.5036 544.428 52.7756 543.924C53.0476 543.412 53.4196 543.016 53.8916 542.736C54.3716 542.456 54.9076 542.316 55.4996 542.316C56.0116 542.316 56.4876 542.436 56.9276 542.676C57.3676 542.908 57.7036 543.216 57.9356 543.6V540.12H59.0396V549H57.9356V547.764C57.7196 548.156 57.3996 548.48 56.9756 548.736C56.5516 548.984 56.0556 549.108 55.4876 549.108C54.9036 549.108 54.3716 548.964 53.8916 548.676C53.4196 548.388 53.0476 547.984 52.7756 547.464C52.5036 546.944 52.3676 546.352 52.3676 545.688ZM57.9356 545.7C57.9356 545.204 57.8356 544.772 57.6356 544.404C57.4356 544.036 57.1636 543.756 56.8196 543.564C56.4836 543.364 56.1116 543.264 55.7036 543.264C55.2956 543.264 54.9236 543.36 54.5876 543.552C54.2516 543.744 53.9836 544.024 53.7836 544.392C53.5836 544.76 53.4836 545.192 53.4836 545.688C53.4836 546.192 53.5836 546.632 53.7836 547.008C53.9836 547.376 54.2516 547.66 54.5876 547.86C54.9236 548.052 55.2956 548.148 55.7036 548.148C56.1116 548.148 56.4836 548.052 56.8196 547.86C57.1636 547.66 57.4356 547.376 57.6356 547.008C57.8356 546.632 57.9356 546.196 57.9356 545.7ZM66.5489 542.424L62.5889 552.096H61.4609L62.7569 548.928L60.1049 542.424H61.3169L63.3809 547.752L65.4209 542.424H66.5489Z" fill="black"/>
<g opacity="0.5">
<rect x="30" y="772" width="352" height="68" rx="12" fill="#F7F3F0"/>
<g clip-path="url(#clip2_554_701)">
<circle cx="66" cy="808" r="20" fill="#421926"/>
</g>
<path d="M110.384 802.88V804.368H107.424V814H105.6V804.368H102.624V802.88H110.384ZM111.723 809.552C111.723 808.667 111.905 807.883 112.267 807.2C112.641 806.517 113.142 805.989 113.771 805.616C114.411 805.232 115.115 805.04 115.883 805.04C116.577 805.04 117.179 805.179 117.691 805.456C118.214 805.723 118.63 806.059 118.939 806.464V805.184H120.779V814H118.939V812.688C118.63 813.104 118.209 813.451 117.675 813.728C117.142 814.005 116.534 814.144 115.851 814.144C115.094 814.144 114.401 813.952 113.771 813.568C113.142 813.173 112.641 812.629 112.267 811.936C111.905 811.232 111.723 810.437 111.723 809.552ZM118.939 809.584C118.939 808.976 118.811 808.448 118.555 808C118.31 807.552 117.985 807.211 117.579 806.976C117.174 806.741 116.737 806.624 116.267 806.624C115.798 806.624 115.361 806.741 114.955 806.976C114.55 807.2 114.219 807.536 113.963 807.984C113.718 808.421 113.595 808.944 113.595 809.552C113.595 810.16 113.718 810.693 113.963 811.152C114.219 811.611 114.55 811.963 114.955 812.208C115.371 812.443 115.809 812.56 116.267 812.56C116.737 812.56 117.174 812.443 117.579 812.208C117.985 811.973 118.31 811.632 118.555 811.184C118.811 810.725 118.939 810.192 118.939 809.584ZM125.099 806.464C125.366 806.016 125.718 805.669 126.155 805.424C126.603 805.168 127.131 805.04 127.739 805.04V806.928H127.275C126.56 806.928 126.016 807.109 125.643 807.472C125.28 807.835 125.099 808.464 125.099 809.36V814H123.275V805.184H125.099V806.464ZM128.908 809.552C128.908 808.667 129.089 807.883 129.452 807.2C129.825 806.517 130.326 805.989 130.956 805.616C131.596 805.232 132.3 805.04 133.068 805.04C133.761 805.04 134.364 805.179 134.876 805.456C135.398 805.723 135.814 806.059 136.124 806.464V805.184H137.964V814H136.124V812.688C135.814 813.104 135.393 813.451 134.86 813.728C134.326 814.005 133.718 814.144 133.036 814.144C132.278 814.144 131.585 813.952 130.956 813.568C130.326 813.173 129.825 812.629 129.452 811.936C129.089 811.232 128.908 810.437 128.908 809.552ZM136.124 809.584C136.124 808.976 135.996 808.448 135.74 808C135.494 807.552 135.169 807.211 134.764 806.976C134.358 806.741 133.921 806.624 133.452 806.624C132.982 806.624 132.545 806.741 132.14 806.976C131.734 807.2 131.404 807.536 131.148 807.984C130.902 808.421 130.78 808.944 130.78 809.552C130.78 810.16 130.902 810.693 131.148 811.152C131.404 811.611 131.734 811.963 132.14 812.208C132.556 812.443 132.993 812.56 133.452 812.56C133.921 812.56 134.358 812.443 134.764 812.208C135.169 811.973 135.494 811.632 135.74 811.184C135.996 810.725 136.124 810.192 136.124 809.584Z" fill="#201A1B"/>
</g>
<rect x="29" y="561" width="352" height="68" rx="12" fill="#F7F3F0"/>
<g clip-path="url(#clip3_554_701)">
<circle cx="65" cy="597" r="20" fill="#421926"/>
</g>
<path d="M113.912 591.88V603H112.088V595.384L108.696 603H107.432L104.024 595.384V603H102.2V591.88H104.168L108.072 600.6L111.96 591.88H113.912ZM117.337 593.016C117.007 593.016 116.729 592.904 116.505 592.68C116.281 592.456 116.169 592.179 116.169 591.848C116.169 591.517 116.281 591.24 116.505 591.016C116.729 590.792 117.007 590.68 117.337 590.68C117.657 590.68 117.929 590.792 118.153 591.016C118.377 591.24 118.489 591.517 118.489 591.848C118.489 592.179 118.377 592.456 118.153 592.68C117.929 592.904 117.657 593.016 117.337 593.016ZM118.233 594.184V603H116.409V594.184H118.233ZM122.552 595.464C122.819 595.016 123.171 594.669 123.608 594.424C124.056 594.168 124.584 594.04 125.192 594.04V595.928H124.728C124.013 595.928 123.469 596.109 123.096 596.472C122.733 596.835 122.552 597.464 122.552 598.36V603H120.728V594.184H122.552V595.464ZM126.361 598.552C126.361 597.667 126.542 596.883 126.905 596.2C127.278 595.517 127.779 594.989 128.409 594.616C129.049 594.232 129.753 594.04 130.521 594.04C131.214 594.04 131.817 594.179 132.329 594.456C132.851 594.723 133.267 595.059 133.577 595.464V594.184H135.417V603H133.577V601.688C133.267 602.104 132.846 602.451 132.313 602.728C131.779 603.005 131.171 603.144 130.489 603.144C129.731 603.144 129.038 602.952 128.409 602.568C127.779 602.173 127.278 601.629 126.905 600.936C126.542 600.232 126.361 599.437 126.361 598.552ZM133.577 598.584C133.577 597.976 133.449 597.448 133.193 597C132.947 596.552 132.622 596.211 132.217 595.976C131.811 595.741 131.374 595.624 130.905 595.624C130.435 595.624 129.998 595.741 129.593 595.976C129.187 596.2 128.857 596.536 128.601 596.984C128.355 597.421 128.233 597.944 128.233 598.552C128.233 599.16 128.355 599.693 128.601 600.152C128.857 600.611 129.187 600.963 129.593 601.208C130.009 601.443 130.446 601.56 130.905 601.56C131.374 601.56 131.811 601.443 132.217 601.208C132.622 600.973 132.947 600.632 133.193 600.184C133.449 599.725 133.577 599.192 133.577 598.584ZM138.841 593.016C138.51 593.016 138.233 592.904 138.009 592.68C137.785 592.456 137.673 592.179 137.673 591.848C137.673 591.517 137.785 591.24 138.009 591.016C138.233 590.792 138.51 590.68 138.841 590.68C139.161 590.68 139.433 590.792 139.657 591.016C139.881 591.24 139.993 591.517 139.993 591.848C139.993 592.179 139.881 592.456 139.657 592.68C139.433 592.904 139.161 593.016 138.841 593.016ZM139.737 594.184V603H137.913V594.184H139.737Z" fill="#201A1B"/>
<rect x="29" y="641" width="352" height="68" rx="12" fill="#F7F3F0"/>
<g clip-path="url(#clip4_554_701)">
<circle cx="65" cy="677" r="20" fill="#421926"/>
</g>
<path d="M107.976 683L105.416 678.552H104.024V683H102.2V671.88H106.04C106.893 671.88 107.613 672.029 108.2 672.328C108.797 672.627 109.24 673.027 109.528 673.528C109.827 674.029 109.976 674.589 109.976 675.208C109.976 675.933 109.763 676.595 109.336 677.192C108.92 677.779 108.275 678.179 107.4 678.392L110.152 683H107.976ZM104.024 677.096H106.04C106.723 677.096 107.235 676.925 107.576 676.584C107.928 676.243 108.104 675.784 108.104 675.208C108.104 674.632 107.933 674.184 107.592 673.864C107.251 673.533 106.733 673.368 106.04 673.368H104.024V677.096ZM116.233 683.144C115.401 683.144 114.649 682.957 113.977 682.584C113.305 682.2 112.777 681.667 112.393 680.984C112.009 680.291 111.817 679.491 111.817 678.584C111.817 677.688 112.015 676.893 112.409 676.2C112.804 675.507 113.343 674.973 114.025 674.6C114.708 674.227 115.471 674.04 116.313 674.04C117.156 674.04 117.919 674.227 118.601 674.6C119.284 674.973 119.823 675.507 120.217 676.2C120.612 676.893 120.809 677.688 120.809 678.584C120.809 679.48 120.607 680.275 120.201 680.968C119.796 681.661 119.241 682.2 118.537 682.584C117.844 682.957 117.076 683.144 116.233 683.144ZM116.233 681.56C116.703 681.56 117.14 681.448 117.545 681.224C117.961 681 118.297 680.664 118.553 680.216C118.809 679.768 118.937 679.224 118.937 678.584C118.937 677.944 118.815 677.405 118.569 676.968C118.324 676.52 117.999 676.184 117.593 675.96C117.188 675.736 116.751 675.624 116.281 675.624C115.812 675.624 115.375 675.736 114.969 675.96C114.575 676.184 114.26 676.52 114.025 676.968C113.791 677.405 113.673 677.944 113.673 678.584C113.673 679.533 113.913 680.269 114.393 680.792C114.884 681.304 115.497 681.56 116.233 681.56ZM133.385 674.04C134.078 674.04 134.697 674.184 135.241 674.472C135.795 674.76 136.227 675.187 136.537 675.752C136.857 676.317 137.017 677 137.017 677.8V683H135.209V678.072C135.209 677.283 135.011 676.68 134.617 676.264C134.222 675.837 133.683 675.624 133.001 675.624C132.318 675.624 131.774 675.837 131.369 676.264C130.974 676.68 130.777 677.283 130.777 678.072V683H128.969V678.072C128.969 677.283 128.771 676.68 128.377 676.264C127.982 675.837 127.443 675.624 126.761 675.624C126.078 675.624 125.534 675.837 125.129 676.264C124.734 676.68 124.537 677.283 124.537 678.072V683H122.713V674.184H124.537V675.192C124.835 674.829 125.214 674.547 125.673 674.344C126.131 674.141 126.622 674.04 127.145 674.04C127.849 674.04 128.478 674.189 129.033 674.488C129.587 674.787 130.014 675.219 130.313 675.784C130.579 675.251 130.995 674.829 131.561 674.52C132.126 674.2 132.734 674.04 133.385 674.04ZM140.365 673.016C140.035 673.016 139.757 672.904 139.533 672.68C139.309 672.456 139.197 672.179 139.197 671.848C139.197 671.517 139.309 671.24 139.533 671.016C139.757 670.792 140.035 670.68 140.365 670.68C140.685 670.68 140.957 670.792 141.181 671.016C141.405 671.24 141.517 671.517 141.517 671.848C141.517 672.179 141.405 672.456 141.181 672.68C140.957 672.904 140.685 673.016 140.365 673.016ZM141.261 674.184V683H139.437V674.184H141.261ZM148.204 674.04C148.898 674.04 149.516 674.184 150.06 674.472C150.615 674.76 151.047 675.187 151.356 675.752C151.666 676.317 151.82 677 151.82 677.8V683H150.012V678.072C150.012 677.283 149.815 676.68 149.42 676.264C149.026 675.837 148.487 675.624 147.804 675.624C147.122 675.624 146.578 675.837 146.172 676.264C145.778 676.68 145.58 677.283 145.58 678.072V683H143.756V674.184H145.58V675.192C145.879 674.829 146.258 674.547 146.716 674.344C147.186 674.141 147.682 674.04 148.204 674.04ZM153.639 678.552C153.639 677.667 153.82 676.883 154.183 676.2C154.556 675.517 155.058 674.989 155.687 674.616C156.327 674.232 157.031 674.04 157.799 674.04C158.492 674.04 159.095 674.179 159.607 674.456C160.13 674.723 160.546 675.059 160.855 675.464V674.184H162.695V683H160.855V681.688C160.546 682.104 160.124 682.451 159.591 682.728C159.058 683.005 158.45 683.144 157.767 683.144C157.01 683.144 156.316 682.952 155.687 682.568C155.058 682.173 154.556 681.629 154.183 680.936C153.82 680.232 153.639 679.437 153.639 678.552ZM160.855 678.584C160.855 677.976 160.727 677.448 160.471 677C160.226 676.552 159.9 676.211 159.495 675.976C159.09 675.741 158.652 675.624 158.183 675.624C157.714 675.624 157.276 675.741 156.871 675.976C156.466 676.2 156.135 676.536 155.879 676.984C155.634 677.421 155.511 677.944 155.511 678.552C155.511 679.16 155.634 679.693 155.879 680.152C156.135 680.611 156.466 680.963 156.871 681.208C157.287 681.443 157.724 681.56 158.183 681.56C158.652 681.56 159.09 681.443 159.495 681.208C159.9 680.973 160.226 680.632 160.471 680.184C160.727 679.725 160.855 679.192 160.855 678.584Z" fill="#201A1B"/>
</g>
<defs>
<clipPath id="clip0_554_701">
<rect width="412" height="892" fill="white"/>
</clipPath>
<clipPath id="clip1_554_701">
<rect width="412" height="371.903" fill="white"/>
</clipPath>
<clipPath id="clip2_554_701">
<rect width="40" height="40" fill="white" transform="translate(46 788)"/>
</clipPath>
<clipPath id="clip3_554_701">
<rect width="40" height="40" fill="white" transform="translate(45 577)"/>
</clipPath>
<clipPath id="clip4_554_701">
<rect width="40" height="40" fill="white" transform="translate(45 657)"/>
</clipPath>
</defs>
</svg>
