<svg width="412" height="892" viewBox="0 0 412 892" fill="none" xmlns="http://www.w3.org/2000/svg">
<rect width="412" height="892" fill="#FEF5F6"/>
<path d="M137.779 119.964H141.195V121H136.505V111.242H137.779V119.964ZM149.548 116.87C149.548 117.113 149.534 117.369 149.506 117.64H143.374C143.42 118.396 143.677 118.989 144.144 119.418C144.62 119.838 145.194 120.048 145.866 120.048C146.416 120.048 146.874 119.922 147.238 119.67C147.611 119.409 147.872 119.063 148.022 118.634H149.394C149.188 119.371 148.778 119.973 148.162 120.44C147.546 120.897 146.78 121.126 145.866 121.126C145.138 121.126 144.484 120.963 143.906 120.636C143.336 120.309 142.888 119.847 142.562 119.25C142.235 118.643 142.072 117.943 142.072 117.15C142.072 116.357 142.23 115.661 142.548 115.064C142.865 114.467 143.308 114.009 143.878 113.692C144.456 113.365 145.119 113.202 145.866 113.202C146.594 113.202 147.238 113.361 147.798 113.678C148.358 113.995 148.787 114.434 149.086 114.994C149.394 115.545 149.548 116.17 149.548 116.87ZM148.232 116.604C148.232 116.119 148.124 115.703 147.91 115.358C147.695 115.003 147.401 114.737 147.028 114.56C146.664 114.373 146.258 114.28 145.81 114.28C145.166 114.28 144.615 114.485 144.158 114.896C143.71 115.307 143.453 115.876 143.388 116.604H148.232ZM152.783 114.378V118.9C152.783 119.273 152.863 119.539 153.021 119.698C153.18 119.847 153.455 119.922 153.847 119.922H154.785V121H153.637C152.928 121 152.396 120.837 152.041 120.51C151.687 120.183 151.509 119.647 151.509 118.9V114.378H150.515V113.328H151.509V111.396H152.783V113.328H154.785V114.378H152.783ZM156.525 111.242H157.939L156.595 114.42H155.699L156.525 111.242ZM162.107 121.126C161.519 121.126 160.992 121.028 160.525 120.832C160.059 120.627 159.69 120.347 159.419 119.992C159.149 119.628 158.999 119.213 158.971 118.746H160.287C160.325 119.129 160.502 119.441 160.819 119.684C161.146 119.927 161.571 120.048 162.093 120.048C162.579 120.048 162.961 119.941 163.241 119.726C163.521 119.511 163.661 119.241 163.661 118.914C163.661 118.578 163.512 118.331 163.213 118.172C162.915 118.004 162.453 117.841 161.827 117.682C161.258 117.533 160.791 117.383 160.427 117.234C160.073 117.075 159.765 116.847 159.503 116.548C159.251 116.24 159.125 115.839 159.125 115.344C159.125 114.952 159.242 114.593 159.475 114.266C159.709 113.939 160.04 113.683 160.469 113.496C160.899 113.3 161.389 113.202 161.939 113.202C162.789 113.202 163.475 113.417 163.997 113.846C164.52 114.275 164.8 114.863 164.837 115.61H163.563C163.535 115.209 163.372 114.887 163.073 114.644C162.784 114.401 162.392 114.28 161.897 114.28C161.44 114.28 161.076 114.378 160.805 114.574C160.535 114.77 160.399 115.027 160.399 115.344C160.399 115.596 160.479 115.806 160.637 115.974C160.805 116.133 161.011 116.263 161.253 116.366C161.505 116.459 161.851 116.567 162.289 116.688C162.84 116.837 163.288 116.987 163.633 117.136C163.979 117.276 164.273 117.491 164.515 117.78C164.767 118.069 164.898 118.447 164.907 118.914C164.907 119.334 164.791 119.712 164.557 120.048C164.324 120.384 163.993 120.65 163.563 120.846C163.143 121.033 162.658 121.126 162.107 121.126ZM173.154 121.126C172.566 121.126 172.039 121.028 171.572 120.832C171.106 120.627 170.737 120.347 170.466 119.992C170.196 119.628 170.046 119.213 170.018 118.746H171.334C171.372 119.129 171.549 119.441 171.866 119.684C172.193 119.927 172.618 120.048 173.14 120.048C173.626 120.048 174.008 119.941 174.288 119.726C174.568 119.511 174.708 119.241 174.708 118.914C174.708 118.578 174.559 118.331 174.26 118.172C173.962 118.004 173.5 117.841 172.874 117.682C172.305 117.533 171.838 117.383 171.474 117.234C171.12 117.075 170.812 116.847 170.55 116.548C170.298 116.24 170.172 115.839 170.172 115.344C170.172 114.952 170.289 114.593 170.522 114.266C170.756 113.939 171.087 113.683 171.516 113.496C171.946 113.3 172.436 113.202 172.986 113.202C173.836 113.202 174.522 113.417 175.044 113.846C175.567 114.275 175.847 114.863 175.884 115.61H174.61C174.582 115.209 174.419 114.887 174.12 114.644C173.831 114.401 173.439 114.28 172.944 114.28C172.487 114.28 172.123 114.378 171.852 114.574C171.582 114.77 171.446 115.027 171.446 115.344C171.446 115.596 171.526 115.806 171.684 115.974C171.852 116.133 172.058 116.263 172.3 116.366C172.552 116.459 172.898 116.567 173.336 116.688C173.887 116.837 174.335 116.987 174.68 117.136C175.026 117.276 175.32 117.491 175.562 117.78C175.814 118.069 175.945 118.447 175.954 118.914C175.954 119.334 175.838 119.712 175.604 120.048C175.371 120.384 175.04 120.65 174.61 120.846C174.19 121.033 173.705 121.126 173.154 121.126ZM179.307 114.378V118.9C179.307 119.273 179.386 119.539 179.545 119.698C179.703 119.847 179.979 119.922 180.371 119.922H181.309V121H180.161C179.451 121 178.919 120.837 178.565 120.51C178.21 120.183 178.033 119.647 178.033 118.9V114.378H177.039V113.328H178.033V111.396H179.307V113.328H181.309V114.378H179.307ZM182.376 117.136C182.376 116.352 182.535 115.666 182.852 115.078C183.17 114.481 183.604 114.019 184.154 113.692C184.714 113.365 185.335 113.202 186.016 113.202C186.688 113.202 187.272 113.347 187.766 113.636C188.261 113.925 188.63 114.289 188.872 114.728V113.328H190.16V121H188.872V119.572C188.62 120.02 188.242 120.393 187.738 120.692C187.244 120.981 186.665 121.126 186.002 121.126C185.321 121.126 184.705 120.958 184.154 120.622C183.604 120.286 183.17 119.815 182.852 119.208C182.535 118.601 182.376 117.911 182.376 117.136ZM188.872 117.15C188.872 116.571 188.756 116.067 188.522 115.638C188.289 115.209 187.972 114.882 187.57 114.658C187.178 114.425 186.744 114.308 186.268 114.308C185.792 114.308 185.358 114.42 184.966 114.644C184.574 114.868 184.262 115.195 184.028 115.624C183.795 116.053 183.678 116.557 183.678 117.136C183.678 117.724 183.795 118.237 184.028 118.676C184.262 119.105 184.574 119.437 184.966 119.67C185.358 119.894 185.792 120.006 186.268 120.006C186.744 120.006 187.178 119.894 187.57 119.67C187.972 119.437 188.289 119.105 188.522 118.676C188.756 118.237 188.872 117.729 188.872 117.15ZM193.587 114.574C193.811 114.135 194.129 113.795 194.539 113.552C194.959 113.309 195.468 113.188 196.065 113.188V114.504H195.729C194.301 114.504 193.587 115.279 193.587 116.828V121H192.313V113.328H193.587V114.574ZM199.09 114.378V118.9C199.09 119.273 199.169 119.539 199.328 119.698C199.487 119.847 199.762 119.922 200.154 119.922H201.092V121H199.944C199.235 121 198.703 120.837 198.348 120.51C197.993 120.183 197.816 119.647 197.816 118.9V114.378H196.822V113.328H197.816V111.396H199.09V113.328H201.092V114.378H199.09ZM216.588 113.328L214.194 121H212.878L211.03 114.91L209.182 121H207.866L205.458 113.328H206.76L208.524 119.768L210.428 113.328H211.73L213.592 119.782L215.328 113.328H216.588ZM218.51 112.082C218.268 112.082 218.062 111.998 217.894 111.83C217.726 111.662 217.642 111.457 217.642 111.214C217.642 110.971 217.726 110.766 217.894 110.598C218.062 110.43 218.268 110.346 218.51 110.346C218.744 110.346 218.94 110.43 219.098 110.598C219.266 110.766 219.35 110.971 219.35 111.214C219.35 111.457 219.266 111.662 219.098 111.83C218.94 111.998 218.744 112.082 218.51 112.082ZM219.126 113.328V121H217.852V113.328H219.126ZM222.852 114.378V118.9C222.852 119.273 222.931 119.539 223.09 119.698C223.248 119.847 223.524 119.922 223.916 119.922H224.854V121H223.706C222.996 121 222.464 120.837 222.11 120.51C221.755 120.183 221.578 119.647 221.578 118.9V114.378H220.584V113.328H221.578V111.396H222.852V113.328H224.854V114.378H222.852ZM230.205 113.188C230.784 113.188 231.307 113.314 231.773 113.566C232.24 113.809 232.604 114.177 232.865 114.672C233.136 115.167 233.271 115.769 233.271 116.478V121H232.011V116.66C232.011 115.895 231.82 115.311 231.437 114.91C231.055 114.499 230.532 114.294 229.869 114.294C229.197 114.294 228.661 114.504 228.259 114.924C227.867 115.344 227.671 115.955 227.671 116.758V121H226.397V110.64H227.671V114.42C227.923 114.028 228.269 113.725 228.707 113.51C229.155 113.295 229.655 113.188 230.205 113.188ZM249.305 113.328L246.911 121H245.595L243.747 114.91L241.899 121H240.583L238.175 113.328H239.477L241.241 119.768L243.145 113.328H244.447L246.309 119.782L248.045 113.328H249.305ZM251.227 112.082C250.985 112.082 250.779 111.998 250.611 111.83C250.443 111.662 250.359 111.457 250.359 111.214C250.359 110.971 250.443 110.766 250.611 110.598C250.779 110.43 250.985 110.346 251.227 110.346C251.461 110.346 251.657 110.43 251.815 110.598C251.983 110.766 252.067 110.971 252.067 111.214C252.067 111.457 251.983 111.662 251.815 111.83C251.657 111.998 251.461 112.082 251.227 112.082ZM251.843 113.328V121H250.569V113.328H251.843ZM257.753 113.188C258.686 113.188 259.442 113.473 260.021 114.042C260.599 114.602 260.889 115.414 260.889 116.478V121H259.629V116.66C259.629 115.895 259.437 115.311 259.055 114.91C258.672 114.499 258.149 114.294 257.487 114.294C256.815 114.294 256.278 114.504 255.877 114.924C255.485 115.344 255.289 115.955 255.289 116.758V121H254.015V113.328H255.289V114.42C255.541 114.028 255.881 113.725 256.311 113.51C256.749 113.295 257.23 113.188 257.753 113.188ZM269.97 116.87C269.97 117.113 269.956 117.369 269.928 117.64H263.796C263.842 118.396 264.099 118.989 264.566 119.418C265.042 119.838 265.616 120.048 266.288 120.048C266.838 120.048 267.296 119.922 267.66 119.67C268.033 119.409 268.294 119.063 268.444 118.634H269.816C269.61 119.371 269.2 119.973 268.584 120.44C267.968 120.897 267.202 121.126 266.288 121.126C265.56 121.126 264.906 120.963 264.328 120.636C263.758 120.309 263.31 119.847 262.984 119.25C262.657 118.643 262.494 117.943 262.494 117.15C262.494 116.357 262.652 115.661 262.97 115.064C263.287 114.467 263.73 114.009 264.3 113.692C264.878 113.365 265.541 113.202 266.288 113.202C267.016 113.202 267.66 113.361 268.22 113.678C268.78 113.995 269.209 114.434 269.508 114.994C269.816 115.545 269.97 116.17 269.97 116.87ZM268.654 116.604C268.654 116.119 268.546 115.703 268.332 115.358C268.117 115.003 267.823 114.737 267.45 114.56C267.086 114.373 266.68 114.28 266.232 114.28C265.588 114.28 265.037 114.485 264.58 114.896C264.132 115.307 263.875 115.876 263.81 116.604H268.654Z" fill="black"/>
<path d="M189.319 154.664V145.768C189.319 143.827 188.988 142.493 188.327 141.768C187.666 141.043 186.471 140.68 184.743 140.68V140.36H193.799V140.68C192.284 140.68 191.228 141.043 190.631 141.768C190.034 142.493 189.735 143.827 189.735 145.768V161.128H188.999L176.231 144.232L175.879 143.816C175.815 143.816 175.783 144.008 175.783 144.392V154.824C175.783 157.171 176.103 158.728 176.743 159.496C177.383 160.264 178.578 160.648 180.327 160.648V161H171.015V160.648C172.679 160.648 173.82 160.307 174.439 159.624C175.058 158.941 175.367 157.597 175.367 155.592V144.712C175.367 143.517 175.047 142.579 174.407 141.896C173.639 141.085 172.508 140.68 171.015 140.68V140.36H177.607L188.711 154.76C188.988 155.123 189.159 155.304 189.223 155.304C189.287 155.304 189.319 155.091 189.319 154.664ZM206.481 154.28C206.481 156.349 205.766 158.067 204.337 159.432C203.036 160.669 201.574 161.288 199.953 161.288C198.289 161.288 196.838 160.712 195.601 159.56C194.15 158.216 193.425 156.456 193.425 154.28C193.425 152.211 194.14 150.504 195.569 149.16C196.87 147.944 198.332 147.336 199.953 147.336C201.596 147.336 203.046 147.912 204.305 149.064C205.756 150.387 206.481 152.125 206.481 154.28ZM203.153 154.28C203.153 151.912 202.95 150.248 202.545 149.288C202.076 148.179 201.212 147.624 199.953 147.624C198.801 147.624 197.98 148.157 197.489 149.224C196.998 150.291 196.753 151.976 196.753 154.28C196.753 156.627 196.966 158.333 197.393 159.4C197.841 160.467 198.694 161 199.953 161C201.105 161 201.926 160.456 202.417 159.368C202.908 158.28 203.153 156.584 203.153 154.28ZM209.561 157.384C210.115 157.384 210.574 157.576 210.937 157.96C211.321 158.323 211.513 158.781 211.513 159.336C211.513 159.891 211.321 160.36 210.937 160.744C210.574 161.107 210.115 161.288 209.561 161.288C209.006 161.288 208.537 161.107 208.153 160.744C207.79 160.36 207.609 159.891 207.609 159.336C207.609 158.781 207.79 158.323 208.153 157.96C208.537 157.576 209.006 157.384 209.561 157.384ZM223.918 141.928C226.499 141.928 228.259 141.811 229.198 141.576C230.136 141.32 231 140.829 231.79 140.104H232.206V158.888C232.206 159.507 232.248 159.901 232.334 160.072C232.376 160.157 232.515 160.253 232.75 160.36C233.006 160.445 233.443 160.52 234.062 160.584C234.702 160.648 235.406 160.68 236.174 160.68V161H223.918V160.68C224.835 160.68 225.624 160.648 226.286 160.584C226.968 160.52 227.427 160.445 227.662 160.36C227.918 160.253 228.078 160.136 228.142 160.008C228.227 159.859 228.27 159.485 228.27 158.888V144.04C228.27 143.464 228.206 143.101 228.078 142.952C227.971 142.781 227.79 142.653 227.534 142.568C227.278 142.461 226.894 142.397 226.382 142.376C225.87 142.333 225.048 142.312 223.918 142.312V141.928Z" fill="black"/>
<circle cx="205" cy="425" r="158" fill="#F4DEE3"/>
<path style="mix-blend-mode:multiply" d="M254.466 605.928C254.466 611.986 232.424 616 205.233 616C178.042 616 156 611.986 156 605.928C156 599.869 178.042 598.274 205.233 598.274C232.424 598.274 254.466 599.869 254.466 605.928Z" fill="url(#paint0_radial_554_777)"/>
<path d="M222.191 324.987V239.501C222.191 237.402 220.678 235.601 218.607 235.258C208.864 233.626 201.841 233.543 191.864 235.244C189.793 235.596 188.28 237.389 188.28 239.487V324.987C188.28 330.615 185.87 335.974 181.659 339.709L175.656 345.036C166.054 353.553 160.559 365.779 160.559 378.614V599.079C160.559 604.03 164.157 608.241 169.045 609.037C195.943 613.408 214.295 613.417 241.413 609.032C246.305 608.241 249.908 604.026 249.908 599.074V378.618C249.908 365.784 244.412 353.558 234.811 345.04L228.807 339.714C224.596 335.978 222.187 330.62 222.187 324.991L222.191 324.987Z" fill="#0C0B0B"/>
<path style="mix-blend-mode:screen" d="M187.237 348.067C178.015 348.067 163.905 356.475 163.905 380.62V599.696C163.905 602.773 166.191 605.214 169.204 605.836C176.739 607.391 190.31 609.649 195.467 607.423C202.792 604.259 201.584 416.882 201.072 399.339C200.62 383.862 203.784 348.062 187.237 348.062V348.067Z" fill="url(#paint1_linear_554_777)"/>
<path style="mix-blend-mode:screen" d="M227.39 348.88C234.17 348.88 247.786 356.475 247.786 380.62V597.917C247.786 600.994 246.451 603.029 245.592 604.058C243.187 606.943 236.534 607.903 234.719 606.499C231.249 603.82 232.186 416.882 232.396 399.339C232.584 383.862 220.536 348.876 227.39 348.876V348.88Z" fill="url(#paint2_linear_554_777)"/>
<path style="mix-blend-mode:screen" opacity="0.5" d="M190.584 313.492C190.159 324.369 191.238 333.527 189.491 335.018C189.409 335.086 189.404 335.205 189.477 335.283C189.916 335.726 191.37 336.732 194.283 336.732C198.759 336.732 202.878 332.302 202.878 326.152V313.492H190.579H190.584Z" fill="url(#paint3_linear_554_777)"/>
<path style="mix-blend-mode:screen" opacity="0.35" d="M220.015 313.492V331.067C220.015 332.727 218.552 334.204 216.44 334.597C216.412 334.602 216.389 334.606 216.362 334.611C213.815 335.063 211.127 332.306 211.127 326.157V313.497H220.01L220.015 313.492Z" fill="url(#paint4_linear_554_777)"/>
<path d="M222.191 239.501V317.89C216.874 316.894 193.167 317.369 188.28 317.977V239.482C188.28 237.384 189.793 235.591 191.864 235.239C201.841 233.543 208.859 233.625 218.607 235.258C220.678 235.601 222.191 237.402 222.191 239.501Z" fill="url(#paint5_linear_554_777)"/>
<g style="mix-blend-mode:multiply" opacity="0.5">
<path d="M222.191 252.998V255.302C222.191 255.302 222.168 256.953 222.159 256.953C210.898 256.116 199.573 255.485 188.312 256.326C188.302 256.326 188.289 255.302 188.28 255.307V253.002C188.28 253.002 188.302 253.002 188.312 253.002C199.573 252.166 210.898 252.166 222.159 253.002C222.168 253.002 222.182 253.002 222.191 253.002V252.998Z" fill="url(#paint6_linear_554_777)"/>
</g>
<g style="mix-blend-mode:multiply" opacity="0.5">
<path d="M222.191 241.741V244.045C222.191 244.045 222.168 245.696 222.159 245.696C210.898 244.859 199.573 244.228 188.312 245.069C188.302 245.069 188.289 244.045 188.28 244.05V241.746C188.28 241.746 188.302 241.746 188.312 241.746C199.573 240.909 210.898 240.909 222.159 241.746C222.168 241.746 222.182 241.746 222.191 241.746V241.741Z" fill="url(#paint7_linear_554_777)"/>
</g>
<path d="M221.78 254.127C210.756 253.473 199.705 253.473 188.686 254.127C187.909 254.173 187.283 253.569 187.283 252.778V244.118C187.283 243.328 187.909 242.642 188.686 242.596C199.71 241.942 210.761 241.942 221.78 242.596C222.557 242.642 223.183 243.328 223.183 244.118V252.778C223.183 253.569 222.557 254.173 221.78 254.127Z" fill="url(#paint8_linear_554_777)"/>
<path d="M249.903 394.2H160.559V537.098H249.903V394.2Z" fill="#FBFBFB"/>
<g clip-path="url(#clip0_554_777)">
<path style="mix-blend-mode:multiply" opacity="0.4" d="M249.903 394.2H160.558V537.098H249.903V394.2Z" fill="url(#paint9_linear_554_777)"/>
</g>
<path d="M26.0781 35.7012H26.2148C26.8438 35.7012 27.3678 35.6191 27.7871 35.4551C28.2109 35.2865 28.5482 35.054 28.7988 34.7578C29.0495 34.4616 29.2295 34.113 29.3389 33.7119C29.4482 33.3109 29.5029 32.8757 29.5029 32.4062V30.6904C29.5029 30.2848 29.4596 29.9294 29.373 29.624C29.291 29.3141 29.1725 29.0566 29.0176 28.8516C28.8672 28.6419 28.6917 28.4847 28.4912 28.3799C28.2952 28.2751 28.0833 28.2227 27.8555 28.2227C27.6048 28.2227 27.3792 28.2796 27.1787 28.3936C26.9827 28.5029 26.8164 28.6556 26.6797 28.8516C26.5475 29.043 26.445 29.2686 26.3721 29.5283C26.3037 29.7835 26.2695 30.057 26.2695 30.3486C26.2695 30.6221 26.3014 30.8864 26.3652 31.1416C26.4336 31.3923 26.5339 31.6156 26.666 31.8115C26.7982 32.0075 26.9645 32.1624 27.165 32.2764C27.3656 32.3903 27.6003 32.4473 27.8691 32.4473C28.1243 32.4473 28.359 32.3994 28.5732 32.3037C28.7874 32.2035 28.9743 32.069 29.1338 31.9004C29.2933 31.7318 29.4186 31.5426 29.5098 31.333C29.6009 31.1234 29.651 30.9092 29.6602 30.6904L30.2891 30.8818C30.2891 31.2282 30.2161 31.57 30.0703 31.9072C29.929 32.2399 29.7308 32.5452 29.4756 32.8232C29.2249 33.0967 28.931 33.3154 28.5938 33.4795C28.2611 33.6436 27.8988 33.7256 27.5068 33.7256C27.0329 33.7256 26.6136 33.6367 26.249 33.459C25.889 33.2767 25.5882 33.0306 25.3467 32.7207C25.1097 32.4108 24.932 32.0553 24.8135 31.6543C24.695 31.2533 24.6357 30.8317 24.6357 30.3896C24.6357 29.9111 24.7087 29.4622 24.8545 29.043C25.0003 28.6237 25.2122 28.2546 25.4902 27.9355C25.7682 27.612 26.1055 27.3613 26.502 27.1836C26.903 27.0013 27.3564 26.9102 27.8623 26.9102C28.4001 26.9102 28.8717 27.015 29.2773 27.2246C29.6829 27.4342 30.0247 27.7236 30.3027 28.0928C30.5807 28.4619 30.7904 28.8903 30.9316 29.3779C31.0729 29.8656 31.1436 30.3896 31.1436 30.9502V31.5312C31.1436 32.1191 31.0911 32.6865 30.9863 33.2334C30.8815 33.7757 30.7106 34.2793 30.4736 34.7441C30.2412 35.2044 29.9336 35.61 29.5508 35.9609C29.1725 36.3073 28.7077 36.5785 28.1562 36.7744C27.6094 36.9658 26.9668 37.0615 26.2285 37.0615H26.0781V35.7012ZM33.1019 36.1797C33.1019 35.9245 33.1885 35.7103 33.3617 35.5371C33.5349 35.3594 33.7696 35.2705 34.0658 35.2705C34.3666 35.2705 34.6013 35.3594 34.7699 35.5371C34.9431 35.7103 35.0296 35.9245 35.0296 36.1797C35.0296 36.4349 34.9431 36.6491 34.7699 36.8223C34.6013 36.9954 34.3666 37.082 34.0658 37.082C33.7696 37.082 33.5349 36.9954 33.3617 36.8223C33.1885 36.6491 33.1019 36.4349 33.1019 36.1797ZM33.1088 30.3555C33.1088 30.1003 33.1953 29.8861 33.3685 29.7129C33.5417 29.5352 33.7764 29.4463 34.0726 29.4463C34.3734 29.4463 34.6081 29.5352 34.7767 29.7129C34.9499 29.8861 35.0365 30.1003 35.0365 30.3555C35.0365 30.6107 34.9499 30.8249 34.7767 30.998C34.6081 31.1712 34.3734 31.2578 34.0726 31.2578C33.7764 31.2578 33.5417 31.1712 33.3685 30.998C33.1953 30.8249 33.1088 30.6107 33.1088 30.3555ZM38.7517 31.2783H39.7361C40.1189 31.2783 40.4356 31.2122 40.6862 31.0801C40.9415 30.9479 41.1306 30.7656 41.2536 30.5332C41.3767 30.3008 41.4382 30.0342 41.4382 29.7334C41.4382 29.4189 41.3812 29.1501 41.2673 28.9268C41.1579 28.6989 40.9893 28.5234 40.7614 28.4004C40.5381 28.2773 40.2533 28.2158 39.907 28.2158C39.6153 28.2158 39.351 28.2751 39.114 28.3936C38.8816 28.5075 38.697 28.6715 38.5603 28.8857C38.4236 29.0954 38.3552 29.346 38.3552 29.6377H36.7009C36.7009 29.109 36.8399 28.6396 37.1179 28.2295C37.3959 27.8193 37.7741 27.498 38.2527 27.2656C38.7357 27.0286 39.278 26.9102 39.8796 26.9102C40.5222 26.9102 41.0827 27.0173 41.5612 27.2314C42.0443 27.4411 42.4203 27.7555 42.6892 28.1748C42.9581 28.5941 43.0925 29.1136 43.0925 29.7334C43.0925 30.016 43.0264 30.3031 42.8943 30.5947C42.7621 30.8864 42.5661 31.153 42.3064 31.3945C42.0466 31.6315 41.723 31.8252 41.3357 31.9756C40.9483 32.1214 40.4994 32.1943 39.989 32.1943H38.7517V31.2783ZM38.7517 32.5635V31.6611H39.989C40.5723 31.6611 41.0691 31.7295 41.4792 31.8662C41.8939 32.0029 42.2312 32.1921 42.4909 32.4336C42.7507 32.6706 42.9398 32.9417 43.0583 33.2471C43.1814 33.5524 43.2429 33.876 43.2429 34.2178C43.2429 34.6826 43.1586 35.0973 42.99 35.4619C42.8259 35.8219 42.5912 36.1273 42.2859 36.3779C41.9805 36.6286 41.6228 36.8177 41.2126 36.9453C40.807 37.0729 40.365 37.1367 39.8864 37.1367C39.4581 37.1367 39.0479 37.0775 38.656 36.959C38.264 36.8405 37.9131 36.665 37.6032 36.4326C37.2933 36.1956 37.0473 35.9017 36.865 35.5508C36.6872 35.1953 36.5984 34.7852 36.5984 34.3203H38.2458C38.2458 34.6165 38.3142 34.8786 38.4509 35.1064C38.5922 35.3298 38.7881 35.5052 39.0388 35.6328C39.294 35.7604 39.5857 35.8242 39.9138 35.8242C40.2601 35.8242 40.5586 35.7627 40.8093 35.6396C41.0599 35.5166 41.2514 35.3343 41.3835 35.0928C41.5202 34.8512 41.5886 34.5596 41.5886 34.2178C41.5886 33.8304 41.5134 33.516 41.363 33.2744C41.2126 33.0329 40.9984 32.8551 40.7204 32.7412C40.4424 32.6227 40.1143 32.5635 39.7361 32.5635H38.7517ZM51.5382 31.1895V32.8164C51.5382 33.5957 51.4607 34.2611 51.3057 34.8125C51.1554 35.3594 50.9366 35.8037 50.6495 36.1455C50.3624 36.4873 50.0183 36.738 49.6173 36.8975C49.2208 37.057 48.7764 37.1367 48.2843 37.1367C47.8923 37.1367 47.5277 37.0866 47.1905 36.9863C46.8578 36.8861 46.557 36.7288 46.2882 36.5146C46.0193 36.3005 45.7891 36.0247 45.5977 35.6875C45.4109 35.3457 45.2651 34.9378 45.1602 34.4639C45.06 33.9899 45.0098 33.4408 45.0098 32.8164V31.1895C45.0098 30.4056 45.0873 29.7448 45.2423 29.207C45.3972 28.6647 45.6182 28.2249 45.9054 27.8877C46.1925 27.5459 46.5343 27.2975 46.9307 27.1426C47.3318 26.9876 47.7784 26.9102 48.2706 26.9102C48.6671 26.9102 49.0317 26.9603 49.3643 27.0605C49.7016 27.1562 50.0024 27.3089 50.2667 27.5186C50.5356 27.7282 50.7634 28.0016 50.9503 28.3389C51.1417 28.6715 51.2875 29.0749 51.3878 29.5488C51.488 30.0182 51.5382 30.5651 51.5382 31.1895ZM49.8907 33.0488V30.9434C49.8907 30.5469 49.8679 30.1982 49.8223 29.8975C49.7768 29.5921 49.7084 29.3346 49.6173 29.125C49.5307 28.9108 49.4213 28.7376 49.2891 28.6055C49.157 28.4688 49.0066 28.3708 48.838 28.3115C48.6693 28.2477 48.4802 28.2158 48.2706 28.2158C48.0154 28.2158 47.7875 28.266 47.587 28.3662C47.3865 28.4619 47.2179 28.6169 47.0811 28.8311C46.9444 29.0452 46.8396 29.3278 46.7667 29.6787C46.6983 30.0251 46.6641 30.4466 46.6641 30.9434V33.0488C46.6641 33.4499 46.6869 33.8031 46.7325 34.1084C46.7781 34.4137 46.8464 34.6758 46.9376 34.8945C47.0287 35.1087 47.1381 35.2865 47.2657 35.4277C47.3979 35.5645 47.5483 35.6647 47.7169 35.7285C47.8901 35.7923 48.0792 35.8242 48.2843 35.8242C48.544 35.8242 48.7742 35.7741 48.9747 35.6738C49.1752 35.5736 49.3438 35.4141 49.4805 35.1953C49.6173 34.972 49.7198 34.6826 49.7882 34.3271C49.8565 33.9717 49.8907 33.5456 49.8907 33.0488Z" fill="#1F1F1F"/>
<path opacity="0.1" d="M350.5 26.4167C347.1 26.4167 344.125 27.9042 342 30.2417L350.5 40.5834L359 30.2417C356.875 27.9042 353.9 26.4167 350.5 26.4167Z" fill="#1F1F1F"/>
<path d="M373.583 26.4167L359.417 40.5834H373.583V26.4167Z" fill="#1F1F1F"/>
<path d="M385.5 26H382.5V27.5H381C380.448 27.5 380 28.0037 380 28.625V39.875C380 40.4963 380.448 41 381 41H387C387.552 41 388 40.4963 388 39.875V28.625C388 28.0037 387.552 27.5 387 27.5H385.5V26Z" fill="#1F1F1F" fill-opacity="0.3"/>
<path d="M380 34C380 34.5833 380 39.3667 380 39.95C380 40.5299 380.448 41 381 41H387C387.552 41 388 40.5299 388 39.95C388 39.3667 388 34.5833 388 34H380Z" fill="#1F1F1F"/>
<rect x="150" y="706" width="112" height="40" rx="20" fill="#421926"/>
<path d="M172 733.5H178" stroke="white" stroke-width="1.4" stroke-linecap="square"/>
<path d="M171.25 724.5H178.75" stroke="white" stroke-width="1.4" stroke-linecap="round" stroke-linejoin="round"/>
<path d="M175 728.25V733.5" stroke="white" stroke-width="1.4" stroke-linecap="round" stroke-linejoin="round"/>
<path d="M175 728.25C175.995 728.25 176.948 727.855 177.652 727.152C178.355 726.448 178.75 725.495 178.75 724.5C178.75 723 178.375 721.5 177.25 718.5H172.75C171.625 721.5 171.25 723 171.25 724.5C171.25 725.495 171.645 726.448 172.348 727.152C173.052 727.855 174.005 728.25 175 728.25V728.25Z" stroke="white" stroke-width="1.4" stroke-linecap="round"/>
<path d="M198.598 731L196.358 727.108H195.14V731H193.544V721.27H196.904C197.651 721.27 198.281 721.401 198.794 721.662C199.317 721.923 199.704 722.273 199.956 722.712C200.218 723.151 200.348 723.641 200.348 724.182C200.348 724.817 200.162 725.395 199.788 725.918C199.424 726.431 198.86 726.781 198.094 726.968L200.502 731H198.598ZM195.14 725.834H196.904C197.502 725.834 197.95 725.685 198.248 725.386C198.556 725.087 198.71 724.686 198.71 724.182C198.71 723.678 198.561 723.286 198.262 723.006C197.964 722.717 197.511 722.572 196.904 722.572H195.14V725.834ZM209.56 726.954C209.56 727.243 209.541 727.505 209.504 727.738H203.61C203.657 728.354 203.885 728.849 204.296 729.222C204.707 729.595 205.211 729.782 205.808 729.782C206.667 729.782 207.273 729.423 207.628 728.704H209.35C209.117 729.413 208.692 729.997 208.076 730.454C207.469 730.902 206.713 731.126 205.808 731.126C205.071 731.126 204.408 730.963 203.82 730.636C203.241 730.3 202.784 729.833 202.448 729.236C202.121 728.629 201.958 727.929 201.958 727.136C201.958 726.343 202.117 725.647 202.434 725.05C202.761 724.443 203.213 723.977 203.792 723.65C204.38 723.323 205.052 723.16 205.808 723.16C206.536 723.16 207.185 723.319 207.754 723.636C208.323 723.953 208.767 724.401 209.084 724.98C209.401 725.549 209.56 726.207 209.56 726.954ZM207.894 726.45C207.885 725.862 207.675 725.391 207.264 725.036C206.853 724.681 206.345 724.504 205.738 724.504C205.187 724.504 204.716 724.681 204.324 725.036C203.932 725.381 203.699 725.853 203.624 726.45H207.894ZM210.699 727.108C210.699 726.333 210.857 725.647 211.175 725.05C211.501 724.453 211.94 723.991 212.491 723.664C213.051 723.328 213.667 723.16 214.339 723.16C214.945 723.16 215.473 723.281 215.921 723.524C216.378 723.757 216.742 724.051 217.013 724.406V723.286H218.623V731H217.013V729.852C216.742 730.216 216.373 730.519 215.907 730.762C215.44 731.005 214.908 731.126 214.311 731.126C213.648 731.126 213.041 730.958 212.491 730.622C211.94 730.277 211.501 729.801 211.175 729.194C210.857 728.578 210.699 727.883 210.699 727.108ZM217.013 727.136C217.013 726.604 216.901 726.142 216.677 725.75C216.462 725.358 216.177 725.059 215.823 724.854C215.468 724.649 215.085 724.546 214.675 724.546C214.264 724.546 213.881 724.649 213.527 724.854C213.172 725.05 212.883 725.344 212.659 725.736C212.444 726.119 212.337 726.576 212.337 727.108C212.337 727.64 212.444 728.107 212.659 728.508C212.883 728.909 213.172 729.217 213.527 729.432C213.891 729.637 214.273 729.74 214.675 729.74C215.085 729.74 215.468 729.637 215.823 729.432C216.177 729.227 216.462 728.928 216.677 728.536C216.901 728.135 217.013 727.668 217.013 727.136ZM220.287 727.108C220.287 726.333 220.446 725.647 220.763 725.05C221.09 724.453 221.528 723.991 222.079 723.664C222.639 723.328 223.26 723.16 223.941 723.16C224.445 723.16 224.94 723.272 225.425 723.496C225.92 723.711 226.312 724 226.601 724.364V720.64H228.211V731H226.601V729.838C226.34 730.211 225.976 730.519 225.509 730.762C225.052 731.005 224.524 731.126 223.927 731.126C223.255 731.126 222.639 730.958 222.079 730.622C221.528 730.277 221.09 729.801 220.763 729.194C220.446 728.578 220.287 727.883 220.287 727.108ZM226.601 727.136C226.601 726.604 226.489 726.142 226.265 725.75C226.05 725.358 225.766 725.059 225.411 724.854C225.056 724.649 224.674 724.546 224.263 724.546C223.852 724.546 223.47 724.649 223.115 724.854C222.76 725.05 222.471 725.344 222.247 725.736C222.032 726.119 221.925 726.576 221.925 727.108C221.925 727.64 222.032 728.107 222.247 728.508C222.471 728.909 222.76 729.217 223.115 729.432C223.479 729.637 223.862 729.74 224.263 729.74C224.674 729.74 225.056 729.637 225.411 729.432C225.766 729.227 226.05 728.928 226.265 728.536C226.489 728.135 226.601 727.668 226.601 727.136ZM237.351 723.286L232.619 734.626H230.967L232.535 730.874L229.497 723.286H231.275L233.445 729.166L235.699 723.286H237.351Z" fill="white"/>
<path d="M126.976 667L124.416 662.552H123.024V667H121.2V655.88H125.04C125.893 655.88 126.613 656.029 127.2 656.328C127.797 656.627 128.24 657.027 128.528 657.528C128.827 658.029 128.976 658.589 128.976 659.208C128.976 659.933 128.763 660.595 128.336 661.192C127.92 661.779 127.275 662.179 126.4 662.392L129.152 667H126.976ZM123.024 661.096H125.04C125.723 661.096 126.235 660.925 126.576 660.584C126.928 660.243 127.104 659.784 127.104 659.208C127.104 658.632 126.933 658.184 126.592 657.864C126.251 657.533 125.733 657.368 125.04 657.368H123.024V661.096ZM139.639 662.376C139.639 662.707 139.618 663.005 139.575 663.272H132.839C132.893 663.976 133.154 664.541 133.623 664.968C134.093 665.395 134.669 665.608 135.351 665.608C136.333 665.608 137.026 665.197 137.431 664.376H139.399C139.133 665.187 138.647 665.853 137.943 666.376C137.25 666.888 136.386 667.144 135.351 667.144C134.509 667.144 133.751 666.957 133.079 666.584C132.418 666.2 131.895 665.667 131.511 664.984C131.138 664.291 130.951 663.491 130.951 662.584C130.951 661.677 131.133 660.883 131.495 660.2C131.869 659.507 132.386 658.973 133.047 658.6C133.719 658.227 134.487 658.04 135.351 658.04C136.183 658.04 136.925 658.221 137.575 658.584C138.226 658.947 138.733 659.459 139.095 660.12C139.458 660.771 139.639 661.523 139.639 662.376ZM137.735 661.8C137.725 661.128 137.485 660.589 137.015 660.184C136.546 659.779 135.965 659.576 135.271 659.576C134.642 659.576 134.103 659.779 133.655 660.184C133.207 660.579 132.941 661.117 132.855 661.8H137.735ZM152.356 658.04C153.05 658.04 153.668 658.184 154.212 658.472C154.767 658.76 155.199 659.187 155.508 659.752C155.828 660.317 155.988 661 155.988 661.8V667H154.18V662.072C154.18 661.283 153.983 660.68 153.588 660.264C153.194 659.837 152.655 659.624 151.972 659.624C151.29 659.624 150.746 659.837 150.34 660.264C149.946 660.68 149.748 661.283 149.748 662.072V667H147.94V662.072C147.94 661.283 147.743 660.68 147.348 660.264C146.954 659.837 146.415 659.624 145.732 659.624C145.05 659.624 144.506 659.837 144.1 660.264C143.706 660.68 143.508 661.283 143.508 662.072V667H141.684V658.184H143.508V659.192C143.807 658.829 144.186 658.547 144.644 658.344C145.103 658.141 145.594 658.04 146.116 658.04C146.82 658.04 147.45 658.189 148.004 658.488C148.559 658.787 148.986 659.219 149.284 659.784C149.551 659.251 149.967 658.829 150.532 658.52C151.098 658.2 151.706 658.04 152.356 658.04ZM166.639 662.376C166.639 662.707 166.618 663.005 166.575 663.272H159.839C159.893 663.976 160.154 664.541 160.623 664.968C161.093 665.395 161.669 665.608 162.351 665.608C163.333 665.608 164.026 665.197 164.431 664.376H166.399C166.133 665.187 165.647 665.853 164.943 666.376C164.25 666.888 163.386 667.144 162.351 667.144C161.509 667.144 160.751 666.957 160.079 666.584C159.418 666.2 158.895 665.667 158.511 664.984C158.138 664.291 157.951 663.491 157.951 662.584C157.951 661.677 158.133 660.883 158.495 660.2C158.869 659.507 159.386 658.973 160.047 658.6C160.719 658.227 161.487 658.04 162.351 658.04C163.183 658.04 163.925 658.221 164.575 658.584C165.226 658.947 165.733 659.459 166.095 660.12C166.458 660.771 166.639 661.523 166.639 662.376ZM164.735 661.8C164.725 661.128 164.485 660.589 164.015 660.184C163.546 659.779 162.965 659.576 162.271 659.576C161.642 659.576 161.103 659.779 160.655 660.184C160.207 660.579 159.941 661.117 159.855 661.8H164.735ZM179.356 658.04C180.05 658.04 180.668 658.184 181.212 658.472C181.767 658.76 182.199 659.187 182.508 659.752C182.828 660.317 182.988 661 182.988 661.8V667H181.18V662.072C181.18 661.283 180.983 660.68 180.588 660.264C180.194 659.837 179.655 659.624 178.972 659.624C178.29 659.624 177.746 659.837 177.34 660.264C176.946 660.68 176.748 661.283 176.748 662.072V667H174.94V662.072C174.94 661.283 174.743 660.68 174.348 660.264C173.954 659.837 173.415 659.624 172.732 659.624C172.05 659.624 171.506 659.837 171.1 660.264C170.706 660.68 170.508 661.283 170.508 662.072V667H168.684V658.184H170.508V659.192C170.807 658.829 171.186 658.547 171.644 658.344C172.103 658.141 172.594 658.04 173.116 658.04C173.82 658.04 174.45 658.189 175.004 658.488C175.559 658.787 175.986 659.219 176.284 659.784C176.551 659.251 176.967 658.829 177.532 658.52C178.098 658.2 178.706 658.04 179.356 658.04ZM187.383 659.496C187.693 659.069 188.114 658.723 188.647 658.456C189.191 658.179 189.794 658.04 190.455 658.04C191.234 658.04 191.938 658.227 192.567 658.6C193.197 658.973 193.693 659.507 194.055 660.2C194.418 660.883 194.599 661.667 194.599 662.552C194.599 663.437 194.418 664.232 194.055 664.936C193.693 665.629 193.191 666.173 192.551 666.568C191.922 666.952 191.223 667.144 190.455 667.144C189.773 667.144 189.165 667.011 188.631 666.744C188.109 666.477 187.693 666.136 187.383 665.72V667H185.559V655.16H187.383V659.496ZM192.743 662.552C192.743 661.944 192.615 661.421 192.359 660.984C192.114 660.536 191.783 660.2 191.367 659.976C190.962 659.741 190.525 659.624 190.055 659.624C189.597 659.624 189.159 659.741 188.743 659.976C188.338 660.211 188.007 660.552 187.751 661C187.506 661.448 187.383 661.976 187.383 662.584C187.383 663.192 187.506 663.725 187.751 664.184C188.007 664.632 188.338 664.973 188.743 665.208C189.159 665.443 189.597 665.56 190.055 665.56C190.525 665.56 190.962 665.443 191.367 665.208C191.783 664.963 192.114 664.611 192.359 664.152C192.615 663.693 192.743 663.16 192.743 662.552ZM204.733 662.376C204.733 662.707 204.712 663.005 204.669 663.272H197.933C197.986 663.976 198.248 664.541 198.717 664.968C199.186 665.395 199.762 665.608 200.445 665.608C201.426 665.608 202.12 665.197 202.525 664.376H204.493C204.226 665.187 203.741 665.853 203.037 666.376C202.344 666.888 201.48 667.144 200.445 667.144C199.602 667.144 198.845 666.957 198.173 666.584C197.512 666.2 196.989 665.667 196.605 664.984C196.232 664.291 196.045 663.491 196.045 662.584C196.045 661.677 196.226 660.883 196.589 660.2C196.962 659.507 197.48 658.973 198.141 658.6C198.813 658.227 199.581 658.04 200.445 658.04C201.277 658.04 202.018 658.221 202.669 658.584C203.32 658.947 203.826 659.459 204.189 660.12C204.552 660.771 204.733 661.523 204.733 662.376ZM202.829 661.8C202.818 661.128 202.578 660.589 202.109 660.184C201.64 659.779 201.058 659.576 200.365 659.576C199.736 659.576 199.197 659.779 198.749 660.184C198.301 660.579 198.034 661.117 197.949 661.8H202.829ZM208.602 659.464C208.869 659.016 209.221 658.669 209.658 658.424C210.106 658.168 210.634 658.04 211.242 658.04V659.928H210.778C210.063 659.928 209.519 660.109 209.146 660.472C208.783 660.835 208.602 661.464 208.602 662.36V667H206.778V658.184H208.602V659.464ZM219.703 659.672V664.552C219.703 664.883 219.778 665.123 219.927 665.272C220.087 665.411 220.354 665.48 220.727 665.48H221.847V667H220.407C219.586 667 218.956 666.808 218.519 666.424C218.082 666.04 217.863 665.416 217.863 664.552V659.672H216.823V658.184H217.863V655.992H219.703V658.184H221.847V659.672H219.703ZM228.338 658.04C229.01 658.04 229.607 658.184 230.13 658.472C230.663 658.76 231.079 659.187 231.378 659.752C231.687 660.317 231.842 661 231.842 661.8V667H230.034V662.072C230.034 661.283 229.837 660.68 229.442 660.264C229.047 659.837 228.509 659.624 227.826 659.624C227.143 659.624 226.599 659.837 226.194 660.264C225.799 660.68 225.602 661.283 225.602 662.072V667H223.778V655.16H225.602V659.208C225.911 658.835 226.301 658.547 226.77 658.344C227.25 658.141 227.773 658.04 228.338 658.04ZM242.499 662.376C242.499 662.707 242.477 663.005 242.435 663.272H235.699C235.752 663.976 236.013 664.541 236.483 664.968C236.952 665.395 237.528 665.608 238.211 665.608C239.192 665.608 239.885 665.197 240.291 664.376H242.259C241.992 665.187 241.507 665.853 240.803 666.376C240.109 666.888 239.245 667.144 238.211 667.144C237.368 667.144 236.611 666.957 235.939 666.584C235.277 666.2 234.755 665.667 234.371 664.984C233.997 664.291 233.811 663.491 233.811 662.584C233.811 661.677 233.992 660.883 234.355 660.2C234.728 659.507 235.245 658.973 235.907 658.6C236.579 658.227 237.347 658.04 238.211 658.04C239.043 658.04 239.784 658.221 240.435 658.584C241.085 658.947 241.592 659.459 241.955 660.12C242.317 660.771 242.499 661.523 242.499 662.376ZM240.595 661.8C240.584 661.128 240.344 660.589 239.875 660.184C239.405 659.779 238.824 659.576 238.131 659.576C237.501 659.576 236.963 659.779 236.515 660.184C236.067 660.579 235.8 661.117 235.715 661.8H240.595ZM256.23 656.904H250.87V660.088C251.094 659.789 251.425 659.539 251.862 659.336C252.31 659.133 252.785 659.032 253.286 659.032C254.182 659.032 254.907 659.224 255.462 659.608C256.027 659.992 256.427 660.477 256.662 661.064C256.907 661.651 257.03 662.269 257.03 662.92C257.03 663.709 256.875 664.413 256.566 665.032C256.267 665.64 255.814 666.12 255.206 666.472C254.609 666.824 253.873 667 252.998 667C251.835 667 250.902 666.712 250.198 666.136C249.494 665.56 249.073 664.797 248.934 663.848H250.71C250.827 664.349 251.089 664.749 251.494 665.048C251.899 665.336 252.406 665.48 253.014 665.48C253.771 665.48 254.337 665.251 254.71 664.792C255.094 664.333 255.286 663.725 255.286 662.968C255.286 662.2 255.094 661.613 254.71 661.208C254.326 660.792 253.761 660.584 253.014 660.584C252.491 660.584 252.049 660.717 251.686 660.984C251.334 661.24 251.078 661.592 250.918 662.04H249.19V655.304H256.23V656.904ZM267.489 667.112C266.742 667.112 266.07 666.984 265.473 666.728C264.876 666.461 264.406 666.088 264.065 665.608C263.724 665.128 263.553 664.568 263.553 663.928H265.505C265.548 664.408 265.734 664.803 266.065 665.112C266.406 665.421 266.881 665.576 267.489 665.576C268.118 665.576 268.609 665.427 268.961 665.128C269.313 664.819 269.489 664.424 269.489 663.944C269.489 663.571 269.377 663.267 269.153 663.032C268.94 662.797 268.668 662.616 268.337 662.488C268.017 662.36 267.569 662.221 266.993 662.072C266.268 661.88 265.676 661.688 265.217 661.496C264.769 661.293 264.385 660.984 264.065 660.568C263.745 660.152 263.585 659.597 263.585 658.904C263.585 658.264 263.745 657.704 264.065 657.224C264.385 656.744 264.833 656.376 265.409 656.12C265.985 655.864 266.652 655.736 267.409 655.736C268.486 655.736 269.366 656.008 270.049 656.552C270.742 657.085 271.126 657.821 271.201 658.76H269.185C269.153 658.355 268.961 658.008 268.609 657.72C268.257 657.432 267.793 657.288 267.217 657.288C266.694 657.288 266.268 657.421 265.937 657.688C265.606 657.955 265.441 658.339 265.441 658.84C265.441 659.181 265.542 659.464 265.745 659.688C265.958 659.901 266.225 660.072 266.545 660.2C266.865 660.328 267.302 660.467 267.857 660.616C268.593 660.819 269.19 661.021 269.649 661.224C270.118 661.427 270.513 661.741 270.833 662.168C271.164 662.584 271.329 663.144 271.329 663.848C271.329 664.413 271.174 664.947 270.865 665.448C270.566 665.949 270.124 666.355 269.537 666.664C268.961 666.963 268.278 667.112 267.489 667.112ZM274.019 655.88H276.003L274.323 659.688H273.043L274.019 655.88ZM281.056 667.144C280.363 667.144 279.739 667.021 279.184 666.776C278.64 666.52 278.208 666.179 277.888 665.752C277.568 665.315 277.398 664.829 277.376 664.296H279.264C279.296 664.669 279.472 664.984 279.792 665.24C280.123 665.485 280.534 665.608 281.024 665.608C281.536 665.608 281.931 665.512 282.208 665.32C282.496 665.117 282.64 664.861 282.64 664.552C282.64 664.221 282.48 663.976 282.16 663.816C281.851 663.656 281.355 663.48 280.672 663.288C280.011 663.107 279.472 662.931 279.056 662.76C278.64 662.589 278.278 662.328 277.968 661.976C277.67 661.624 277.52 661.16 277.52 660.584C277.52 660.115 277.659 659.688 277.936 659.304C278.214 658.909 278.608 658.6 279.12 658.376C279.643 658.152 280.24 658.04 280.912 658.04C281.915 658.04 282.72 658.296 283.328 658.808C283.947 659.309 284.278 659.997 284.32 660.872H282.496C282.464 660.477 282.304 660.163 282.016 659.928C281.728 659.693 281.339 659.576 280.848 659.576C280.368 659.576 280 659.667 279.744 659.848C279.488 660.029 279.36 660.269 279.36 660.568C279.36 660.803 279.446 661 279.616 661.16C279.787 661.32 279.995 661.448 280.24 661.544C280.486 661.629 280.848 661.741 281.328 661.88C281.968 662.051 282.491 662.227 282.896 662.408C283.312 662.579 283.67 662.835 283.968 663.176C284.267 663.517 284.422 663.971 284.432 664.536C284.432 665.037 284.294 665.485 284.016 665.88C283.739 666.275 283.344 666.584 282.832 666.808C282.331 667.032 281.739 667.144 281.056 667.144ZM288.941 655.88L288.733 663.64H287.213L287.005 655.88H288.941ZM288.029 667.112C287.698 667.112 287.421 667 287.197 666.776C286.973 666.552 286.861 666.275 286.861 665.944C286.861 665.613 286.973 665.336 287.197 665.112C287.421 664.888 287.698 664.776 288.029 664.776C288.349 664.776 288.621 664.888 288.845 665.112C289.069 665.336 289.181 665.613 289.181 665.944C289.181 666.275 289.069 666.552 288.845 666.776C288.621 667 288.349 667.112 288.029 667.112Z" fill="#421926"/>
<defs>
<radialGradient id="paint0_radial_554_777" cx="0" cy="0" r="1" gradientUnits="userSpaceOnUse" gradientTransform="translate(204.822 591.202) scale(47.8712 9.93555)">
<stop offset="0.76"/>
<stop offset="0.79" stop-color="#1B1B1B"/>
<stop offset="0.86" stop-color="#606060"/>
<stop offset="0.96" stop-color="#CECECE"/>
<stop offset="1" stop-color="white"/>
</radialGradient>
<linearGradient id="paint1_linear_554_777" x1="161.464" y1="478.213" x2="190.223" y2="478.213" gradientUnits="userSpaceOnUse">
<stop stop-color="white"/>
<stop offset="0.91"/>
</linearGradient>
<linearGradient id="paint2_linear_554_777" x1="236.132" y1="478.012" x2="248.28" y2="478.012" gradientUnits="userSpaceOnUse">
<stop/>
<stop offset="0.09" stop-color="#060606"/>
<stop offset="0.22" stop-color="#171717"/>
<stop offset="0.36" stop-color="#333333"/>
<stop offset="0.52" stop-color="#5B5B5B"/>
<stop offset="0.69" stop-color="#8E8E8E"/>
<stop offset="0.87" stop-color="#CBCBCB"/>
<stop offset="1" stop-color="white"/>
</linearGradient>
<linearGradient id="paint3_linear_554_777" x1="190.241" y1="325.11" x2="201.168" y2="325.11" gradientUnits="userSpaceOnUse">
<stop stop-color="white"/>
<stop offset="0.02" stop-color="#F5F5F5"/>
<stop offset="0.25" stop-color="#9F9F9F"/>
<stop offset="0.46" stop-color="#5B5B5B"/>
<stop offset="0.63" stop-color="#292929"/>
<stop offset="0.76" stop-color="#0B0B0B"/>
<stop offset="0.83"/>
</linearGradient>
<linearGradient id="paint4_linear_554_777" x1="213.733" y1="324.072" x2="220.696" y2="324.072" gradientUnits="userSpaceOnUse">
<stop/>
<stop offset="1" stop-color="white"/>
</linearGradient>
<linearGradient id="paint5_linear_554_777" x1="188.28" y1="275.986" x2="222.191" y2="275.986" gradientUnits="userSpaceOnUse">
<stop offset="0.06" stop-color="#8B8A87"/>
<stop offset="0.08" stop-color="#838280"/>
<stop offset="0.15" stop-color="#656463"/>
<stop offset="0.22" stop-color="#4C4B4C"/>
<stop offset="0.3" stop-color="#38383A"/>
<stop offset="0.4" stop-color="#2B2B2D"/>
<stop offset="0.52" stop-color="#232326"/>
<stop offset="0.74" stop-color="#212124"/>
<stop offset="1" stop-color="#231F20"/>
</linearGradient>
<linearGradient id="paint6_linear_554_777" x1="205.151" y1="256.916" x2="205.315" y2="252.234" gradientUnits="userSpaceOnUse">
<stop offset="0.19" stop-color="white"/>
<stop offset="1" stop-color="#231F20"/>
</linearGradient>
<linearGradient id="paint7_linear_554_777" x1="205.233" y1="241.11" x2="205.233" y2="245.696" gradientUnits="userSpaceOnUse">
<stop offset="0.19" stop-color="white"/>
<stop offset="1" stop-color="#231F20"/>
</linearGradient>
<linearGradient id="paint8_linear_554_777" x1="187.283" y1="248.119" x2="223.183" y2="248.119" gradientUnits="userSpaceOnUse">
<stop stop-color="#7E7D84"/>
<stop offset="0.01" stop-color="#8B8A8C"/>
<stop offset="0.02" stop-color="#939290"/>
<stop offset="0.04" stop-color="#969592"/>
<stop offset="0.12" stop-color="#73726F"/>
<stop offset="0.18" stop-color="#656462"/>
<stop offset="0.33" stop-color="#474747"/>
<stop offset="0.47" stop-color="#323233"/>
<stop offset="0.61" stop-color="#252527"/>
<stop offset="0.74" stop-color="#212124"/>
<stop offset="1" stop-color="#231F20"/>
</linearGradient>
<linearGradient id="paint9_linear_554_777" x1="160.558" y1="465.649" x2="249.908" y2="465.649" gradientUnits="userSpaceOnUse">
<stop stop-color="#231F20"/>
<stop offset="0.01" stop-color="#3C3939"/>
<stop offset="0.04" stop-color="#656262"/>
<stop offset="0.06" stop-color="#8A8788"/>
<stop offset="0.09" stop-color="#A9A8A8"/>
<stop offset="0.12" stop-color="#C4C3C3"/>
<stop offset="0.16" stop-color="#DAD9D9"/>
<stop offset="0.2" stop-color="#EAEAEA"/>
<stop offset="0.25" stop-color="#F6F6F6"/>
<stop offset="0.33" stop-color="#FDFDFD"/>
<stop offset="0.53" stop-color="white"/>
<stop offset="0.71" stop-color="#FDFDFD"/>
<stop offset="0.77" stop-color="#F6F6F6"/>
<stop offset="0.82" stop-color="#EAEAEA"/>
<stop offset="0.86" stop-color="#DAD9D9"/>
<stop offset="0.89" stop-color="#C4C3C3"/>
<stop offset="0.92" stop-color="#A9A8A8"/>
<stop offset="0.94" stop-color="#8A8788"/>
<stop offset="0.97" stop-color="#656262"/>
<stop offset="0.99" stop-color="#3C3939"/>
<stop offset="1" stop-color="#231F20"/>
</linearGradient>
<clipPath id="clip0_554_777">
<rect width="89.3447" height="142.898" fill="white" transform="translate(160.558 394.2)"/>
</clipPath>
</defs>
</svg>
